<mxfile host="65bd71144e">
    <diagram id="Cz0eu6znZf_RfKfqPLl5" name="Page-1">
        <mxGraphModel dx="1468" dy="753" grid="1" gridSize="10" guides="1" tooltips="1" connect="1" arrows="1" fold="1" page="1" pageScale="1" pageWidth="850" pageHeight="1100" math="0" shadow="0">
            <root>
                <mxCell id="0"/>
                <mxCell id="1" parent="0"/>
                <mxCell id="19" value="" style="shape=image;verticalLabelPosition=bottom;labelBackgroundColor=default;verticalAlign=top;aspect=fixed;imageAspect=0;image=data:image/png,iVBORw0KGgoAAAANSUhEUgAABJMAAAGxCAYAAADWL/ceAAAAAXNSR0IArs4c6QAAAARnQU1BAACxjwv8YQUAAAAJcEhZcwAADsMAAA7DAcdvqGQAAP+lSURBVHhe7N13dBTV2wfwb0IKJHQRYugEAoFQl4QA0kVAASmCIiIdRQEbFuygqKAooBQpKlKkKU1QQJAmPQnppJDek01vmy3P+8cvO29mts2ugYTwfM7JOXBndvbOneeWvdPsiIjAGGOMMcYYY4wxxpgM9tIExhhjjDHGGGOMMcZM4ckkxhhjjDHGGGOMMSYbTyYxxhhjjDHGGGOMMdl4MokxxhhjjDHGGGOMycaTSYwxxhhjjDHGGGNMNp5MYowxxhhjjDHGGGOy8WQSY4wxxhhjjDHGGJONJ5MYY4wxxhhjjDHGmGw8mcQYY4wxxhhjjDHGZOPJJMYYY4wxxhhjjDEmG08mMcYYY4wxxhhjjDHZeDKJMcYYY4wxxhhjjMnGk0mMMcYYY4wxxhhjTDaeTGKMMcYYY4wxxhhjsvFkEmOMMcYYY4wxxhiTjSeTGGOMMcYYY4wxxphsPJnEGGOMMcYYY4wxxmTjySTGGGOMMcYYY4wxJhtPJjHGGGOMMcYYY4wx2XgyiTHGGGOMMcYYY4zJxpNJjDHGGGOMMcYYY0w2nkxiVU6r1UqTGGOMMcYYY4wxVkvwZBKrcsXFxdIkxhhjjDHGGGOM1RI8mcQYY4wxxhhjjDHGZOPJJMYYY4wxxhhjjDEmG08mMcYYY4wxxhhjjDHZeDKJMfafBAYGYs+ePcjMzJQuqnHup7wyxqoetwEsMTER+/fvx+HDh6FSqaSL2X2soKAAhw4dwtmzZ6WLTKqONsGWfJpTHfvAal65V3VcMSaHHRGRNJFZVqrSoKSsHGXlWqi1Wjg51IGzkwPq13WEs5ODdPUHSkFBARo2bChNZrXQp59+iitXriAvLw9jxozBhx9+KF2lxrif8soYq3rcBrDDhw/j888/h5OTE8rKyvDyyy9jzpw50tXYfSgyMhJLly5FeXk5lEolTpw4gebNm0tXE6mONsGWfJpTHfvAal65V3VcMSYXTybJUFhSjsjEbEQn5SA+PQ+ZucUoKi2XriZo6OqM5k1c0f6RxvBs/RA82zwEF2dH6Wq1Vk2aTCIihIWFITw8HCUlJXB3d8fAgQPh6uoqXZXZIC8vD40bN8Ybb7yBBg0aYPny5dJVTMrKyoKDgwOaNGkiXXRX6PM6a9YsdOzYER988IF0FXYX3OvjzJgp+jbg9ddfR4MGDbBixQrpKswMrVaLhIQEtG/fHnZ2dtLFNV5UVBRee+01rF+/Hh07dkR8fDyUSiUUCoV0VWZBTWzXS0pK4ODggDt37mDGjBk4cuQIWrZsKV1NpDrGBfp8xsbG4vnnn8fx48fRokUL6WqycbtWNayN6f8y/r0bpHF19OhRuLu7S1cz6n5v21n14tvcTNBodbgSloy1+69i6fen8MMRf5wNiENsaq7ZiSQAKChWISY5B6dvxGLD7zfw5nensOH3G/CPTIOO5+7umatXr+LZZ5/FunXrEBgYiHPnzuG9997D2LFjcebMGenqzAaNGzcGACiVSjRr1ky62KSIiAiMHz8es2bNki66a/R5TUxMtDjAZFWjOo4zY6bo24CsrCzh30y+ZcuWYerUqfjzzz+li+4LP/zwA2bOnImOHTsCANq1a8cTSTaoqe26i4sLnJyckJWVBVSq7+ZUx7hAn8/09HTY29tbNXYyhtu1/86WmLZ1/Hu36OMqJycHAPDQQw9JVzHpfm/bWfXiySSJcrUWp2/EYtnmM/jxj0CExWX95wkgjVaHW9Hp2Hz4Jt7/4SzOByZAq9NJV2NVaMuWLdi0aRO++uorbN26FV988QV+/vln/PLLL3BycsKyZctw8+ZN6ceYjdLS0uDm5iZNNiknJwdqtRr9+vWTLrqrcnJyUFBQgPbt20sXMRulp6cLgxep6jrOrPpptVpERUVJk2uElJQUq9oruWryPuuZq6+WZGRkoGHDhujSpYt0kU3uZXkVFBTg4sWL3BZVgZrerqekpKB+/fqyr0CvrnFBYmIi3NzcUKdOHekim9ytdu1BYC6mLbWZ1o5/77a0tDQ0adIEzs7O0kUmmWvbLe1/VbmX/UFlVb1/1bUf1YknkyoJiknHR9v+wf6zYcgrKpMurhLZ+SXYdSoYy388j8hEpXQxqwLbt2/HxYsXsXnzZrRp00a0rGvXrvjss8+g0+mwbt060TJmm5KSEuTk5KB169bSRSYNHDgQFy9exHvvvSdddFfFx8cDADp06CBdxGwQEBCACRMmIC8vT7oIqMbjzKrfq6++ih9//FGaXO1ycnJQWFho0DdUhZq6z3qW6qsl27dvx8mTJ6us/byX5XXjxg0Q0T27+qQ2q+ntekJCglX1u7rGBbGxsWjbtq002SZ3s117EJiKaUttpi3j37stOTnZ6vyYatst7X9Vupf9gd7d2L/q2I/qxpNJAMrKNdhy1B/f/3YDyoJS6eK7Ik1ZhK9/vYxdJ4Oh1vBVSlXlxo0b2L59Oz7//HPUq1dPuhgA4OPjA09PT0RERCAxMVG6mFkpISEBqLhlwBqmjs/dFBMTA2dnZ7Rq1Uq6iNng2rVrsLOzMzsgro7jzKpXeXk5rl+/LtxOVJPExcUBQJVfhVCT91lPTn01x8HBAY6OVfP8x3tdXmFhYWjatGmV5f9BV5Pb9djYWKvGI9U1Lrhz547Bj3db3a127UFiLKYttZm2jn/vpvj4eKvzY6ptt7T/VeVe9wd6Vb1/1bUf1Y4ecEmZ+fTeD2do3pdHq+1vxU/nKTO3WJq1+1Z+fr406Z5Qq9U0YcIEWr16tXSRgVWrVpFCoaDTp08LaRkZGbRx40ZavXo1ZWVlidYPDg6m1atX07Zt20in0wnp+fn5tH37dvr8888pLS2NtFotHTlyhD777DM6efKkaBuWaLVa+vfff2nt2rW0YsUK2rRpE12/fp2++eYbKi7+//i4evUqff755/Tbb78REVFCQgKtXbuW1qxZQ9nZ2ZW2+D8ZGRm0e/duWrlyJX355Zd05MgROn78OJ06dUq03tWrV+mLL74QtlteXk6///47ffbZZ/Tdd99RUlKSaH2948eP08CBA0mn05FWq6WTJ0/S559/Ths2bDCaH33+Dxw4IF0kyMvLo3379tHKlStp9erVdOXKFekqArn7R0T0xRdf0IwZM6TJst28eZPWrVtHK1asoJ9++ony8vKkqxARUVZWFu3cuZNWrFhBa9eupcjISOkqBrFDRFRcXEx79uyhTz/9lA4ePEharVZYPyMjgzZs2EBff/01FRYWVtrS/wQEBNDKlSspKChIuogCAgJo/fr1tGLFCvrhhx8oJSVFtFwaU0REQUFB9PXXX9OaNWvozp07ovWJiEpLS2nJkiU0fvx4Cg0NpStXrtDff/8tLJdznOWUky15s0S6TUt1KD8/nw4cOEArV66kVatW0cmTJ0XHxpa6U9V5ICJSqVR04sQJWrVqFa1cuZL27dsnajukLG1TmkeSUfZarZYCAwNJoVDQjh07yN/fn86fP2+w7p07d2jLli20YsUKWrdundG4lcuaNmDv3r00aNAg0ul0FB8fT+vWraMPP/yQ9u/fTxqNRro6kYy8WtpnaV231E/I7Qsqs9RmWqqv5lTOf1W0HZbKqzJr2y5pPdLpdFRcXEwvv/wyTZkyhYKCgujy5cv077//irZDVsaRntw+gWTsC8mINUtsGcfoyfluU+26NMbJQn8mZUvMmzJs2DDauXMnaTQaOnr0KH388ce0atUqo/FFFsYFtubLUlxotVoaMGAAHTlyhIqLi4V2+NtvvzWZT3NsaddIZh98+fJlWrlyJZ04cUK6iHbs2EFfffWV0WNrqX8hG/qsyiyNiYqLi2ndunXSZNqxYwetXr1ayIupmJbTZlo7/jVGp9PR6dOn6bPPPqN//vlHupiIiP766y8KDAwUpcXExNDnn39Oly9fFqU/9dRTtGPHDiIiSk5Opk2bNtHKlSvpzJkzovXIQtsuZ//15LRtplRVf5Cfn09btmyhVatWkVKpFH1OX1ZXr14V0qzZPzms2Q859e5+8kBPJt1OyKbF354wmNypjr83vjtJiRnVMwlT1aprMuno0aOkUCgoNjZWusjAjz/+SAqFgn7//XciIsrMzKTp06fTK6+8QgqFgrZv3y6se/78eZo+fTo9//zzpFAoKCYmhqiiE5wxYwa9/PLL5OPjQ5s3b6bly5fTzJkzadCgQdS3b1/Kzc0VtmNOQkICPffcc/Tqq6/S9evXKSMjg+7cuUMvvPAC9evXj1QqFRERHTx4kGbOnEkTJ04kHx8fun37Nk2cOJGeffZZUigUook0nU5HP/74I40aNYp2795N8fHxlJ6eTocPHzbYR/12J02aRD4+PpSfn0/Lli2jXbt20Z49e2jUqFE0ePBgSkxMFD6jt27dOpoxYwYlJSXRiy++SO+//z6tXLmSBg8eTJMmTRINZPTfM2XKFFIoFEYHDceOHaNZs2bRpUuXKD8/ny5dukS+vr505MgR0XrW7J/e3Llzafny5dJki5RKJS1atIjWrVtHSUlJlJmZSa+//jpNnDhRODZ6Bw4coNmzZ9OlS5coLCyM3nrrLfLx8RENEirHTv/+/WnTpk0UFhZGs2bNos8++4zeeecdUigUwkAoNzeXpk+fTvPnzyeFQmEw6CEi2rlzp8EEaW5uLr355pv0yy+/UEZGBqWkpNDChQtpyJAhwoC/8jHx8fGhsrIyWr16NS1atIhWr15N48aNoyFDhlBmZqaw3a1bt9Lw4cNJoVCI/mbNmmWwTVPHWU452ZI3S6ypQ0REf/75Jy1ZsoSCgoIoPz+fTp06RT4+PrRmzRrR9qypO1WdB6oYWD/zzDO0d+9eUiqVFBsbS88//zxNmjTJaPlb2qYtZZ+bm0vjxo2j/v37G8RG5QHvjh07aO7cuRQREUH5+fm0b98+6tu3r2hCQg5b2oDPPvuM5syZQxcvXqQPPviAjhw5Qu+//z4pFAqjbYOlvFraZ2v7CXN9wYABA0itVlfK3f9YajMt1Vdz9Pl/5ZVXyM/Pj9auXSssu5sxYk3bZa4erVy5koYNG2bwXR9++KHwXbbEkTV9gpx9IRmxZokt4xg9Od9tql23tj+TMhfzlcc/cmRmZpJCoaCLFy/S+++/Tzt27KBff/2VHn/8cRo4cCDFxcVJP2JyXGAuX6bqoty4iI+PJ4VCQWfOnKEvv/yS/P39KSwsjBYtWkQDBgyghIQE0XYtsbZdI5l98MmTJ2nmzJn01FNPUb9+/QzG99OmTaPHHnvMYJLIUv9CNvRZlckZE/3zzz80duxYaTJNnTqVhgwZQlqt1mRMy20zrRn/mrJt2zaaP38+jR49mkaOHCldTFRRzkePHhWlnTlzhhQKBe3cuVNIKy4upr59+9KlS5dox44dNGfOHFq1apVQTsePHxfWNde2y91/uW2bKVXVH+h0Opo/fz4tXLiQFAoFffvtt6Lv+eeff0ihUNC+ffuIrNg/ueTuB8msd/ebB3Yy6VZ0Or301R8GkzrV+bf42xMUnSSeTb0fSTube2X27Nk0fvx4abJRP/30EykqNaw6nY50Oh3l5eWRQqGgPXv2COvqz+D99ttvpFAoKD09XVim1WpJp9NRv379aMGCBcKZm927d5Ofnx8VFBQI65qSkpJCI0eOFHWyes899xzNnj1b+L++w96+fTv169ePVq1aRcXFxaTVamnYsGGiwdr69evpscceM5gAOn/+PCkUCvL39xfSKm/Xx8eHNm3aJJrZv3HjBikUClq5cqWQprdo0SKaPXs2rVmzRnTs9QPx4OBgIU3/PVu2bCE/Pz+Djnb//v309NNPG8TQ7NmzaeHChaI0a/ZPb+jQobRr1y5psln5+fk0adIkOnjwoCj9ypUrpFAoRGeLdu3aRVOmTKGioiIhrby8nMaOHUujRo0S7a++LB577DFavHgx/fDDD6LB5tKlS2n48OHC/6ni6rsBAwYYHRweOnSIhgwZQmVlZUREVFhYSM888wydO3dOtN6FCxdIoVDQ/v37iSrlY//+/dS3b19at24dhYWFCetHRUWRolInrKcftGzbto1KSkooNzeXSktLiWQcZ7nlZGvezLGmDh0+fJhmz55t8GPm+eefp8cee4zIxrpT1Xmginh56623ROvo64L06hc52/wvZb9u3Trq378/qVQqKigooJycHGFZZGQkKRQKio6OFn1m+vTpNHnyZFGaJba0ATNmzKD3339fVMY6nY7mzJlDffv2pYyMDCHdmrya22e5/YSlvuDFF1+UJstuM83VV0u0Wi2p1Wry8/OjrVu3itLpLsSItW2XnHr06KOP0po1a6i4uJiUSqVoIsDaOLKmT5C7L9bEmim2jmPkfre5dt2W/oxkxHzl8Y8cly5dor59+9LatWtFEzJXr14lhUJBn332mWh9MjEusJQvY3XRmrjQT658+eWXonJMTk4mRcWVDdawpl0jK/pgvYCAAFIoFPTHH38IaWVlZTR27FiDK5bk9C9kZZ9lirkx0fLly+nzzz+XJtP8+fPpgw8+ILIQ03LaTGvGv5Zs376dFAqFwSRMamoqKRQKg6ttbt68SQqFQtRuBQcHC3F+4cIFIV2r1dLYsWNp0aJFQpo+3VjbTjL2X27bJkdV9Ad6L730Eo0bN06UduDAAZo6daooJi3tny3M7QfZUO/uFw/kM5OikpT44chNaLQ161lFpSoN1h+8jpSsAukiZkFeXh5CQkLQo0cP6SKjcnNzAQDu7u4AADs7O9jZ2SEwMBCoeFC3np2dHQDg9u3baNq0KVq0aCEss7e3R05ODjQaDerVq4cxY8YAAHr06IH169ejQYMGwrqmfPLJJ2jSpAleffVVUbpGo0FsbCx69eolpNnb/6/KpqenQ6PRYOzYsXBxcYG9vT1eeuklzJs3DwBw8+ZN7NixA2+99ZbBg/giIyPh4OAAb29vIa3yduvWrYuWLVuiadOmwnKFQgFXV1cEBQUJaXrR0dFo37493njjDTRs2FBI139vYWGhkKb/ntu3b6NTp06it5hERUVhzZo1+OSTT0TbAYCysjLRgyWt3T8AyMzMRGFhITw8PETplqxcuRKtWrXC5MmTRellZWVwcnIS3uJx+/ZtrFu3Du+9957oLTKOjo4YPnw4srOzERkZKaTb29tDpVIhNzcX3t7eWLBgAZycnITlrVq1EpUdKu5r79atm2g7esHBwRg/frzwBo/Vq1ejQ4cOGDJkiGg9few3atQIkBz7Ro0a4YUXXhDFv/45EtK83LlzB0QEDw8P1KtXD40bN0bdunUBC8fZmnKyNW/myK1DcXFxWLVqFT788EPRcUFFGRorP7l1p6rzAACBgYHCdvX09ajy66LlbvO/lH10dDTatWsHJycnNGjQAE2aNBGW3bp1C6i0fb2GDRta9VprW9oArVaLmJgY3LlzB7NnzxbS7ezsMGTIEBARQkNDhXRr8mpun+1l9hPW9AWwss00V18tsbe3R2xsLNRqNby8vETpuAsxYkvbZa4e5eXlobS0FG5ubnBxcUHTpk3h4OAA2BhHcvsEWLEv1sSaKbaOY+R+t365sXbd3ob+DDbEvCWRkZFo2LAhmjRpIop/Hx8f1KtXD8HBwaL1TY0LbMmXNXERExMDnU6HESNGiMqRKt4eLWfsqGdtu2ZNH6zXq1cvtGjRAhcuXAAq8vnJJ59g3LhxQnsGK/oXWNFnmWNqTKTRaHDu3Dnk5+eL0nU6HZKSkoQ8m4tpOW2mNeNfS/S/X6RvAjtz5gxQ0Y5VlpCQAG9vb1G7FR0djTp16mD27NkYNGiQkG5vbw93d3eD/Jhq2yFj/+W2bXJURX+gN3r0aKSmpiI2NhYAEB4ejn379mHt2rWimLS0f7Ywtx+21Lv7hbgWPwBSswvx/W83auxDr0tVany7/xpyC+/O2+Rqq4iICBCR7AcoJiQkwNHR0eA1mNevX0e9evVEgzC90NBQg0ElACQlJQEAJk2aJKR5e3vDx8en0lrG3bx5EwEBAZg5c6bB62H1DXyfPn1E6ah4W0Pnzp1F+Zw6dSpcXFwAAFu2bEGrVq0wcuTISp/6n9u3b6NLly4GHT0ApKamAgBGjBghSrezs0Pz5s0NOqKcnBxkZ2cbfZ2qvuN76KGHpIsQEhKC7t27i9I2bNiAXr16oVu3bqJ0APjqq6/w1ltvCf+3Zf+io6MBK9/YEh4ejjNnzmDmzJnSRfDx8cGxY8eEAeKmTZvg6elpdJCpj8uMjAxRuj52+vfvL0oHgPz8fKNl17VrV8TGxkKr1QpppaWl+OeffzB16lSgYjBy4sQJPPvss5U++b9B7Z49e9C2bVsMHTpUtCwpKQleXl4Ggzj9YKzyBAkqBsMADAbhlRk7zraWkzV5k8NSHdq4cSP69Olj8EDTEydOID09HbNmzRKlW1t3UMV5aNOmDc6dO4cbN24IaZ06dcLevXvh6+srpFmzTdhY9jExMSbjQv8Db+3atVCr1UL60qVL8c0331Ra0zxb2oDY2FiUl5ejV69eBj/WmjdvDlS8Ql7Pmrya22fI6Cfk9AXSkyXWtJly6qs5ISEhQEWepaoyRmxpuyzVI3178sgjjwjL9ayNI2v6BGv2xZpYs8TacYy1322sXYcN/ZmcmDc2/jEnIiIChYWFePLJJ0Xp9vb2ePjhhw3aYWPjAjn5ktZFa+ICFbHRvHlzKBQK0bqHDh1C8+bNjcajKda2a7b0wXZ2dhgxYgSuXbsGjUaDr776Cl27dsWCBQtE61nTv8jtsywxNia6fPkyCgoKEB4eLlo3KCgIderUgZ+fnyjdWExbajNtHf+a4uXlBTs7O4PJpL/++guoiO3KTp8+jQkTJojSoqKi0KpVK+FEeWX5+flG22JTbbu5/bembZOjKvuDYcOGwd7eHv/++y9iY2Oxdu1afP/99wbtv7n9s5Wp/YCN9e5+8UBNJqnUWmw6fBOlqv/vLGui/KIy/HDEHzrd/85QMMsyMzOBSmc1zNHpdAgODoafn5/BLPTVq1fRp08fg7calJSUICYmxmgjEBcXB3t7e6s6P71Tp07B3t4egwcPli4SziRJBy2o+E5jAzYAyMrKQkBAAIYOHSqcjawsNDTUoNPUS0hIgJ+fnzAIr0yn0wlXvejpB2LG3oQQHR0NJycng0FFcnIycnJy0LNnTyFNqVTi8uXLGDZsmGhdvZYtWwqDOlv3786dO6hfv74wuJLj6NGjaNSoEXr37i1dBFdXV2GgoM9/5TNBlenzKY03/ZkTaRmhohOVTnYCQJcuXaBWq5GSkiKknTx5Er6+vkKHdOTIETRq1EhUDoGBgZg7dy7q16+PTZs2Gf2hbSofqPjeymJjY+Hs7GzyVdvmjrMt5WRN3uQwV4dyc3Nx/vx5UT4LCgqwZcsWrFq1Cu+++y7Gjh0r+oy1dQdVnId3330XLi4uWLJkCfbu3Qsigqurq+itItZuEzaUfWFhIbKyskwOqPz8/PDUU0/h8uXLePHFF4U47tChg6z2G/+hDdAPxocPHy5dBJ3ufyeYKtcLuXm1tM+Q0U/I6QsqD/ataTMho75aEhQUhLZt2xqcBUYVx4gtbZe5egQAaWlpACC6Ggc2xpHcPgFW7ovcWJPD2nGMNd9trF3Xs7Y/kxPzxsY/5kRERKBnz55Gf8TrdDqD2DE2LpCTL+kPb2viAhUTlf379xfiTqfTYc+ePbhw4QI2bNiA+vXri9Y3x5p2zdY+GBUnSoqKivDaa6+hT58+mDFjhmi5tf2LnD5LDmNjoj/++AM9e/ZEamoqiouLRelTpkwRXRFlKqYttZm2jH/NcXV1RevWrYU386EiPnNycuDm5iaaZEpPT0d0dDRGjx4tpKGinhnLT3l5ORISEgzqIMy07eb235q2zZKq7g8aNmyIvn374vDhw9i+fTvWrFlj0PbDwv7Zwtx+/Jd6dz94oCaTdp8MRrqySJpsM4c69ujW/mEM7N4aXdo2g7294WDEVndScnDo4m1pMjNBfzZN33Gac/PmTRQUFBhcipyWlobExET07dtXlI6KAYROpzPobFAxE922bVubGoHQ0FC4u7sbHTgEBgaiTZs2BoO5goICZGVloXPnzqJ0vbCwMACAp6endBGSkpKgVCqNnrEsLS1Fenq60R87RISsrCzRZeOouKQclc5sVnb16lX07t3boKHX3+5TeZDo7+8PIpI1iLB1/2JiYqx+XerNmzfh4eFh9IdGZUFBQcLlssZkZ2cDRl4fGxMTg+bNmxsc/9zcXERGRho946Xf7/j4eCFt//79osvbr1+/DldXV/z4449Yvnw5XnrpJRw6dAiLFi3C1q1bDSbUVCoVEhMTjV61dfXqVTRq1Mgg3u7cuYP27dsbXKauZ+w421JOtuTNEkt16ObNm9DpdIiJicG6devwxhtv4N1334WjoyMOHTqEp59+WrS+LXWnqvPg6emJX375Bd7e3vj666/xyiuvICcnR7SOtdu0pez1PyiNfUbvgw8+wJtvvomoqChMmzYNx44dk65ilq1tQHh4OJydnQ1+TKPSCQnprU5y8ipnny31E5b6gtatW4v6AmvaTMior5bcunXLaP9X1TFibdtlqR6h0mSS9My0LXEkt0+ADfsiJ9YssXUcI/e7jbXretb2Z5Zi3tj4x5ycnBykp6cbXHWCirFhVlaWQf02Ni6wlC9pXYSVcZGTk4OsrCz06tULRUVF2LJlC9599104Oztj9+7dVk1AwMp2zZY+WE9/ZVW7du3w2GOPSRdb3b/I6bPkkI6JcnNzcevWLbz55ptApStQysrKcPnyZdHVoTAT05baTFvGv5Z06tQJCQkJwv+PHDmCp59+Gt7e3sLkFQAcP34ckydPFvUnOp1OuM1Kyt/fH2q12mjdMNW2m9t/a9s2c6qyP9B75JFHkJCQgHfeecfgaj09c/tnC3P78V/q3f2gakrwPhAWl4UrYcnSZJt1bvMQPn9xBF6b6odZT/TCm8/2x6fzhqGtm+FZO1udunYHSZn8/CQ59JduyrlE8Ndff0X37t0xcOBAUbq+QzH2gzAoKAiOjo4G9xSj4kyAtZ2/XlZWluieWj2dTocrV64YbXj0HZixBgsV2wRgdLv//vsvUNFhScXGxoKIjA5IoqOjUVJSYjAYjIyMRIsWLVCvXj1Rek5ODsLCwgzKGBVl2axZM9El3/pbhEw1+pX9l/2TDiQtSU1NNRg0GqP/sSI9s6MXGhqKjh07GvyYuX37ttHY+ffff0FEGDBggHQR2rRpgzp16ggDp+vXr6NZs2aiM04pKSlo164dxowZg3fffRebN2/GihUrRGdCK4upeH6DsZi6dOkS/Pz8DDrcuLg4o3nXM3acbSknW/JmiaU6pD/DOWzYMMyYMQNr1qzBxo0bMXv2bKOXidtad1CFeUDFpdI//PAD3nzzTQQEBGDu3LmiZ0ZYu01byt7c1Ql6dnZ2mDZtGvbu3YsOHTpg+fLl2Lt3r3Q1k2xtA8LDw9G1a1eDKzZQEa/169c3OHMrJ69y9tlSP2GpL5DujzVtJmTUV3OUSiVSU1MNrsbAXYgRa9suS/UIFeMCJycng9vwbIkjuX0CbNgXObFmia3jGLnfbaxd17O2P7MU88bGP+bob2mSTgqgIk5UKpXB4weMjQss5UsaE7AyLm7f/t+J4i5dusDFxQWHDx+Go6MjJk+ebPXkA6xs12zpg1ExufrZZ59h2LBhuHLlimiZnrX9C2T0WXJIx0RHjhzBhAkThFtU79y5A1RccTZy5EiDNtNUTFtqM20Z/1ri4eGB+Ph4EBHKyspw9uxZPP300/D09BT2Q6fT4c8//8Qzzzwj+mxycjJKS0uNTkhcvHgRDRs2NGjDzbXt5vbf2rbNnKrsD1Bxq6U+3q5evSpdLDC3f7Ywtx+21rv7hXUj8PuURqvDntP/uye0KrRp0QivTumHJg3EZxibN3HFG8/2x8ON///BWv+Fjgi7TwWDb3azTH/28ObNm9JFItevX8e1a9fwwQcfGDREMTExcHBwMDpQCAkJQadOnQw6ep1Oh6ioKKONt1wqlUqahOvXr6OwsNDofc+RkZGwt7c3GABJlZeXS5Nw6tQpwMjZd1Rst169ekYH5cePH0fdunVlX1J74cIF6HQ6PProo9JFCA0NNXjGh67iirKiIvlXDlqzf0SEuLg4o+Vpjk6nsypPxo5lTk4O/P398dxzz0kXITIy0mh5//PPP2jbtq3RM14ODg5o06YNEhMTAQDbt2/HSy+9JFpHp9PBwcEB7u7uRm+vktL/IJN2glFRUUhNTTV48GFRURGysrLMxr2x46xnTTlZmzc5LNUhfTw2bdoUTZs2NWgrpGypO1WZhy1btuDs2bNAxbNBpk2bhuXLlyMpKQmHDh0S1rNmm7Cx7OPi4uDo6Gj00vHo6Gh89NFHQj70PyQ8PT2xYcMG0TMv5LCmDSgvL0d0dLTRH9JKpRJXr17F2LFjhR9k1uTV3D7Din7CWL24fv068vLyDPbHmjZTTn01x9StPbgLMWJL22WuHqHih76bm5vJeLcmjqzpE+TuizWxZom14xhrv9tcu25Lf2Yq5k2Nf8zRTyYZq+PHjx+Hk5MTnnjiCSHN3LjAVL6M1UVYGRe3b9+Gvb092rZtC3t7e0yYMAFnz5616aoca9s1PWP7Z6oPTk1NxTvvvINly5ZhwoQJSEhIEF0lo2dN/yK3z5Kj8phIo9Hg8OHDePbZZ2Fvbw8PDw/htrHffvvNYN9gIqbltJm2jH8tad++PcrKypCVlYVjx45hxIgRaNiwITp16gSlUonCwkJcvHgRffr0MZig07fF0jwREc6dO4cBAwYYTOybatst7b/ctk2OquwPNm7cCLVajVdeeQVdu3bF6dOnpasAMvbPFub2Q8+aenc/eSAmk/4NTkJm7v/fM/tfTRriBUcH8UP59FycHfHUINOXW1vrTkougmPSpclMws3NDb6+voiKihLOKEqlpKTg448/xieffGL0jFd+fj4aNWpk0NieOXMGV65cMTpISk5ORnFxsc0NUvPmzZGUlASNRiNKDw4Ohru7u+iJ/3oRERFwd3c3mNjS098brJ8l1wsKCkJZWRkaNmxotFGOiopCp06dDPY/ISEBBw8exPz580WdV3l5ORITE43uu7+/P5o2bWoweFSr1bhz547BbQX62Xj9W2UqKy4uxo8//ij835b9y8rKgkqlQrNmzUTpljzyyCOIiIgw2gH8+eefwoBKPxiV5gkAfvzxR3Tv3t3gWTRZWVlQKpVG48rf39/oVS56bdq0QWpqKm7cuIHGjRsb3Irh7u6O0NBQg7gCgD179hgMWiMiIvDwww8bnLHTT85K86J/0GrlQQtVvIUGZo6zLeVkbd7ksFSH9IMBY/GYk5ODPXv2iNKsrTuowjwolUps2bIFycniK29HjhyJOnXqoKSkREiTu009W8o+KSkJrVu3FpWFPjYOHDiAs2fPipY5Oztj+PDhUKlUBj9cTbGlDYiJiYFarTZ6O5T+GSVz584V0qzJq7l9hsx+wlRfcO3aNWF5Zda0mZbqqyX6H7/G2qqqjhFb2i5z9QgVzxeRXnUAG+NIbp8AK/bFmlizxNpxjDXfbapdh439mamYNzf+MSc8PBzuRm5PS0xMxO+//45Zs2aJxgCmxgWm8mWqLsLKuIiOjhbF7FNPPQWtVosjR45U+pQ81rZr1vbBBQUFWLRoEV588UW4u7vDx8cHLi4uOH78uOizsKJ/sabPkks/Jjpx4gQGDRok9Lft27dHQkICLl++jE6dOhm0A6Zi2lKbacv4Vw799yUlJeHAgQPCc6n09SohIQG7du0yeFEGKm7bgpHJpOTkZGRmZhp9npeptt3S/stt2+Soqv5g//79uHr1KhYtWgQAGDp0KC5dumT0SjdL+2cLS/sBK+rd/abWTybpiHDy+v/ul60KdgC6tDV8sF9lXdpa94PVkuNXqi7/tdnSpUvh4uKCDz74AGfPnhXOkuh0Opw5cwYLFy7E0qVL8fjjj0s/ClQMEHJycoT7q/Pz87F+/XrhrKW9vT2USqVwRQgqPfjw4YcfFtKsMWTIEJSWluL3338X0n799Vf4+vpCpVIZDGRRafBuSt++fYVLp/UPHlQqlfj777/RuXNnEBFKSkqENzjoRUVFGUyyJSYm4tVXXxUuW64sOTkZWq3W4NYBVNxWULduXZSUlAhnPlAxeNNqtbC3t0dqairS0/83UTpw4EC4urpi165dosY2Li4O77zzjuihdbbsn/5+5PLyciQlJQm3N1gyatQoFBcXY+3atUI8aTQa7Ny5E0FBQcLzSvr164cGDRrg8OHDosHkyZMnERAQgNWrVxsM7qMqHqao72T0SkpKUFRUBAcHB+Tm5orun9dr3bo1kpOTsXnzZoNXFwPA448/jpycHGzcuFHozFQqFb7//nuUlJQYTGxERkYavbxWf9uovb296JXK+sGefl8DAgLw6aefCstNHWdbysnavMlhqQ4NGDAALi4u+Omnn4RBByp+rHzwwQcGDzq1tu6gCvPg6uoKV1dX4faWyuvVqVNHdCZe7jb1bCn74uJiqNVq4Uz9999/L/wIc3NzQ1lZmRD7qBhsBQcH48knnzQ7IVCZLW2Avq2uPGgmIvz44484c+YM1qxZI7q1xZq8mttnyOwnjPUFe/fuFW5PUalUSE1NFZ6BYk2baam+WpKWlgYnJyeoVCqD413VMWJt22WpHqFiMknazsLGOJLbJ8CKfbEm1iyxdhxjzXebatdhY39mLOYtjX/MCQ8PN2iHU1NT8dprr2Ho0KGYN2+eaJmpcYGxfJmri7AyLmJjY0UP5G7RogUGDBiAX3/9FdnZ2UhOThYmBiyxtl2ztg/+6KOP0KZNG+EKQycnJwwaNAiHDh1CSkoKsrKyhDzI7V+s6bPkat26NRITE7Fv3z7R8yPbtm2LxMRE/PzzzwZvnoOZmLbUZtoy/pVD/xKVrVu3YtCgQcJE5yOPPAIHBwf8+uuv8PT0NKhnqGj7ARjkSd8WOzg4IC4uTjQBY6ptt7T/cts2OaqiPwgJCcGaNWvw7rvvCi+eeOyxx6BWq7F161ao1WpcvXpVqJvm9i83NxevvPIKVq5cCWuY2w9r6919h2q5gKg0mvfl0Sr7W7D6GOmkXyJRVFpu8Ln/+hebkiP9mhorPz9fmnTPRERE0PTp00mhUNCwYcNo6tSpNHLkSFq2bBklJSVJVxfJzMyksWPHko+PD40ePZqefPJJ+vfff4mIaOzYsaRQKOjpp5+m+Ph44TM//PADKRQK2rdvX6UtyVdcXEwvvPAC9e3bl+bOnUtz5syhkydPEhHRoEGD6MCBA6L1tVot+fj40IgRI0inMx2JJ06coH79+tGoUaPo5ZdfprfeeosKCgqE/A4YMIB+++03YX2tVkuPPvooTZkyhTZv3ky7d++mjz/+mMaNG0f79u0z+l3Xr18nhUJBK1eulC6i5cuXk0KhoMGDBwv7Q0RUUlJCAwcOJIVCQTNmzKCMjAxh2aVLl2jo0KHk6+tLM2fOpGnTptGSJUsoOTlZWEfP2v3Lysqifv36kUKhoPnz55NSqRRtzxSVSkWvv/46KRQKGjNmDM2bN48mT55stEwuXrxIgwYNomeeeYa+++47euedd2j16tVUXFwsWk9v9+7dpFAoaO/evaJ0rVZLjz/+OCkUCpo8eTLduXNHtJyIaN++faRQKOjgwYPSRUQV5fzKK6+QQqGgsWPH0vz582nKlCl04sQJ6apERDRkyBAaPny4wT4dOHCAFAoF+fj40IYNG4TlhYWFNGzYMPL19aWRI0fSe++9J6r35o6zteVkbd4skVuHzpw5Q4MGDSI/Pz+aPXs2TZs2jd5++22D2LGl7lR1Hi5fviy0c7///jtt2rSJ5syZQwEBAaL1yIptko1lv23bNlIoFDR8+HAaN24cnTlzRlimUqlo2bJlNGbMGPr555/pwIED9MYbb9CqVatIpVIJ68lhbRuwYsUKGjlyJC1fvpx2795N27ZtoxdeeIGWLFlCCQkJom2TlXk1t88ks58w1RdUrktz5syhrKws4TNy20xL9dUSff79/PwM2quqjhFr2i459aisrIwUCgX98ssv0kVENsSRNX2C3H2xJtYssXYcY813m2vXbenPTMU8mRj/mJORkUEKhYJmz55NW7dupd27d9Nnn31GTz31FP3666+k1WqlHzE5LjCVL3N10Zq4GDFiBA0ePFiUp6CgIPL19RXKVlqHTbG2XSMr+uCEhARSKBR069YtUXp4eDj5+fmRQqGgKVOmUHR0tLBMbv9iTZ8lh35MdOTIEVH6yZMnSaFQ0M6dO0XpeqZi2lKbacv4V67hw4fT008/TSUlJaL0SZMm0RNPPGGy7Z43bx4pFApRXBIRpaSkkI+PDykUClq8eLHo86badkv7L7dtk6Mq+oP33nuPFi5cKEojInrrrbdIoVCQr68vbdiwQahz5vbv4sWLpFAojJalOeb2g6yod/cjO9JP9dVSmw/fhH/k/x58VVU+nDUYbVoYf4gWKh72vXa/6Yd+2WK4oj2mPWb4vIKaqKCgQPaDCO+W+Ph4pKamwsXFBR07djS47NmU8vJyhISEwM7ODt27dxfuM09PT0dqaip69uwpet1yeno6UlJS0K1bN5Nv6bFEp9MhLCwMpaWl8Pb2houLC0pKSjB48GB88803Bq+nvX79Otzc3CxeQqtUKhEVFYUWLVoIZ63Ky8sRGBgIT09P0dmqxMRETJo0CevXr0fTpk2hVCrRtGlTdO7c2eRsualtoeKtGcHBwfDy8jK4/SExMRF5eXnw9vY22HZpaSkiIiKgVqvRoUMHs2ecrdk/VJwNLC0tRdeuXc3ey29MYmIikpOT0bhxY3h6esLBwUG6ClBxZiIsLAwODg7o3Lmz2cv0s7KyEB8fD29vb4MHOJqKN72CggIkJycb3N4mFRsbi/T0dDRu3BidO3c2ui1UnJVp2rSpwSXbOp0OAQEBaN26tcGrVZVKJaKjo+Hh4WH0OJk7ztaUky15s0RuHSopKUF4eDi0Wi08PDwMboeAjXUHVZwHVFyuHxERgaKiIri5uaF9+/Ym41zuNm0pe/1VDfb29ujatavRmMvIyMCdO3dQt25deHp6ym6fpaxpAxITE9GgQQPUqVNH9NBoS2dQ5eTV0j7L7SeM9QWo6M8KCwvh7e1tcEzltpmW6qs5arUagYGB6Nixo0F53a0Ykdt2WapHSUlJmDhxIjZu3Gj0odSwMo705PYJsGJf5MSaHNaOY2DFd5tq123tz4zFvLnxjykajQaRkZHw8vJCbGwscnJy0KhRI6O3H1dmalxgLF+wUBchMy7CwsLg7Oxs8CbGhIQE5Ofno3v37ka3bYyt7ZrcPjgkJMTovupvnerVq5dB+crtX6zpsywxNSYqKSlBTEyM0Yey65mKaXNtprn2wdz4V46wsDC0NvLGwKioKDRr1szksb1z5w5UKhW8vLwMyjEmJgZardbgdkhzbbu5/deT27aZUxX9QW5uLoqKigyeZ6bRaBAQEIB27doZ3J5qbv8+/vhjnD17FmfOnJF9Zaic/ZBb7+43tXoySaXW4vX1f0Gtsfy6eGv07uSGlyeJ3wihR0T4+tcriEpSShf9Jw1dnfH1osdhWzN7b9WEyaT7XWRkJKZPn46jR48avZy1qp0+fRrLli3DiRMnDBpcxphpXHcYq7muX7+OxYsX459//hEmBFjNdq/HP4wxVtnnn3+OZs2aGb01khkyPV1fC8Qk51T5RBIABEanY++ZMOh04nk4jVaHn07cqvKJJAAoKFYhNatQmszuY0lJSVi7dq3RB8uFhITAzc3tng2kIiMj4erqyj+GGbMS1x3Gaq7U1FT07t2bJ5JqmJo0/mGMMVRcOfTuu++ibt26Bs9YY6bV6smk6LswqaN35mYsPtz2Dw5fvI1zgfH47XwE3t9yFldCxW8nqErRyXdvf9i9t3PnTuzevdvopZBnzpzB+PHjpcl3TVRUlMGrnRljlnHdYazmioiIuK/fklNb1aTxD2OMoeLh8B988AHeeOMNg9s3mWm1uqQSMgxfB1iVMnOLcfxyNHafCsFfV2OQU1AqXaVKJaTf3f1h91bjxo1BRIiPjxelX758GcnJyXjuuedE6XdTTEyM0TfyMMbM47rDWM1x5coV4U1SwcHBCAsLw6hRo6SrsWpWk8Y/jDGmZ+p5ccy0Wj2ZlJn7v1e9ViU7Ozs41LE3+lfnLs9i3o39YdXn2WefRatWrfDhhx/i8uXLCA4OxpYtW7Bt2zZs3LjxnjVo5eXlyMzMFF4fyhiTh+sOYzXL6dOnMXHiRAwcOBCvv/46PvroI+EB1KzmqCnjH8YYY/9NrX0ANxFh4dcnoNVV3TOTenZsgZcm9IVDHdOTRpdDkvDTiVvS5CrRpEFdrH55pDS5xuEHcMtXVlaGs2fPIiUlBfXr10e3bt2sepNHVSAi7Ny5E23atMHQoUOlixljJnDdYaxmyc/Pxx9//AFHR0c89thjBm8oYjVHTRj/MMYY+29q7WRSqUqDJWv/lCb/J08P7YpR/TykySI5BaV4Z9Pf0uQq4eRYBxveeEKaXOPwZBJjjDHGGGOMMVZ7mb7E5j6nUhu+IeI/k3Gy5G6eUSlXa1FL5/4YY4wxxhhjjDF2n6i1k0kabdXd3laTaLQ8mcQYY4wxxhhjjLHqU2snkxwdDF83+l8l3eW3w1liZ2cHR4dae8gYY4wxxhhjjDF2H6i1MxN1Hat+MulaeAre+O4k3t30d7Vc+eR0F/aJMcYYY4wxxhhjzBq1djLJycnhrlydVFhSDmVBKarj0UUNXZykSYwxxhhjjDHGGGP3VK2dTLID8HBjF2nyfe3hxq7SJMZqvMDAQOzZsweZmZnSRfelxMRE7N+/H4cPH4ZKpZIuZozVchqNBmfPnsWuXbsQHh4uXcxYjVdQUIBDhw7h7Nmz0kXsPsLH8b/htpyx/86OavHrwTb+fgOB0enS5Cqx8c0njT6/KLewDG9vPC1NrhJDe7fD9Me7S5NrnIKCAjRs2FCazB5An376Ka5cuYK8vDyMGTMGH374oXSV+8rhw4fx+eefw8nJCWVlZXj55ZcxZ84c6WqMsVoqPz8fr7zyCmJiYkBEqFOnDi5evIg6dar+SmjG7obIyEgsXboU5eXlUCqVOHHiBJo3by5djdVwfBz/G27LGasahrMhtUg798bSpPta+1q2P6z2W7x4MU6cOAE/Pz9oNBrp4vtKVFQUtmzZgj179uDSpUs4ePAgevbsKV2NMaOysrKQm5srTWb3mZUrV0KhUODChQu4ePEi3n33Xf7xwUzSarWIjY1FTTpv27p1a/z222/4+OOPpYseePdTO60/juvWrQMqrrK5l+6nsjKG23LGqkatnkzybPWQNOm+5tm6du0Pq/0aN/7fBKhSqUSzZs2ki+8rP/zwA2bOnImOHTsCANq1aweFQiFdjTEDERERGD9+PGbNmiVdxO4jUVFRuHXrFhYvXgwnJyc4OTlh/Pjx0tUYEyxbtgxTp07Fn3/+KV1UbVxcXODk5ISkpCQ4OTnd931zVbnf2mn9cczJyQEAPPTQvfuNcL+VlRS35YxVnVo9mdTevTFc6jpKk/8TOwD2dnaws5Mu+R/98qrWvIkrmjWqXc+AYveGVqtFVFSUNLlKpaenCwMaY9LS0uDm5iZNvm8UFBTg4sWL6Nevn3QRqyUsxfB/kZOTA7VaXS3xcy/q/4Pijz/+QN++feHg4CBdxO5Td7t+ZGRkoGHDhujSpYt0UbWLi4tDu3btYG9fq38KiJhr56uznTbHUoympaWhSZMmcHZ2li66a6q6rCztY1XjtpyxqlOre5A69vZQdH5EmmyzHh4tsOHNJ/DD22PhUMd40TVuUBc/vD0W370+Bh1bNZUutlm/ri2lSYzJ8uqrr+LHH3+UJleZgIAATJgwAXl5edJFAICSkhLk5OSgdevW0kX3jRs3boCI0LIl18PayFIM/1cDBw7ExYsX8d5770kX3XV3u/4/SK5evYpWrVpJk9l97G7Xj+3bt+PkyZPo0KGDdFG1i4uLq5H5ulsstfPV2U6bYylGk5OT7/n4qqrLytI+VjVuyxmrOsZnRGqR/t5V18B6tn4Ijg7y7qet6+SAji2rZjLJDkC/rtzoMeuVl5fj+vXrwq1Zd8O1a9dgZ2eHtm3bShcBABISEoCK28LuV2FhYWjatCkcHav2SkdWM1iK4apQr149adJddy/q/4OipKQEcXFx9/UVlkzsXtQPBweHGttv3Llz567ue00jp52vjnbaHDkxGh8fXy3jq6oqKzn7WJW4LWesatX55JNPPpEm1iYPNayHkNhM5BWVSRdZrWv7h62aIIpIyEZMsvHLaa3Rs6MbhivufUdhK5VKdU8vt62svLwcp06dwqFDh3D+/HmkpaWhffv2JgdzBQUFOHbsGA4fPowrV66guLgY7du3h13FrYrXrl3Drl27kJmZCS8vL6jVahw9ehS///47goOD4e7ubvLNdTqdDleuXMHvv/+O06dPIyIiAkSE/fv3o2fPnqI8Xbt2DTt37kRWVha8vLyQmJiIn3/+GZcvX4anpydcXP7/Fke529XpdAgNDcWRI0cwYMAAaLVaREdHQ6vVokmTJsL2IKMcTCkrK8PevXuhVqvRs2dPxMbGIjIyUnS288aNG7hy5QoWL14MIsLp06exf/9+hISEoEOHDqJ9kwoMDMTBgwdx6tQpREZG4pFHHkGDBg2Aijzv3r0bf/31Fzp16oT69esjJydHSNNqtcIAS6vV4vjx4zhw4AASEhLg5eUl60GLRITS0lL8+uuv0Gq16Ny5M2JjY5GUlITWrVtbddwAIDs7G7///juOHDmCW7duoWnTpgbPOZBuEwAuXbqEPXv2IDg4GB4eHsIgLiEhAb/88gvOnTuHpk2b4uGHHxZtSw5/f3+hjOPi4tC+fXvUrVtXuhqICFeuXMGBAwfw999/Q6lUwsPDw6AcjeU/ODgYu3btwtWrV9GiRQuD+KvMUn6k27dU5uZiCDJjWM/StozR5zcjIwNdu3YV0o3Fb0lJCQ4ePIgjR44gKysLXbp0MVoH5bRz1tT/zMxMHDlyBMeOHcPly5eRk5ODO3fuID4+Hh4eHsJ60rJHFR/byuSUtZxysEROXKvVaoSEhOCPP/6Aj48PVCoVYmJi4OjoaJAnY/Lz83H06FEcOXIEV69eRZ06dUyeFb/XbYSxOIyJicGuXbtw5swZFBQUoGPHjkbjEDLza+w75MY6ZPRPtmxfbv2IjY3FwYMHceLECQQFBaFevXpo0aKFsNyUynny8PAQxUlNOH45OTnYunUrpk+fjjZt2oiW6Zmrg8a+t6r6X3PfCxPlZ6kdstTO3412GlaM14yRG6ObN29G//790bNnT6SkpGDPnj04deoU1Go12rdvL9pmZZbqlSlVWVZy91G/fXP5lX6/i4sLjh07hoMHD6KsrAweHh6y23Jbjps17bylfUEV9W+M3RP0AAiITKN5Xx79z39/XYuRbtqsg+fCDbZhy9+dlBzppmu0/Px8adI9kZGRQc888wzt3buXlEolxcbG0vPPP0+TJk2i4uJi6er0559/0pIlSygoKIjy8/Pp1KlT5OPjQ2vWrCEiooMHD9LMmTNp0qRJ5OPjQ/n5+bRs2TLatWsX7dmzh0aNGkWDBw+mxMRE6aYpISGBnnvuOXr11Vfp+vXrlJGRQXfu3KEXXniBBgwYQGq1WlhX/z0TJ04kHx8fun37Nk2cOJGeffZZUigUtHr1aqu3m5ubS+PGjaP+/fuTQqEQ/V2+fFnYHskoB1O2bt1Kw4cPN9j+rFmzROutW7eOZsyYQUlJSfTiiy/S+++/TytXrqTBgwfTpEmTSKPRiNanivy/+eab9Msvv1BGRgalpKTQwoULaciQIZSWlkYqlYpmzJhBL7/8MvXv3582bdpEN27coNmzZ9OXX35J8+fPJ4VCQSdPniSlUkkvv/wyffTRR/TRRx+Rj48PrVixQvqVRq1cuZKGDRtmsI8ffvihVceNiOjAgQM0e/ZsunTpEoWFhdFbb71FPj4+9M8//wjr6Lc5ZcoU8vHxoeLiYvroo4/o7bffFspsypQppNVq6ffff6d58+bR6tWracqUKdS/f39KSEgQfac5SqWSFi1aROvWraOkpCTKzMyk119/nSZOnEgqlUq0bkZGBs2fP582btxIkZGRdOLECRo8eDDNnj2bysvLhfWk+S8rK6PVq1fTokWLaPXq1TRu3DgaMmQIZWZmirZPMvNjTZlbiiGyIoblbMuYyuWhUCiEdshY/IaFhdGsWbPos88+o3feeYcUCgWtW7dOuklZ7Zzc+q/T6ejHH3+kUaNG0e7duyk+Pp7S09Pp8OHDpFAoaPv27cK6d/vY6sktaznlYImcuI6Li6PRo0cblKWvry/FxcVJN2ng2LFjNGvWLLp06RLl5+fTpUuXyNfXl44cOSJd9Z63Efo4fOWVV8jHx4c2b95Mf/31F3366ad05MgRev/990mhUNCXX34pfKYyOfn9L7FOMvonW7Yvt37s2LGD5s6dSxEREZSfn0/79u2jvn370m+//SasY0zlcvXz86O1a9cKy2rK8bt27RopFAqj7ZelOmiszKui/7X0vWSk/OS0Q5ba+bvRTpOF8Vq/fv0M2r7K5MZocXEx9e3bly5dukQ7duygOXPm0KpVq4RjcPz4cdF29SzVK1Oqsqzk7iPJyG/l79fXheXLl9PMmTNp0KBB1LdvXwoMDJTVlps7btLxu5417bylfaEq6t8Yu1ceiMkkHRF9ueuSwSSNtX/bjgVIN22SjojW7r9qsA1r/zYduiHddI1XXZNJS5cupbfeekuUdv78eVJUDGoqO3z4MM2ePdugM3/++efpscceIyIirVZLRETbt28nHx8f2rRpEymVSmHdGzdukEKhoJUrVwppREQpKSk0cuRIo53yc889Ry+++KIorfL39OvXj1atWkXFxcWk1Wpp2LBhQudr7XapYiKnf//+pFKpqKCggHJyxBOTcsrBHP1AZtu2bVRSUkK5ublUWloqWmfRokU0e/ZsWrNmjSg29D9Yg4ODResXFhbSM888Q+fOnROlX7hwgRQKBe3fv5+oUrk99thj9Morr9Avv/wipGm1Wpo4cSLNnDmTvvrqK9Fx++KLL6h///5GJ7FMefTRR2nNmjVUXFxMSqWS1Gq17ONGRLRr1y6aMmUKFRUVCWnl5eU0duxYGjVqlJAX/Tb3799Pffv2pXXr1lFsbKzwmePHj5NCoaBVq1aJBonZ2dnCcZAjPz+fJk2aRAcPHhSlX7lyhRQKBQUGBgppOTk5NH78eINB0W+//SY6HmQi/2FhYcLyqKgoUigUtG/fPiGNrMiP3DKXG0MkI4at2ZaUPr9btmwhPz8/UcxVjt/FixfTDz/8IKqHS5cupeHDhwv/r5wut52zVP/Xr19Pjz32mMGEuH57/v7+QtrdPrZkZVlbUw7GWBPXRES//PILKRQKys3Npfz8fFn93P79++npp582WHf27Nm0cOFCUVp1tRFarZZ0Oh3169ePli9fTj/99JNo+fz586lv376UkZEhSpebX/oPsS63f7J1++bqR2RkJCkUCoqOjhZ9Zvr06TR58mRRmjFarZbUajX5+fnR1q1bRelUA47fnj17aPDgwaTT6UTpcutg5TKviv7X2u+1th0y187fjXba0nht9uzZ0mSjzMUoEVFwcDApFAr67LPP6MKFC0K6VqulsWPH0qJFi0TrkxX1ypi7UVaW9lFufivXhQULFtCJEyeIiGj37t3k5+dHBQUFRBbackvHzdg425p2Xu6+/Nf+jbF7qdY/MwkVzxya/nh32Nubv3TTkqthyVj6/Sm898NZi39vfncKobGZ0k1YxdnJAc+M8JYmMxMCAwMN3kqivwVN/4p6VDx0ctWqVfjwww/h5ORUaW0gNzcXjRo1AgBhW+np6ahbty5atmyJpk3//zZHhUIBV1dXBAUFCWkA8Mknn6BJkyZ49dVXRekajQaxsbHo1auXKL3y92g0GowdOxYuLi6wt7fHSy+9hHnz5gE2bBcAoqOj0a5dOzg5OaFBgwaiy4blloM5d+7cAREJl+U3btzY4LaV6OhotG/fHm+88YbolkD9AyMLCwsrrQ2sXr0aHTp0wJAhQ0Tpubm5ACA6PiqVCrm5uejVqxdmzJghlKW9vT0eeeQRFBYW4tVXXxUdt1atWqG8vBwqlUpIMycvLw+lpaVwc3ODi4sLmjZtCgcHB9nH7fbt21i3bh3ee+89uLq6Ctt1dHTE8OHDkZ2djcjISEASC40aNcKsWbNEl6nrL5nu1q0bnnjiCSH9oYceQr169QzK0pSVK1eiVatWmDx5sii9rKwMTk5OomcJfP7552jZsqXBa3NHjRoFVNyeoSfN/wsvvCC6DF6ff2k+5eZHbpnLjSHIiGFrtiWlz+/t27fRqVMn0a0dlePX29sbCxYsENXDVq1aGZQTrGjnYKH+37x5Ezt27MBbb71l8PDWyMhIODg4wNv7//ufu31sYWVZW1MOxlgT16h4Y1L9+vXRuHFjNGzY0OTtzXpRUVFYs2YNPvnkE4N1y8rKRLcWVWcbYW9vj5ycHGg0GkRHR2P69Omi5UOGDAERITQ0VEizJr+wMdat6Z9s2T4s1I9bt24Blcpbr2HDhrLiy97eHrGxsVCr1cKtWPp0VPPxA4CYmBh4eHgY3NIktw5WLvOq6H+t+V7Y0A6Za+f126zKdtqW8Zox5mJUv7xOnTqYPXs2Bg0aJKTb29vD3d3dIG/W1Ctj7kZZmdtHa/JbuS7Uq1cPY8aMAQD06NED69evF25jM9eWW3vcrGnnrdmX/9q/MXYviSO1Fmv1cEM82b+TNNlq+cUqZOUVW/wrLJH3Q9WcKcO6okkD48+TYIbatGmDc+fO4caNG0Jap06dsHfvXvj6+gppGzduRJ8+fQzuJT9x4gTS09Mxa9YsUXpqaioAYMSIEaJ0Ozs7NG/eXNQ53rx5EwEBAZg5c6bBMwH0A8sePXqI0vWSk5PRuXNn0cBo6tSpcHFxsXm7+gGjMdaWgzExMTEAYPI7cnJykJ2dbfT1sfo3qlR+vkZUVBROnDiBZ599ttKa/+uU9+zZg7Zt22Lo0KFCelJSEgAY3b5SqUSHDh0M7i/Py8tDvXr1ZD88MiMjAwDwyCPG3wxp7rgBwKZNm+Dp6WkwCEGlga/+O/SSkpLg5eVlMDjJzs4GAHh6eorSy8vLUVJSIhq0mxIeHo4zZ85g5syZ0kXw8fHBsWPHhB/44eHh+OeffwyOBwC4urqiSZMmyMw0nDTX51866MnPzwcAUT6tyY+euTK3NobMxbC12zIlJCQE3bt3lyYL8du/f3/pIuTn5xs8ewZWtHOwUP+3bNmCVq1aYeTIkdJFuH37Nrp06WIw4MVdPLbWlrU15SBlS1ynp6ebbAOM2bBhA3r16oVu3bpJF+Grr77CW2+9Jfy/utuIlJQUAMCgQYMM2svmzZsDFc/40LM1v7Ai1q3tn6zdPizUD/2PwLVr10KtVgvpS5cuxTfffFNpTdNCQkIAQDQpq1edxw8VP+Clz4Wztg5WVf9r7ffCynYIFtp5vapqp+WM1/r06SNKN8VcjKKi7Fq1agV3d3fpIuTn5xuUg7X1ypSqKitY2Edr86v//kmTJglp3t7e8PHxEf5vqi2Xc9yk42xr2nlr9uW/9G+M3WsPzGQSAIwb6IkubZtJk2sk364tMaSX6TdOMEPvvvsuXFxcsGTJEuzduxdEBFdXV9EbInJzc3H+/HnRGZyCggJs2bIFq1atwrvvvouxY8cKy1DxAEw/Pz+DB/ui4iF9lR82furUKdjb22Pw4MGi9QAIZwaNDSxRcdbCWAcMG7dbWFiIrKwso520LeVgTGxsLJydndGyZUvpIqBiwArA6NtToqOj4eTkJOpYjxw5gkaNGokGKYGBgZg7dy7q16+PTZs2iX7gxsbGAoBB51xeXo6EhAR06mQ4gRwVFQVPT0+DM7KmpKWlAYDJh66aO25KpRKXL18WlXNl+jxIr+aKjY012CdUDLqcnJwMylNfzl26dBGlG3P06FE0atQIvXv3li6Cq6uraLB39OhRODo6ws/PT7Senp2dnUHeYSb/UVFRgCSf1uRHz1yZ2xJDpmLY2m0Zk5ycjJycHPTs2VO6yGT8oqKsjB1POe0cLNT/rKwsBAQEYOjQoUbrQWhoqNEfCriLx9baspZbDsbYEtfp6ekm2wApfb0fNmyYdBEAoGXLlsKPlZrQRujfuCk9YYKKB5QDEPq5/5JfyIx1W/ona7YPC/UDAPz8/PDUU0/h8uXLePHFF4UJmw4dOhhMAJkSFBSEtm3bGr3ao7qOHyrGLXFxcQaTSdbWQVNlbm3/a+33wkz5GWuHYKGdRxW303LGa9JJCWMsxSgqvl8aK6h0DP5rvTKmKsvK3D7akt+4uDjY29ubnXAx1ZbLOW6Vx9nWtPPW7st/6d8Yu9ceqMkkOzs7LBjfBw83NpwUqEnatGiEF0ZZ7miYmKenJ3755Rd4e3vj66+/xiuvvIKcHPHb9G7evAmdToeYmBisW7cOb7zxBt599104Ojri0KFDePrpp0Xrl5aWIj093WjHRETIysoSXcYaGhoKd3d31K9fX7QuKgZHrVu3NjoQLSgoQFZWFjp37ixdBNi4XX2nLh0wwoZyMOXOnTto3769weW4evpbHYy9Lebq1avo3bu3aJB4/fp1uLq64scff8Ty5cvx0ksv4dChQ1i0aBG2bt0qnGXVi4mJQfPmzQ3KJTw8HGq1GgqFQpReXl6OgIAAo2dSTdFPJhk7k2XpuAUFBQmX1hujPwtd+bW+KpUKiYmJRo/brVu34O3tbTCwvnLlCpycnIxeKSB18+ZNo7c3GKOPLen3oeINV3l5eQavJDaX/6tXr6JRo0ai8rImP5BR5tbGkLkYtnZbxuhvgzX248FU/Obm5iIyMtJonMpp52Ch/oeFhQFGrn5AxZldpVIpuupL724eW2vLWm45GGNLXKelpRltA4zx9/cHEcka+NeENiIuLg5NmzY1uj39FUb6H6y25BdWxrot/ZM124eF+qH3wQcf4M0330RUVBSmTZuGY8eOSVcx69atW0Z/cFfn8UPF1dalpaUGx8jaOmiqzK3tf639XnPlZ6wdgoV2HlXcTlsar7Vp08ZgvGaMpRjV6XTCLWJS/v7+UKvVoglzW+qVMVVZVub20Zb8xsTEoG3btgaT2ZWZasstHTfpONuadt7affkv/Rtj95rxVrUWa+DijNef8UND1+p5db0lzZu44rWp/eDs5CBdxGRo1aoVfvjhB7z55psICAjA3LlzhcueUely8GHDhmHGjBlYs2YNNm7ciNmzZxtcDoyKjo6IjA7goqOjUVJSIuocs7KyDO5pR6XXjBo7U4dKky7GOlTYuF1zZ4isLQdT9K/3NiUyMhItWrQwuKUsJycHYWFhGDhwoCg9JSUF7dq1w5gxY/Duu+9i8+bNWLFiBfr372/0B+nt27eNfr+/vz/q1q1rMNi5ceMGysrKTF6RYExGRgacnJwMLqeHjOOmn4gydmYaFYOXjh07igY2MTEx0Ol0BttUq9UICgoymvcLFy6gT58+Bj9AjElNTZU1kEVF/k3lPSIiAjqdzuAKBVP5R8VzaPz8/EQDemvyAxllbm0MmYtha7dlTFBQEJo1a2Zwqx7MxO+///4LIsKAAQOkiwAZ7Rws1P+srCwAMNqm/Pvvv0DFJfVSd/PY2lLWcsrBGGvjuqSkBIWFhUbPZhujvzW68qumTakJbURMTAx69epltJyDgoLQsGFD4ce5LfmFlbFuS/9kzfZhoX7o2dnZYdq0adi7dy86dOiA5cuXY+/evdLVjFIqlUhNTTW4YhjVfPxQad+lz0qztg6aKnNr+19rv9dU+cFEOwQL7TyquJ22NF4zNRErZSlGk5OTjU4KAsDFixfRsGFDUfzZUq+MqcqyMrePtuQ3KirK6Lb0zLXllo6btE+0pp23ZV9s7d8Yu9ceuMkkAHi4sSveeMYPjWrYhFLzJv/LVwOXmpWv+8GWLVtw9uxZoOIhfNOmTcPy5cuRlJSEQ4cOCevpdDqg4n76pk2bGh2oVBYZGYl69eoZHbQcP34cdevWxejRo0Xp0gdLouLMW15ensHgTS8yMhL29vYml8OG7cbFxcHR0dHoZd3WloMxRUVFyMrKMjqQ0TN1CfaFCxeg0+nw6KOPitJ1Oh0cHBzg7u4uuizflMjISKPHxt/fH3369DF4XsP58+cNBliWpKamws3NzWgZyTluMHHscnJy4O/vj+eee06Urp8skQ6IwsLCoFKpDK6Sy87ORnh4uMEgzRSdToeioiJpsknG8g4Af//9N1q2bGlwSbip/EdFRSE1NdXgAavW5sdSmVsTQ5Zi2JptmRIaGmr0eQowE7///PMP2rZta3BFn9x2Dhbqv155ebk0CadOnQKM/NDEXT621pS1NeVgijVxbe7qRGP07avcfYeJ/NyrNiIqKspojObm5uLy5ct46qmnDJ4hYk1+YWWs29I/WbN9WKgf0dHR+Oijj4R86H/UeXp6YsOGDdBqtdKPGDB2W4xedR+/uLg42NnZGcSzNXUQZsrc2v7Xlu+FkfIz1Q5ZaudRxe00TNSP69evo7Cw0OjzjYwxF6OoVA7SMRYR4dy5cxgwYIBoUs2WemVMVZaVuX20Nr86nQ5RUVFmj7OlttzUcTM2zramnbdmX6qif2PsXnogJ5MAoOXDDfHujEfRvMn/v4mkOrVp0QjvPj8QDzWq2bfg1URKpRJbtmxBcnKyKH3kyJGoU6cOSkpKhDR9h6V/U0tlOTk52LNnjygtKioKnTp1MjjLlZCQgIMHD2L+/PmiswrNmzdHUlISNBqNaP1r164Jy42JiIiAu7u70bOOsHG7SUlJaN26tSjv+ucnWFsOxugfdFh5IKPfPip+qCYmJhrt2P39/dG0aVODgYW7uztCQ0MN9hMA9uzZI7rMNysrS3jIZ2UajQZBQUFGby+4desWevToYXA8zUlPTzd6Bg4yjpt+0Kg/+1bZjz/+iO7duxvc8x8REYGHH37Y4GxXQEAAnJycDJ45oD+Gxq6eM+aRRx5BRESE0UHTn3/+KTybAxVxkpCQYPDjKSMjA4cPH8b7778PBwfxVZSm8n/z5k3ASD6tyQ9klrncGLIUw9Zsyxi1Wo07d+4YvZ3MVPyion5Iy8madg4W6r/+rKw0LoOCglBWVoaGDRsa/VF3N4+t3LK2thyMsTau09PTATPPTZPS/1Ax1r4WFxfjxx9/FP5f3W1ETsVLEqS3BQHAd999h4YNG2L27NlCmi35tTbWre2frN0+LNSPAwcO4OzZs6Jlzs7OGD58OFQqlUHcGHP79m3Y29sbzVN1Hj8ASExMROPGjQ3abrl1EGbK3Jb+15rvhZnyM9UOWWrnq7KdhpnxWnBwMNzd3UVvQDTHXIyi4tY9GJlMSk5ORmZmpsGz6qytV8ZUdVmZ20dr85ucnIzi4mKjY049c225qeNmapxtTTsvd1+qon9j7F6T/4uqFmrWyAXLZjwK7w6GP8TvpX5dW+Lt5wbwFUk2cnV1haurq3Aft154eDjq1Kkjer3ugAED4OLigp9++kkYYOjX/eCDDzB8+HAhDRWTSdJLkhMTE/Hqq68Kl6tWNmTIEJSWluL3338X0vbu3SsMDlUqFVJTUw3eFKQfHJliy3aLi4uhVquFqwO+//57oVO0thyM0Xdq+h+KAQEB+PTTT4XlycnJ0Gq1Rm8Py8jIQN26dVFSUiKcwQWAxx9/HDk5Odi4caMwoFCpVPj+++8N3mSjf9Cm9CxfXFwcVCqV0cuVMzIy4OjoiIKCAoNJClPS09MNvkPP0nHr168fGjRogMOHD4t+UJ88eRIBAQFYvXq1wcA6MjLS6FmziIgINGzY0OAHgP6YOzg4IDg42OIPnVGjRqG4uBhr164VzpZpNBrs3LkTQUFBovv/R44cieLiYhw/flxIKywsxLJly/Daa68ZnEGHmfzrn91hb2+P4OBgId2a/EBGmVsTQ5Zi2JptGZOVlQWtVgt7e3ukpqYKA1mYid+SkhIUFRXBwcEBubm5wsN1rWnnYKH+9+3bFy4uLjh8+DCKi4uBikHs33//jc6dO4OIUFJSIryNSu9uHlu5ZW1tORhjbVzrj5v0WJkycOBAuLq6YteuXaJJl7i4OLzzzjuiW+iqu43Qt4OV+zmdTiecHf/6669Ftyrakl9rY93a/sna7cNC/XBzc0NZWZmwXVT8wA0ODsaTTz5pciK7srS0NDg5OUGlUonqBKr5+KHiSidjdVxuHYSZMrel/7Xme2Gm/Ey1Q5ba+apsp2FivPbrr7/C19cXKpXK6ES9MeZiFBVlDSOviteXg4ODA+Li4oTJOGvrlTFVXVbm9tHa/EZERACA2fGBubbc2HEzN862pp2Xuy/W9G/Xrl3D888/j+vXr4vWZeyeI0Y6IvrzajQt/PoPmvfl0Xv2t+ibE3ThVoI0O/e9/Px8adJdd/nyZRo5ciQtW7aMfv/9d9q0aRPNmTOHAgICpKvSmTNnaNCgQeTn50ezZ8+madOm0dtvv01KpVK0nlarpUcffZSmTJlCmzdvpt27d9PHH39M48aNo3379pFOpxOtT0RUXFxML7zwAvXt25fmzp1Lc+bMoZMnT1JJSQkNHDiQFAoFzZkzh7KysoTPaLVa8vHxoREjRhjdJtm43W3btpFCoaDhw4fTuHHj6MyZM6Jtyi0HUwoLC2nYsGHk6+tLI0eOpPfee0907K9fv04KhYJWrlwp+hwR0fLly0mhUNDgwYPp5MmTQnpJSQm98sorpFAoaOzYsTR//nyaMmUKnThxQvR5IqLdu3eTQqGgvXv3itL//fdfUigU9NVXX4nSiYimTZtGCoWCnnjiCQoKCpIuNlBWVkYKhYJ++eUX6SJZx42I6OLFizRo0CB65pln6LvvvqN33nmHVq9eTcXFxdJViYhoyJAhNHz4cINtvvDCC6RQKAzq17lz50ihUJBCoaDPP/+c1Gq1aLmUSqWi119/nRQKBY0ZM4bmzZtHkydPNhrTKpWKlixZQv369aMVK1bQ119/TYsWLaJr166J1qvMVP4PHDhACoWCfHx8aMOGDcJya/Ijp8ytiSFLMWzNtoypXD9nzJhBGRkZwjJT8avVaunxxx8nhUJBkydPpjt37gjLrGnnLNX/EydOUL9+/WjUqFH08ssv01tvvUUFBQX0ww8/kEKhoAEDBtBvv/0m+szdPLbWlLU15WCMtXG9fv16GjRokEGezbl06RINHTqUfH19aebMmTRt2jRasmQJJScnS1et1jZix44dpFAoaMWKFbRr1y764YcfaNq0afTqq69SUlKSaDt61ubXlli3pn+yZfvm6odKpaJly5bRmDFj6Oeff6YDBw7QG2+8QatWrSKVSiWsZ46+Hvn5+Rnkq7qP36pVq0hRUcePHDkipFtTB02VuS39rzXfS2bKz1Q7JKedr8p22tR4jYho0KBBdODAgUpbMs1cjBIRzZs3jxQKhWjcR0SUkpJCPj4+pFAoaPHixaJ9taZeGVPVZWVpH63Jr77O7du3T7pIYK4tN3XczI2zrWnn5e6L3P7t7bffJoVCQWfPnhWlM3av2VHlayYfcJm5xfj171CExoqvGrkb+nZxxzMjuqFxfdNvHLhfFRQUGJwJuxfUajUiIiJQVFQENzc3tG/f3uR9ySUlJQgPD4dWq4WHhweaNWsmXQWJiYmYNGkS1q9fj6ZNm0KpVKJp06bo3LmzwZnXynQ6HcLCwlBaWgpvb2+4uPzv1sX4+HgUFhbC29vbIF/Xr1+Hm5ubwW1flVm7Xf2ZVHt7e3Tt2tXgmReQWQ7mKJVKREdHw8PDw+BsUHl5OQIDA+Hp6WlwlrKsrAzBwcHw8vIyuFQdFbdQpKeno3HjxujcubPRvGdlZSE+Ph7e3t6iB3zrz7Z27tzZ4IxdTk4OYmNj0aNHD1lnl5OSkjBx4kRs3LjR4GoFyDxuqDj7FhYWBgcHB3Tu3NnsZe4BAQFo2rSpwaXat2/fBhGhS5cuBvETFBSEJk2aWMxHZYmJiUhOTkbjxo3h6elpcDa8spiYGGRmZsLNzc3oJeyVmcq/TqdDQEAAWrdubfQSc7n5kVvmcmIIFmJYT+62jElMTEReXh68vb1F7Yap+EXF2dPU1FT07NnT4LvktnNy6r9SqURUVBRatGghHFdz9fZuH1tYUdZyy8EcuXH94YcfIjU1Fdu3b5cuMqu0tBQRERFQq9Xo0KGDyfhCNbYR77//PtLS0vD1118jJiYGANCxY0eDq0GkrMmvrbEut3+yZfty6kdGRgbu3LmDunXrwtPT0+hbnkxRq9UIDAw0WpbVffxUKhWCgoLg6elp0EdCZh00Veb/pf+V870wU37m2iFL7XxVt9PGxmslJSUYPHgwvvnmG4NnDRpjKUbv3LkDlUoFLy8vg3iJiYmBVqs1evuj3HplSlWWlaV9hBX5TU9PR0pKCrp162bybW6W2nJjxw1mxtmwsp2Xuy9y+rfs7GxkZmYaffMqY/cSTyYZEZWkxIkr0QiL+98bb6qKnZ0dendyw5j+HdHOzbADry2qazKpqp0+fRrLli3DiRMnDO6VZg+G69evY/Hixfjnn3+EQQVj7MEyd+5c9OrVC4sXL5Yuuu9NmTIFPXv2xAcffCBdxO4DfPzuH5GRkZg+fTqOHj1q9DYrdvfV5racsepi+vKKB5hn64fw2lQ/fDpvGJ4c0Ok/P6TbvVkDTBjcBZ+/OBwLJ/at1RNJtUlkZCRcXV15IukBlpqait69e/NEEmMPsLS0NAwcOFCafN8rKytDQkKC2auyWM3Fx6/mSUpKwtq1aw0e4gwAISEhcHNz44mkalRb23LGqhNPJpnh9lB9TBjUBSsXDMeXCx/DnLG9MaJvB3T3aA63h+qjgYsTnBzrwM7ODs6OddDAxRnuzRqgZ8cWGOnTAQvG98HXr4zE8rlD8WT/TmjGb2q7r0RFRRm8epY9WCIiIgzeTMQYe3AolUo4OTkZfRPR/e7OnTvQ6XQGtwux+wMfv5pn586d2L17t9Hbtc6cOYPx48dLk9k9UpvbcsaqE08myfRQw3ro360Vnh3RDUue7odP5w3DN4tHYcMbT2DL22Px/RtP4JvFj2P53KFYNNkXU4d3g49XSzSqhc9EelDExMQYfWMIq72uXLkivGkjODgYYWFhGDVqlHQ1xlgtVV5ejhMnTkCtVqOsrAzr1q3D3LlzzT4n736lf6MW93P3Jz5+NU/jxo1BRIiPjxelX758GcnJyXjuuedE6ezueZDacsaqE9coxowoLy9HZmam8IpV9mA4ffo0Jk6ciIEDB+L111/HRx99BEdHR+lqjLFaSqlU4qOPPsKjjz6KIUOGwNHREePGjZOuViskJycDlV49z+4vfPxqnmeffRatWrXChx9+iMuXLyM4OBhbtmzBtm3bsHHjRqse4s7+mwepLWesOvEDuFmVqw0P4CYi7Ny5E23atMHQoUOli1ktlZ+fjz/++AOOjo547LHHzL4RhzFWO129ehXh4eHo1q0b+vXrJ11ca4SGhuLWrVt4/PHH+dmA9yE+fjVTWVkZzp49i5SUFNSvXx/dunVD9+7dDd7Gxe6+B6UtZ6w68WQSq3K1YTKJMcYYY4wxxhhjxvFtbowxxhhjjDHGGGNMNr4yiTHGGGOMMcYYY4zJxlcmMcYYY4wxxhhjjDHZeDKJMcYYY4wxxhhjjMnGk0mMMcYYY4wxxhhjTDaeTGKMMcYYY4wxxhhjsvFkEmOMMcYYY4wxxhiTjSeTGGOMMcYYY4wxxphsPJnEGGOMMcYYY4wxxmTjySTGGGOMMcYYY4wxJhtPJjHGGGOMMcYYY4wx2XgyiTHGGGOMMcYYY4zJxpNJjDHGGGOMMcYYY0w2nkxijDHGGGOMMcYYY7LxZBJjjDHGGGOMMcYYk40nkxhjjDHGGGOMMcaYbDyZxBhjjDHGGGOMMcZk48kkxhhjjDHGGGOMMSYbTyYxxhhjjDHGGGOMMdl4MokxxhhjjDHGGGOMycaTSYwxxhhjjDHGGGNMNp5MYowxxhhjjDHGGGOy8WQSY4wxxhhjjDHGGJONJ5MYY4wxxhhjjDHGmGw8mcQYY4wxxhhjjDHGZOPJJMYYY4wxxhhjjDEmG08mMcYYY4wxxhhjjDHZeDKJMcYYY4wxxhhjjMnGk0mMMcYYY4wxxhhjTDaeTGKMMcYYY4wxxhhjsvFkEmOMMcYYY4wxxhiTjSeTGGOMMcYYY4wxxphsPJnEGGOMMcYYY4wxxmTjySTGGGOMMcYYY4wxJhtPJjHGGGOMMcYYY4wx2XgyiTHGGGOMMcYYY4zJxpNJjDHGGGOMMcYYY0w2nkxijDHGGGOMMcYYY7LxZBJjjDHGGGOMMcYYk40nkxhjjDHGGGOMMcaYbDyZxBhjjDHGGGOMMcZk48kkxhhjjDHGGGOMMSYbTyYxxhhjjDHGGGOMMdl4MokxxhhjjDHGGGOMycaTSYwxxhhjjDHGGGNMNp5MYowxxhhjjDHGGGOy8WQSY4wxxhhjjDHGGJONJ5MYY4wxxhhjjDHGmGw8mcQYY4wxxhhjjDHGZOPJJMYYY4wxxhhjjDEmG08mMcYYY6zWIiJpEmOAhdgwt4w92MzFhrlljDFW29hRDW31NBoNCgsLoVKppIsYAwA4OjqiQYMGcHJyki56IGi1WqhUKpSWlqK8vBx2dnbSVdgDxMXFBfXr14e9vflzBDqdDuXl5SgpKYFKpeK4eYAREVxcXODq6oo6derU6lggIhQWFqK0tJR/7D3g6tSpA2dnZyHuzSEilJSUoLS0FFqtlmPnAWZnZwcnJyc0aNAADg4O0sUiRCQan+l0ulrdvjLz5P5eISKo1WqUlpZCpVJBq9Vy3DygiAgODg5o0KAB6tatK11co9TIySQiQmZmJkJCQpCenm6x0WYPHo1Gg6ZNm8Lb2xutW7d+IBvbvLw8xMfHIyUlBbm5ubX+xyAzTqfTAQA6dOiArl27WpxQKi4uRkpKCuLi4pCVlcVx84AiImi1WrRp0waenp546KGH4OjoKF2t1igtLcWtW7cQHx8POzs7EBHH/QNGf8zr1KkDNzc3dO/eHY0bN5auJlJeXo7Q0FDEx8dDrVbzpMADSB83RIRmzZqhd+/eaNasmXQ1EY1Gg9jYWMTFxSE/Px8ajcZsv8xqL41Gg8aNG6Nnz55o3bq1dLGIVqtFSkoK4uPjkZmZCZVKZXHCm9VOGo0Grq6u8Pb2Rvv27Wv0WL1GTialpaXhwoULOHr0KG7fvg0XFxfpKuwBV1paitatW+PJJ5/EY489htatWz9wDe6VK1fw66+/IioqCvn5+Tzp+oDSarXQarXw9fXFuHHjoFAo8NBDD0lXE4SEhODo0aPw9/dHSkoKHB0da2wHxe4enU4HtVqNbt26YcSIERgyZIjFge79LDg4GFu3bsW///4LV1dX6WL2ACktLUXnzp3x6quvwtfXV7pYJCUlBevWrcPZs2fh4uLCVyY9wEpKStChQwfMmzcPI0aMMPvjrqioCJs2bcLx48eFiXtT67LaraSkBI888gimTp2K0aNH46GHHjL5e6WkpAR79+7FiRMnkJOTg7KyMpPrstqtrKwMTZo0wejRozFmzBh4eHhYvLKtutTIyaRbt27h119/xY4dO5CRkYHu3bvD2dkZGo1Guip7wNSpUwdEhIiICDg4OOCZZ57BrFmz4OvrW6vPqhuze/dufPTRR8jMzESjRo3QtGlTODk5QavVSldltZSjoyOUSiViY2PRvXt3vPDCC5g4cSI8PDykqwqOHz+Ob775BiEhIdBoNHjkkUdQr149jpsHiIODAwoKCpCQkAB3d3c88cQTmDt3Lnr37i1dtVYoKyvDqVOn8OabbyImJgZdu3blmH/A6K8sKSsrE05S/vTTT5g6dap0VZHg4GDMmDEDwcHBaNeuHRo1aiRcYVIDh8/sLrC3t4dOp8OtW7fg5OSEL774AnPnzkX9+vVN/tBXKpV4/vnn8ddff6Fly5Zo1KgRnJ2dAY6bB4Y+NoKDg6HT6bBw4UIsWLAAnp6eQixI5eXlYenSpdizZw/q16+PBg0aoFGjRgDHzQPD3t4ednZ2iImJQWlpKcaNG4c5c+ZgyJAhNfZEWI2cTAoICMDBgwexd+9eeHh44O2330bz5s1RUFAgXZU9YPQ/ADZs2IB//vkHTz75JKZPnw4/P78HbjLp559/xpdffonmzZtj9OjRUCgUaNq0KcrKyqSrslqqSZMmuHbtGr7//ns4OTlh6tSpGD9+PDp16iRdVXDkyBFs3LgRhYWF6NWrF0aPHo1WrVqhuLhYuiqrpRo2bIjbt29jz549SE9Ph4+PD2bNmoW+fftKV60VSktLcerUKSxcuBB169bFmjVr0LZtW5SUlPAA/QFRp04dqNVqpKWl4fPPP0dkZCR++uknPPfcc9JVRYKCgjBlyhRkZmZi+fLl6NmzJxwdHUFEHDsPADs7Ozg6OkKtVmPFihX4+++/8eWXX2LBggVo0KCB2cmkp59+Gjdu3MCSJUvg6+uL5s2bAxVXE7Par169erCzs8NXX32Fo0ePYvbs2XjxxRfRuXNns5NJS5YswYULFzB06FAMGjQIXl5esLe3h1qtlq7OaiEnJyc4Ojril19+wZEjR+Dn54fnnnsOw4cP58kkawQEBODw4cP47bffMGLECKxfv166CnvArVu3Dps2bcLIkSMxderUB3Iy6aeffsK3336Lnj174sUXX8Sjjz4qXYU9AJKSkrBkyRLk5ORgwoQJGDt2rMXJpK1bt8LJyQnjxo3DrFmz+PL7B1BhYSG++OIL+Pv7o0uXLpgxY0atnkw6ffo0FixYgC5duuD06dMPXH/B/qegoACzZs3Cn3/+iW3btmH69OnSVUSCgoLw9NNPw8HBAfv27UOPHj2kq7AHxBtvvIF169bh888/x0svvWTxyqTJkycjLi4O69evx9ixY02uy2q3L7/8EqtXr8b06dMxf/58i5NJixcvRkhICGbMmIGpU6fW6tvPmWl79+7FV199BW9vb0yZMgXDhg2rsZNJNfJpcPofNlTpLRqMVVZUVPTAnxXU15Py8nLk5eWhqKhIugp7AOTk5EClUsmuD/q4UavVKCwshFKplK7CHgBKpRIlJSXCszxq84Sifv/s7e1RXl7OMf+AIiIolUqUlZVZFfN2dnZQq9XIy8sTXnjAHjwlJSXCLSio1Jcao29vtFotCgoKuM15gBUXFwsPcTcXM3p2dnbQarUoLi5Gbm6udDF7QBQUFECj0QhjezmxU11q5GSSlNwfSezBwTHx//SX23OZPJisPfaV1yUi/nH0gJLGjTUxdD+T7jd7cOh0OpuOvX4Qz+3lg00aO9L/VyZtW82ty2o3W489tzcPNmncSP9fk9wXk0mMMcbksXT2wtJy9mDiuGDMMq4nTM9cLFReZm49xszh2GF6NTkWeDKJMcZqEUtnLywtZw8mjgvGLON6wvTMxYL0yiTGbMGxw/RqcizwZBJjjDHGGGOMMcYYk40nkxhjrBaxdCmspeXswcRxwZhlXE+YnrlY4NvcWFXg2GF6NTkWas1kkqUH3Jlbdi+Yyp+xNJhJv1dMfb+pdFZz3Y/HrCbn2VTeasqDEk3lT8/Scj1L61lafreZalNNsWbdu8HU95tKv9dqSj5qsuqu49YeI2vXvxvM5cHcsprKljxz3FjPXB7MLbuXzOWj8jJz66EGxIctTOXZ0r7ebea+39yymspcnk0dg5rMVJ7N7ee9YO77zS27l2pKPoypNZNJdhWvXCwvL0d+fj4yMzOhVCqFV2ZX94yePn9FRUXIyMhAQUGB8ErmsrIyKJVK5ObmorS0tFryq9PpoNFooNVqgUozoFqtFkVFRVAqlSgtLb3n+WL/nf6YFRUVISsrS4i/mtIwERHUajVycnKQlZUFlUol5Dk/Px8ZGRkoKioSYvNeIiJotVpoNBqhE7SreG1raWkp8vPzkZ+fD7VaDXv7mtGcWqqjlpbr6ddTqVTIy8tDRkYGcnNzUV5eXi1tlJS+TS0sLERmZiaKioqEY1RSUgKlUom8vDyUlZUJ699LxtpUIoJGoxFeFV051qtbTclHTVFWVobs7GxkZGQgLy8PGo2m2ut45TqZn58PpVKJ4uJioKKtKi4uRkZGBvLz86uljurbS61WK2ovAaC0tBR5eXkoLCxEeXm5aNn9xFKepXFTE/oGfZ7142OOm6phLh+Vl5lbDwDs7e2h0WiEfjYrK0vot2oCnU6HkpISZGZmIi8vD0QEe3t7qNVqZGVlVdtvLap425m+n638/Wq1GkVFRcjLy0NxcfE9z1tVMZfnmh43RITS0lKDuNFoNMjOzkZ2dna1xA0qYlrf5piKm6KiomrJmyk1JR/GVG8PdxcEBQXhm2++wQsvvIC3334bV65cQUFBgXS1avPbb79h5syZ2LJlC1JSUgAAFy5cwNKlS/HJJ5/gzz//RGFhofRjd5VWq0VBQQESExORmZkpdObl5eVISEjA119/jQkTJmD//v3Sj7L7yN69ezF9+nRMnDgRmzdvFgZm1U2lUiE6OhorVqzAwoULERAQAFQ09t9++y2efvpp7Nq1C2lpafd0Qkk/yM7KykJaWpqoXqalpeHAgQNYunQp3n33XYSGhoo+W53IwiShpeVS169fx6effornn38ey5cvR2BgIIqKiqSrVZuff/4Zs2bNwr59+5CTkwMA+Ouvv/DGG2/giy++wPnz56FWq6Ufu6v0A7yEhAQolUohXaVSISYmBitWrMDkyZNx9uxZ0eeqk7VxUdudP38eCxYswKRJk7Bq1SokJSUJy6qzrDQaDQIDA7F582a8/fbbOHbsGACgoKAA+/btw5QpU/DVV19BpVJJP3rXlZSUID09XXTCTG/v3r1YsmQJvvzyS1y8ePGetuVVydKxv3LlihA3K1euRFxcnLDM0mfvJp1Oh6CgIIO4KS4uxqFDh/Dss89WW9yUlpaajJvffvsNr776KlauXFnj4sbc8ay8zNx6evHx8fjkk08wfvx4LFiwANeuXZOuUi2ICIWFhTh58iTmz5+PNWvWCGOh27dvY+7cuVi0aBGuXbt2z39rqdVq5OfnIz09HZmZmaIxbWBgINavX4+XX34ZP/zwQ7XEdVWwFDspKSlYuXKlEDcXL16UrlJtCgsLcfbsWYO4iY2NxYsvvoiXXnqpWuMmLS0NGRkZorgJDg7Gxo0b8fLLL2PDhg01Km4sxUJ1qnWTSTdv3sTWrVtx8uRJ7Nq1C6dOnUJycrJ0tWrj7++PkydP4sKFC8jNzQUA5ObmIjw8HJGRkcjMzLznnWVpaSnCw8Oxe/dunD17FhqNBqgI3JKSEsTExODq1avC5Be7/6Snp+PPP//E6dOnceXKFRw9ehRRUVHCsa5OGo0GmZmZOHbsGH777TckJCQAFfEXGxuLGzduIDk5+Z436lqtFnFxcfjnn39w5MgR3L59W1imUqmQmpqKsLAwhIeH3/MJ4HuFiHD58mVs3rwZf//9N/bs2YOzZ88iIyNDumq1+ffff/Hnn3/i+vXrwiRXVlYWQkNDER0dDaVSafLS6rtB327eunULO3fuxKVLl4RlOp0OxcXFuH37Nq5du4bs7GzRZ1n1U6vVSE5OxtmzZ3Ho0CFcvnwZe/bsQWRkpLBOdZ4h1Ol0SExMxLlz53Dw4EEEBgYCFXGXkpKCmzdvIiYm5p7GvF5SUhL++usvnDp1CuHh4SgtLRWWJScnIyQkBNHR0cKkb22i0WiQmpqKf/75R4ibnTt3Ijw8XFinOuOGiJCcnGwQN6g4OVKdcZOamopTp07hr7/+Moib1NRUBAcHIyoqqlbGjV5ISAh27dqF69ev4/Dhw7h48SLy8/Pv+e8BKaq4uiQsLAxHjx7FqVOnhKtfioqKcOvWLYSEhAhXb95L+fn5CAoKwvHjx3H69Gnk5eUJy/Ly8hAbG4ugoCDEx8dXS1zfC+Hh4dizZ48QN+fPn0dubm61xw0qrtK8ffu2QdyUlJQgKCgIQUFB1RI3BQUFCA0NxYkTJ3Dq1ClR3BQUFCAuLg7BwcGIjY2ttXFT1WrVZBIRISEhAWlpaQCABg0aICAgQPhxWhM0aNAAANC4cWPh0udu3brh+eefx9NPP41evXqhbt26kk/dXSUlJfD398f69etx+PBhocI7Ojri4YcfxpNPPok33ngDfn5+0o+y+0BhYSGCg4OFyUtUXHV2+fJlpKamitatDnZ2dnB0dMRDDz2Ehg0bCvFvb2+PJ554Aq+99hoeffRRNG7c+J4OxjUaDW7fvo0jR45gx44dosF348aN4efnh+nTp+PZZ59Fq1atRJ+tTpbKyNLyykpKShAbG4uSkhKg4pjcuHGjRsSNXqNGjQAADRs2FM7c9OnTBy+88AImTJgALy8vODg4SD519+h0OhQVFeHff//F2rVr8ddffwnLnJyc4ObmhkmTJuG1115D165dRZ+tTtbERW1WXl6O69evIyoqSoitkpISxMXFiW6lrE5169ZF48aN0axZM7i4uAAA6tevj/79++PVV1/F2LFj4ejoKP3YXXfnzh3s27cP+/fvx82bN4VbqQBgwIABmDlzJsaPH4/OnTvft/FmKt8ajQY3b95ERESEEDdlZWWIj483uNqmujg7OxvEjaurK3x9fbFkyZJqi5v4+Hjs378f+/btM4gbX19fzJw5ExMmTKhxcWMuL5WXmVtPq9UiNTUVUVFRQpqLiwuio6Ph7+9f7VeQ29nZwd7eHq6urnB2dkaTJk2E3y4tW7bEiy++iFmzZqFjx46oV6+e9ON3VU5ODq5evYpdu3bht99+Q2ZmprCsffv2GD16NObMmYMRI0ZUS1xXBVOxo9PpkJ6ejtu3bwvjHhcXF+EEbOUJ2epib28PFxcXg7hp0aIF5s2bh3nz5lVL3OTl5eHatWvYs2cP9u/fL4qbNm3aYOTIkZg9ezYef/zxGhU3pmKhJqg1k0kqlQqhoaHC2cO+ffuiS5cuuHXrFqKjo6Wrm71cTP+8DWllNPcZVPxoz8nJMXsFReVg0Gq1UKvV6Ny5MyZNmoQnn3wSXbt2hbOzs+gzeiqVCmlpacjKypJ920ZRURGys7MtXjlRXFyM7OxsKJVKocLb29ujadOmGD58OBYsWIDevXtLPyYoKSlBWloa0tPTjc4yWyq7kpIS4Z5aVrUSEhJw5coVlJeXo0WLFvDw8IBarcb58+eFiVe5cnNzjV6SaukHVn5+PnJycszGhl3FM3D07OzsMGLECMyfPx++vr5o2LCh0WdPEBFycnKQlpZmcPsVmXhIs1qthlKpNJknVMR/WVkZcnJykJ6eLkyooGLiolevXpgwYQLGjx+PRx55RPTZyrKzs5Gamio6+1GZsfzp6Z9XVHlwbYm57UHGcr2ysjKEhoYiJiYGADBkyBC4u7vj5s2bols39Mxtt6ioCDk5OQb385v7DCrOEuXk5Jht7yrHjVqthlarRffu3TF58mQ8/vjj6NSpk8W4kbaPpuIGFXnKzs42iDU9u4pnIxUVFSE/P180ievg4ICHH34YY8aMwbx58+Dp6Sn6bGWFhYVITU0V3Xpcman8oVLcmMqjMea29yDRaDS4dOkSEhISMHDgQDzyyCNQqVQIDg5GWFiYqL2wVGb6+LVWTk6OQUxK6eNeHxsODg5QKBSYN28eHnvsMZMTqCqVCunp6SbHEcb2SV9XlEql2R+3KpUKWVlZyM7ONmiz+vTpg6effhojR45Ehw4djNZJVPQx5tpLc/TP1zFWX6qKsfJBRfrly5cRExMjxI1arUZISAhCQkJEZW1qG3r6saQx5j6rjzdLY9DKcWNnZ4eePXti7ty5ZuMGFXGZnp4uewxQOW7M5am8vFx4hoo0bnr16oWnn34ajz/+uKy4qdzeyqXT6Yz2s+bKGhaWV15mbj2NRoOAgACEh4fj4YcfhpubGzp06IDbt2/j6tWrVk1ClpeXmyxrY8dHT27c2Nvbi8Zobm5umD59OqZOnYq2bdua/O2Sm5trddzk5uZCqVQajBkq01Y80zUzMxPZ2dmibbVq1QpDhgzB1KlTMXDgQJNxXVpaKvx2Mda2mTt2RGQybsx9zhqmtqPT6XDr1i2EhoaiSZMmQtzExMTg8uXLRtt2U/RxY6ysjR0fvfLycuTm5iI/P1+6SEQaN82aNcNzzz2HZ599Fm3bthVOIEv3taysTHgWlHR/TOVL/5vXWKzp6SquEM/MzERWVpZoW+7u7hg8eDCmTp2KwYMHy4obY/VGui9S+ucySffLHEvbrE51Pvnkk0+kidVNP9saHh6O1q1bY8yYMRZnB5OTk3Hq1ClcvnwZTk5OmDVrFh566CGcOnUKbdu2xZAhQ0QNnV3FQ3QzMzORm5sLnU4nDLKCgoJw+/ZtpKWloby8HC4uLnBwcBA6seLiYuTm5qKoqAgqlUq4HUb/uezsbNSpUwd169ZFnTp1RJXo7NmzuHjxInr27In+/fujefPmqFOnDlQqFRwcHODo6AhHR0fhM0SEgoICpKSkCJeTxsfHIy8vD/b29ka/Q/+8jqioKISEhCAmJgapqakoqHjosv4zqPiRHx0djatXryIwMBAtWrRA9+7d4erqKjQAVPGQO/0Mc+XvKSkpQUJCgihv+fn5sLe3h729PZycnITBi1arRV5eHjIzM5GTkwMiQllZGWJiYhAUFCRc/m5vby+UhSkXLlxAcHAwPDw80K1bN7Rq1UrYpwfFrVu3cOXKFTRr1gw9e/ZEu3btjHbmly9fxqFDh+Ds7IwePXqgc+fOyMvLQ0xMDBQKBbp16yb9CIqLi5GamoqSkhLY29sjJycHkZGRCA4ORnx8PAoLC2Fvb4969eqJOorCwkKhbqjVapSXlwufi46ORm5uLpycnODk5CQ00mq1Gunp6Th58iSUSiUmTJiALl26CMt0Oh3q1q0LJycn0UBSo9EgLS0NYWFhwvb1Dbuzs7Owvj5vWq0WJSUlSElJQVhYGCIiIoRn2mgqHq6rj1ciQlxcHPz9/REeHo6ioiK0bNkSnTp1gqurKxwdHaGpeCi3g4MD6tatK+wPVVwWnp2djbCwMNy6dQu3b99GRkYGNBoNnJ2dYW9vL8SrnZ0dSktLkZKSgtyKB1zrdDpkZmYiKCgIYWFhSElJgUajQb169VCnTh1ROaSnp+PMmTNQq9Xw8vJC586d0bRpU2G5VFRUFPz9/WFnZ4cOHToI9V3qzp07+Ouvv3Djxg08/PDDmD17NtRqNS5cuAAvLy88+uijoo7Wzs4OarVaeJCrTqdDaWkpkpOTERwcjMjISKSnp0Or1cLV1VXUbuknmyrHTXR0tHB7g1KpFI6ptHP/448/4O/vjwEDBkChUKBp06ZCXhwcHODk5CRqUzUaDdLT0w3ipqysDM7OzsLxqdymqiseEB8REYHQ0FDExsaKJi8rt6nZ2dmIiorClStXcOvWLbRt2xbdu3eHg4ODsM/6wYuLi4uonVOr1cLVYAEBAQgNDUVSUhIKCgqENlW/L3YVL29ISUlBTk6O0bhJTk5GeXk56tWrJ+rDUHF27urVq8jKykLz5s3Rs2dPuLu7C8trE41Gg9jYWPzxxx9o3LgxnnnmGeEqYam0tDRs2rQJubm5mDFjBho0aIC0tDSUlpaiadOm6NGjB5ycnIBK44jS0lIoKx74bm9vj6KiIkRGRiIoKAixsbEoKCiAg4OD8KennzDUD0b1bUZISAiSkpJQXFwsamdR0Y7FxMQgNDQUqamp6N69O4YNGwZU7KdWq4WzszPq1asnxLC+TUpLS8OtW7cQHByMhIQE4Ye3vr/VxxUqXWGXkZGB8PBwhIeHIy4uDtnZ2dBoNHB0dBTaMZ1Oh9zcXFy8eBFBQUEgIjRv3hxNmzZF8+bN4ejoCF3FA08dHBzg7OwsxD1VPJQ+PT0dERERCAoKQmRkJFJTU1FaWir0F/r911U8DDgpKQnp6elwdnaGSqUSbmmJiooSfiBU/h79d+Xn5+PEiROIj4/H+PHj0b17d2G5MRkZGThw4ACICE899RTatm0rqkd6WVlZ2LRpE9LS0jBr1iw0aNAA6enpKC0tRZMmTdCjRw/hR1PluMnJyRHGPZXjJiYmBvn5+XB0dBTFjZ2dHVQqFTIqvZhCPw6rvP92dnYG47g7d+4gODjYIG7UFZPw0rhBpfFkSEgIbt26haioKKRXnFzRj3Mrt5dUMZGemZkp3AYeFxcn/CDUt4P6uCkoKMClS5cQGBgIrVaLFi1ayIobfd708Vk5boqLiw3iRi85ORnx8fFARV6VSiVCQkIQGhqKxMRElJSUoF69enB2dhaVAyr6msDAQIwYMQJ9+/Y1uo5eWVkZ9u/fD6VSicceewweHh6oX7++dDWUlJRg//798Pf3h4eHB3r06IEWLVogNDQU9vb2GD58uEFbpdPpkF3xkHdUHL+UlBSEhIQgPDwcGRkZUKvVcHR0FPJoLG5KS0uRmJgoihsiMuifS0tLERISgjNnzqBdu3aYNGkSXFxcQETCbxd9H6P/jD5u9GMgadxI+9nKcaNvb+7cuYOsrCxoNBqh/6pTp47wvcHBwbh16xbi4+Ph7OyM9u3bo127dkI+NBUT/05OTqhbt66obcvPz0dycjKCgoIQHByMuLg44beLo6OjsP/6z0jjJicnB6GhoQgJCRHipm7dugb7hYrffTdu3EDPnj2hUCjw0EMPifqBysrKyvDnn38iPT0dXbt2hZeXF9zc3KSrQaVS4eDBg7h69Srat2+Pnj17okWLFoiIiIBGo8Hw4cPRuHFj0Wd0Op0wIUwVL76pHDf637xOTk6iuNEfy7y8PJSWlgrb0debhIQElJWVwcXFRThGqPQIlZMnT4riRp9/adzYVbRTpaWlwm/qsLAwxMfHC78ZXVxcDMbAKpUKhYWFuHPnjnArdWpqqjDJVadOHTg5OQlxExoaisDAQMTGxsLR0REeHh5C3NhXPCAcFXfnSOOmoKAAqampQj8aFxcn9Pv6trpy3CiVSqFN0mg0KC8vF37zRkVFITs7Gw6S3xB6/v7+uHHjBtzc3NCtWzd06NBB1P7VKFQDBQQE0IcffkheXl40d+5cKi4ulq5i4MaNGzRt2jTq1asXPfvss3Tt2jXavn07AaDhw4fTpUuXqKCgQPSZnJwc+uCDD2jmzJm0bds2WrZsGQ0dOpQUCgV5enpS+/btacSIEbR69WqKj48XPnfx4kX65JNP6JNPPqEPP/yQFi9eTGPHjiVvb29q27YteXl50RNPPEG7du2isrIy0Xe+//77BIBmzJhBISEhRER04cIFWrx4Mb333nt07NgxUT4TExNp06ZNNHLkSOrUqRN5e3tThw4dyNvbW/gOtVpd6RuIzp49S3PmzCFfX1/q3LkzKRQK6tatG3l7e9PUqVNp9+7dVFRURBqNhk6dOkVTp04lFxcXAkB16tQhLy8vWrlyJQUGBtLt27fp22+/pSeeeIJ+/fVX0fckJyfTV199RQMGDKDOnTuTh4cH9ejRgzp37kxPPvkkbdu2jZKTk4X1c3Nz6fDhw7RixQp6++236eOPP6Y333yTBg0aRO7u7tS2bVvq3LkzzZgxg06ePEmlpaWk0+lE36n36aefkqenJy1atIguXLhA5eXl0lVqvZ9++om6d+9OU6ZMoaNHjxrEt966devo4YcfpsmTJ9O2bdvo559/pnHjxlHdunVp9erV0tWJiOj8+fM0ZcoUmjdvHu3du5cWLlxIXl5e5O3tTR07dqTu3bvTkiVL6Pz586IYP3HiBH3wwQe0YsUKev/992nhwoU0cuRI6tKlC7Vt25a8vb1pypQpdOzYMeEzxcXFdOnSJfL19aVGjRrRoUOHiIhIq9XS6tWr6cknn6SffvqJUlJSSKPREBGRSqWi48eP05w5c8jb25s8PDyoe/fu1K5dOxo0aBC99957FBQUJHyHRqOh1NRU+vbbb2nQoEHUs2dP8vb2pj59+pCXlxcNHTqUPv/8c4qIiCAiotDQUHr77bepR48e5ODgQE5OTuTs7EyPPvooXbx4kfLz82nfvn30+uuv05tvvin6rpycHDp69Cg9//zz1KlTJ/Ly8qJOnTpR165dSaFQ0FtvvUVBQUGi2I6IiKC3336b3n77bdq4cSMtXbqURo0aRd27dyd3d3fq0KEDPfroo/Tll19SSkqK8DkiosDAQBo9ejQNGjSIvvnmG4qKihItlzp8+DA9+eSTNHbsWFq7di1lZGRIVyGqaEcmTJhAvXv3poULF1JISAgtX76cANDEiRPp5s2bBm1zUlISvf766zR//nzavn07vfrqqzRw4EBSKBTUsWNH8vDwoNGjR9PmzZspOztb+Nzp06fpww8/FMXNqFGjyMvLi9q2bUvdunUziBu9F198kezs7Gjp0qVCO33ixAl65ZVXaPny5XTmzBmhfdBoNHTy5EmaP3++QdwMHDiQ3nrrLfL395d8A9Eff/xBzz33HCkUCurSpQv5+PiQl5cX9erVi2bMmEGHDh0itVpNxcXFdODAARo7diw5OzsTAHJwcCBfX1/67rvvKDw8nMLCwujTTz+lcePG0enTp0XfExMTQ8uXLydfX1/y9PSkjh07Cm3q5MmTaffu3aLjFRMTQ8uWLaM333yTNm3aZBA37du3p/79+9Onn35qEDexsbG0ZMkSGjFiBL366qt048YN0fLapLS0lI4ePUqPPPII+fn5UWpqqnQVIiJSq9X0119/UatWrahr16505coV2rNnDw0bNozc3Nxo/vz5VFhYKPpMTk4OnTt3jj744AOaNm0arVq1ipYvX04DBgygdu3aUefOncnLy4vmz59P586dE7WXx48fp3HjxtHixYvp119/pVmzZpGnpyd1796dOnToQH369KG3336brl27JnxGpVLRkSNHaNq0aeTh4UHLly8nIqKSkhLatWsXjRs3jlauXEmlpaXCZwoKCuiXX36h0aNHU7du3ahjx47k6elJXl5eNHr0aNq5cyfl5uYK7SsRUXx8PG3ZsoWefPJJ8vLyIoVCQd7e3tS9e3fy8/Ojjz/+mEJDQ4mIKD09nd58803q0KEDubi4kIODA7Vs2ZL8/Pzo559/JiKiI0eO0MKFC+mzzz6j8+fPk1arJao4NseOHaNZs2ZR165dqVOnTsL++/r60oIFC+jChQtCvoqLi8nf359ee+01oW9Yu3Yt+fj4UKtWrah9+/bk4eFBzz//PP3++++Unp4ufFaj0dCdO3dozJgxVK9ePdq9e7ewzJRbt26Rp6cneXh40Llz5wzGW1QRN//88w95eHiQh4eHEDcjR44kNzc3mjFjBimVStFn8vLy6OLFi/Txxx+bjJsuXboIcVNSUiJ8NiIigl566SV67bXXaOvWrfTSSy9R//79qU+fPuTh4UGenp40ceJE+uWXX4R41Wg0dPz4cYO4UalUtH//fnrqqacM4oaI6PLly7Rw4ULq27cvtW/fnrp27Uqenp7Uu3dvevfdd8nf359UKpWwflJSEv344480fvx4g7jx9fWl9957TxQ3y5Yto06dOpGrqyvVqVNHFDc6nY7+/PNPevnll2n58uWiuCkvL6c///yT5s2bZxA3ffv2pTlz5tCZM2eEfOl9/fXXNHToUPruu+/o+++/F8YnHh4e1KZNGxo8eDB9+OGHoj5db8GCBeTg4ECrVq2ivLw8UX2Rys7OpmHDhlHLli1px44dojisLDMzk8aNG0etW7emDz/8kHbv3k1ff/01ubm5Ua9evejmzZui9XU6HRUUFNDatWtpxIgR9NVXX9EPP/xAI0eOFNqOdu3a0ciRI2nt2rUUExMjfFYfN4sWLaJt27bRK6+8QgMGDBDFzfjx42n79u2Ul5cnfF9GRgZ9++23VK9ePRo9ejRlZWUREVF4eDhNnz6d5s+fT5cvXxaNQfVx4+PjQ+3btycvLy9R3Fy/fl0Ua3LiJjAwkIiIioqK6LfffqOJEyeSm5sb2dvbU7169ahx48a0dOlSys7OpvDwcPr2229p/vz5tGHDBlG7GxMTQ2vWrKHBgwdTx44dqUuXLtSxY0fy9vamxx9/nLZv3065ubnC+iSJm02bNtHo0aMN4kZfH6Tef/99aty4MS1evJiCg4MNfhdWlpubSzNmzCBvb2/65JNPhH2WysvLo6effprc3d1p2bJlQty0bt2avLy86NKlS6L1dTodFRcX08aNG2nEiBH0xRdfGI2bYcOGGcRNeno6bdmyhd5//31avnw5vf322/Tcc89R//79qUOHDuTh4UF9+/al999/nyIjI4XPZWdn08aNGw3iJiYmhmbNmkWzZ8+my5cvU35+vvCZpKQk2rBhAz355JPUrl076tatG3Xu3Jk8PT3pqaeeoq1bt4qOTXl5OV27do0WL15Mffr0oR49elCPHj2od+/e5OXlRc888wzt2rWLCgoKSKVS0e+//05Tpkwhd3d3srOzM4ibqKgoWr9+PS1YsIDWrl0rOlZxcXG0fv16GjZsmEHcDB8+3GBcSxXj7fnz59Pq1avpm2++oVmzZtHAgQPJw8ODHnnkEfLy8qIJEybQkSNHRJ8jItq8eTP16NGDZsyYQceOHaOioiLpKjVGrZlM2r9/P7Vv354GDBhAP/74I6lUKjp79iy5u7uTh4cHffrppxQXFyf6TEpKCg0ZMoQA0MCBA2ngwIHUu3dvGj58OA0aNIg6d+5MDRs2pG7dutH27duFQcTBgwdpyJAh1LFjR+rUqRP5+vrSkCFDaMiQITRgwABq27YtOTg40JNPPkknTpwQBX7lyaTw8HAiItq2bRu1adOGevfuTV999ZUQjHl5ebRx40YaOHAgNW/enDw8PGjUqFE0ZMgQat++PdnZ2dHYsWPpn3/+obKyMtLpdBQeHk6LFy+mJk2aUMuWLWnQoEE0duxYGjRoEHl4eFDDhg3piSeeoGvXrlF+fj6dPn2annvuOWrQoIHww6d79+60evVq8vf3pytXrtD48eMJAL3zzjvCfsTHx9P69evJ19eX6tWrR926daORI0fS6NGjycPDg9zd3WnIkCG0adMmYRCVmZkp/Jhv3bo19ejRg0aMGEG+vr7Uu3dv6tmzJwGgunXr0ssvv0w3btwwOnAjnkwikjGZpNVqKScnh1588UUCQG+88QYlJCRQQkICLVmyhADQCy+8QCEhIQYDyJ07d5KDgwMBoClTptCIESOoV69eNGLECOrZsyc1a9aM2rRpQ/PmzaNbt24Jn9u0aRP5+PhQx44dqXPnzuTn50dDhw6lIUOGkJ+fH7m5uVHdunXp+eefp0uXLlF5eTlptVqjk0kajYaeeOIJAkCvvPIKRUZGCoO369ev07Rp06hFixbUrl078vPzE35EN2vWjB555BH67LPPhDJJTU2lDRs20MCBA6l+/frUvXt3GjNmDI0ZM4Y6d+5MzZo1o27dutFXX31FxcXFFBUVRcuWLaNevXqRo6MjOTs7k4uLCw0bNoyuX79OSUlJtGzZMvLw8KAuXbrQqVOnhDI4cuQITZw4kVq3bk0tWrSgQYMG0ahRo6h///7UuHFj8vT0pLfeeouuX78ufObKlSvUv39/atmyJQ0cOJB8fX1JoVCQn58f9erVi9q0aUMAqFu3bnTo0CHRD4u7NZn0ww8/UMuWLemxxx6jQ4cOkU6no127dlHTpk2pW7dutGbNGkpLSxN9Jjw8nHr27En29vY0dOhQ8vPzoz59+tCIESNo4MCB1KlTJ6pfvz4NGDBAOM5UEct+fn4m46Zly5ZC3Fy8eFH0g37BggXCZJJ+8vqrr74id3d3GjRoEG3btk34sRMYGEgvvPACubm5ieKmR48e9PDDD1Pz5s3po48+EgY3ZWVlFBAQQLNnz6b69euTh4cHDR06lMaOHUsDBgyg9u3bU6NGjeiZZ56h27dvk1KppN9//50mTpxI9erVIwDk5OREAwYMoM2bN1NwcDCdO3eOHn30UQJAmzZtEvYjMjKSvvjiC+rRowe5uLhQ7969adSoUTRy5Ehq164dtWrVih5//HHasWOHMMAJDAykIUOGkLu7u9G4adeuHQGgTp06GcQNTyYZCg0NpY8//pgefvhhGj16NGVmZlJiYiK9/fbb5OrqSv369aPbt2+LPpOamkq//PIL+fr6EgDy8fGhyZMnU//+/en/2Dvr6Kiu7+0/M0kmk0zc3RPi7iEhQIIVlwKluBSXYhVa9FdKKaVQaEspDsUdilvRYIGEIAFClLjrTGZmv3+8c+8aSSB8a4TOZy1WV3PPvXPlOfucs885e8fExFBkZCTp6emRra0tjR07VqGTv3r1arbNGzRoELVr146Cg4MpISGBfHx8yMzMjJydnWn69Ols/0UkEtGRI0dYp8CSJUuIZO3rzJkzCQB17NiRrSOlpaW0e/du6tq1KwkEAnJzc6OOHTtShw4dyN7ennR0dKhz587022+/sX2Vuro6WrNmDUVERJCtrS15eHhQly5dqGvXrhQQEEA6OjoUEBBAS5cupcLCQqqoqKBPPvmE3N3dSVdXl7S0tMje3p5iYmLYSaj58+eTlZUVtW/fnrZu3cra8uvXr9PAgQPJysqK7O3tKSIigrp160aRkZFkZ2dHlpaWNHHiRLpz5w5JJBISCoX0+++/U1BQEAGgTp060ZAhQ8jPz48dTGhoaJChoSH16dNHwTb/Xc6kR48e0f/93/+RtbU1xcfHs7qZN28eGRoaUmBgoIpzorCwkH777TeKiYlR0U10dDRFRUWRgYEBq5uLFy+y5167do2cnZ1JIBBQ+/btKTw8nEJDQykhIYGioqLI1dWVBAIBJSYmsg5riURCJ0+eVNENM6mqrBuRSESPHz+mWbNmkYWFBdnY2LD2MiAggIyNjcnFxYVmzpzJDjyFQiH98ssvFB0draKboKAg0tHRIV9fXwXdfPnll9SmTRvS09MjTU1NFd18/fXXZGVlRbGxsQq6uX37Ng0dOlRFN9HR0eTg4EDm5uY0duxYun37toLdGzJkCAGgoKAg6tOnD/n5+VFISAiFhYWRtbU16ejokJ2dHa1evZo9h+HvcCZdvXqVPDw8yMbGhg4fPkylpaV06dIlcnd3J1NTU/rll18UzpVKpVRSUkIffvghAWAHzKGhoRQREUHt27cnR0dHMjc3p6CgIFq9ejU7CL1+/To5OzuTtrY2tW/fniIiIigkJERFN+3ataPjx4+TVCplf68pZ9KFCxeIy+WSiYkJ7dy5k20309PTWd1YWVlRRESEim6mTJnCTt5JJBIF3bi5uVHnzp2pa9euFBISwupm4cKFlJmZSY2NjXT48GHq378/WVtbE5fLJV1dXTI1NaXPPvuMysvL6cyZM9S3b18yMTGhoUOHsu+gsLCQvv76awoNDSUzMzPy8PCgxMRESkhIYMd8HTt2pA0bNihMwDDvOygoiPr27Uv+/v4UHBysoBsrKytavny5ii7+DmfS7du3yc/Pj8zNzWnPnj2sbvz8/MjAwIB++OEHhXZOKpVSeXk5jR07lgCQq6urgm46dOhAzs7OZGZmpqKbFy9e0OTJk1nnmb+/P8XGxlJ8fDzFxsayddvNzY2++eYbysrKIpJNYjTlTLpx4wbp6uqSQCCgnTt3smPExsZG2rJlC4WFhZGlpSW1adOGEhIS2PG2np4eRUZG0qlTp9jnunXrFs2YMYNcXFzIxMSE4uLiqHv37hQfH082NjZkZWVFCQkJdPHiRRKLxXTkyBEaNGgQ2dnZNambS5cu0cCBA8nU1JQGDBigoJvvvvuOIiIiyNzcXEE3Xl5epK+vT+3ataOff/5ZYRHF999/T7a2tuTj40PR0dEUEhJC4eHhFBYWRj4+PmRoaEgAaOTIkfTs2TOFsazamfQneRNnklQqpcbGRlq2bBlpaWlRjx492Eb7zp07lJiYSNbW1tS7d2+FQS/JvK0DBgwgyJwow4YNoytXrlBeXh4VFhbSnTt3aMiQIWRkZET9+/dnG+Xz589Tt27diMfjkZWVFc2aNYsuXbpExcXFVFVVRXv37qV27dqRo6Mjvf/++3T37l32Nz/77DOCzJmUlpZGRETbt2+nwMBA6tChA61du5adEbh37x7Fx8eTsbExzZgxgy5evEgFBQVUU1ND+/bto/DwcHJzc6NJkybR06dPqaamhpYvX05RUVEUEBBAP//8M1VUVFBpaSm9fPmSzp49yw7oV61aRS9fvqS6ujp68uQJffbZZ8Tj8ah9+/ask6u6upru379PAwcOJAC0aNEi9jn27t3LzphPnjyZrl+/Tg0NDVRYWEiXLl2iGTNmkJGREbVt25YuXbpEJHOO/frrrxQZGUkaGhrk7e1NixYtops3b1JNTQ09e/aMJk2aRNbW1hQcHEzff/+9ipODQe1Mer0zqbKykk6fPk2dOnUigUBAa9asYY+tXLmSeDweRUVF0datW1VmTfft20d2dnYEgHx9fWn16tWUl5dHpaWllJqaSj/99BO1adOGLC0t6eeff2a/086dOykmJoY0NDTIzc2NFi9eTLdv36by8nIqLS2ldevWUUhICLm4uNC4cePYxu7q1atNOpMGDRpEkDkymVUnL168oK+++opsbW0pNDSUDh06RLm5uVRQUEDp6ek0e/Zs0tHRoY4dO7IDiZs3b1JkZCT5+PjQtGnT6OrVq9TQ0EAlJSV0+fJl+uSTT8jY2Jji4+PZQdvLly/pxx9/pISEBHJzc6P58+eznaVnz57RkiVLKCQkhKKioujy5ctEMo2PGzeOdHR0qG/fvnTgwAHKyMighoYGevbsGX399dcUFhZGFhYW9Pnnn7OdjuTkZOrRowcBIIFAQCNHjqSzZ89SVlYWFRQU0JEjRyg4OJiMjY1p9uzZCjbl73Am1dXV0dy5c4nL5dLQoUPZd3Ly5EmKiYkhGxsbGjJkCD1//lzhvKdPn1KnTp0IABkYGND06dPp7t279PLlSyooKKCrV69Sjx49yNTUlMaMGcM6MA4fPkzx8fGkqanJ6iYpKYnKysqovLycNm3apKAb+WeUdybl5OQQEdGaNWvI19eXunfvTjt37iSxWEz5+fn07bffkqOjI/n7+yvo5tmzZ/TFF1+QQCCg2NhYOnXqFEkkEsrJyaH58+ezHYB9+/ZRdXU1FRUVUV5eHh0+fJh8fX3J2dmZduzYQSUlJVRbW0spKSk0efJk4nK51KdPH8rNzSWpVEqVlZWUlJREnTt3Ji6XS5s2bWKf49dffyVPT0/y9fWl2bNn04MHD0goFFJOTg6dPXuWxo4dS3p6etStWze2jXvy5An179+fuFwu8fl8Fd2cPHmSIiMjycDAQEU3ameSKgcPHqQ+ffqQt7c3ffzxx+zAetu2bWRtbU2Ojo60d+9ehQmiwsJC2rNnD8XGxhIA8vT0pEWLFlFqaiqJRCJKT0+nb7/9liIjI8nMzEyh3m/cuJGMjIwIAIWHh9OGDRuouLiYiouLKTk5mVasWEH29vbk7OxM+/fvJ7FYTI2NjXTs2DHWKbB48WIi2eD1yy+/JC6XS3379mU7nnfv3qWEhARycHCgQYMG0ZEjR6impoZdXdmzZ0+ysLCgbt26UUZGBpHM9iUkJJCWlhbNnj2brl+/Tvn5+SQUCikpKYmmT59OgYGBFBMTQ0eOHGHfxYYNGygsLIwiIiJo3rx5CgOhBQsWkLe3N/Xu3Zv2799PUqmUsrKyaNGiRWRjY0NRUVF0+PBhyszMpOLiYioqKqKffvqJgoODyc3NjSZOnEjZ2dlERHT27Flq3749ASB7e3uaM2cO3blzh2pra+n+/fv06aefkpubGxkbG9O3337L3oNEIvlbnEnHjh2jAQMGkLe3N02aNInVzZ49e8jR0ZGsra1p+/btCropLi6mAwcOUIcOHVR0IxQKKSMjg77//ntWN5988gnbz7l79y5FRkYSADI3N6fPP/+cHjx4wNrZM2fOUExMDFlaWtL06dMpJSWFpFIpnTt3TkU3FRUV9NVXX5GWlpaCbl6+fEmLFy9mV++uXr2aiouLqby8nO7evUvLly8nOzs7cnJyopMnTxLJNNirVy/S0NCgqVOnKujm7t27NGvWLAoODlbRzbZt2ygyMpLCwsJUdPP111+Tj48Pde/endVNXl4eff311+Tg4EChoaEKuikpKaENGzZQeHg4ubi40IQJExRWWTATaQCob9++dPz4cSosLKTMzEw6dOgQ9enThzQ1NWnkyJGUmZmp4Bj4q51JWVlZtGrVKrK2tqbQ0FDWUZ2fn0/x8fGkq6tL48ePp6tXr7LnSKVSKi0tpSlTprDPMWDAADp79ixVVlZSbm4uXbp0iSZMmEC6urrUqVMnduIqJSWF1Y2JiQm7SlpeN+3btydzc3PWgUuyvmRTzqQrV66QhYUFubu704EDB0gsFlNFRQUtWbKE1c23337LOg7ldcM4z0imQXndXL16lfLy8kgoFFJKSgqrm4iICNqzZw/7Lq5cuUIff/wx+fj4UNu2ben3339nj506dYqGDx/OjpEYh+KVK1fIT7Zyd8GCBXTt2jUqLS2l2tpaOn36NI0ePZrs7OwoKChIwRE9bdo09n336NGDDh8+TAUFBSq6+eCDD1ScAn+1MykrK4t++uknsre3Jz8/P3Zsm5+fT126dCE+n0+jRo1ix14k001lZSXNnj27Sd3k5eXR5cuXadq0aSq6yc/Pp3nz5pGDgwNpamqyO1WePn1KtbW19PjxY5o6dSo5OztTWFgYrV+/nkjmXG7KmXTnzh2yt7cnBwcHOnDgANXW1pJIJKIrV67QBx98QAYGBjRy5Ei6f/8+5efnU0FBAf3xxx/UoUMHEggE9Omnn7IOq+XLl7OTfCtXrqScnBwSCoX0/PlzOnDgAPXs2ZP4fD7rPCciSkpKorlz55K/vz9FRkYq6Ob8+fM0evRocnd3pzFjxijoJiQkhO27y+vm/Pnz9NFHH5GDgwP5+voq6GbTpk3k4eFBAMjNzY2+/fZb9rlevHhB//d//0dGRkYUEhJCW7ZsUeibtCZnkurG71aGSCRiYxXxeDwEBATA398fAODo6IiEhATo6uri3r17yM3NVT4dJAtoZWVlhcDAQMTExMDGxgYWFhYIDg5Ghw4d4O7ujrS0NPzxxx8Qi8VsXBWJRAIrKyskJiYiLi4OZmZm0NfXR3x8PHr37g0dHR1cunQJGRkZ7O8p79+GUmA7DQ0NaGlpobS0FH/88QeePn0KMzMzdOvWDe3atYOlpSUEAgHi4uLYTEV1dXWora2FhoYGDA0NERMTg5EjR6Jfv34wNDSEiYkJrK2t0bFjR1haWqKsrAy5ubmorq6Gjo4OXF1d4ejoCA0NDRgbG8PLywuQxfOQv19mr2ZNTQ1u3LiB1NRUeHp6YtiwYYiMjIS2tjYsLCwQFxeHTp06wczMDC9evGCzhvF4PGhoaEAiCygYGBiIPn36ICwsDAKBAK6uroiLi4OnpycKCwv/tTS17wo1NTW4cOECSkpKEBYWxtYLAPDz80NgYCByc3Nx5cqVZgPvcblcBAQEIDIyEjY2NjAxMYGvry8ba6KhoQG3b99GWloaIKcRiUQCR0dHdOvWDSEhITAyMoKJiQkSExPRvXt3iEQiXLx4EXl5eYCsHsrvMWfgyuLEcDgcdj/xrVu3cP78eWhpaSEqKgrt27eHra0tLC0t4e7ujsTERLRr1w5mZmZsUEk9PT14enqiZ8+eGDFiBKKjo6GtrQ1TU1O0bdsWwcHBkEqlbAwlALC2toadnR1MTEzA5/Ph5OQEAwMDQPZumHrL5XKhLYtVdeXKFaSmpkJbWxvx8fHo06cPnJ2doa2tDVdXVwwePBgxMTEoKipCUlISmzCAeTYdHR3Y2dkhJiYGHTt2hIODAywtLREfHw8/Pz9oa2sjKysLL//GbGo1NTVITk7Gs2fPIBAIEBwcDCcnJwCAp6cnOnbsCA6Hg3v37jUZwJ2xqba2tggNDUVQUBCsra1haWmJ6OhodOjQgQ3knZSUBCJiY9CIxWJWN+Hh4TA2NoaRkRESEhJY3Vy4cAE5OTns771KN/LxD+7evYuzZ8+Cw+EgMjJSQTeurq5ISEhA+/btYWFhgbKyMtTX10NTUxMmJiaIj4/HqFGj0LNnT+jp6cHc3Bw2Njbo0KEDTExMUFxcjLy8PDZugLu7O5vhz9zcHLa2tuBwOAqxb5h7gyzu1bVr1/D48WM2E52Pjw94PB7s7OzQsWNHdOjQAQYGBkhPT8e1a9fYeDKQxWyysbFpUjf+/v7Q0dH523XzLpCamork5GR4eXmhQ4cObIyT6OhouLq6orq6GklJSQptOmQaZGxoUFAQOnfuDF9fX2hpacHd3R1DhgxBfHw8SkpKcPv2baSnp6O+vp6NLcHn8xEUFITIyEiYmZnBzMwMgYGB6N69Ozw9PVFVVYUbN27g6dOnbLwZZZg4DYyumHp49+5d3LhxAwYGBhg8eDA6deoEgUAAAwMDJCYmol+/fmjTpg2IiA1AS0Tw9vZG37598cEHHyAyMhJWVlbg8XgIDw9HcHAwtLS08OzZMzZuC2QZlJhr29rasn0J5prydZLD4eDGjRu4ePEi9PT0EBsbi44dO8LR0RFmZmYwNzdHx44dkZCQgJqaGpw7dw7Z2dns9Zi4FiEhIUhMTERwcDB0dXXh7++Pbt26oU2bNigvL1fo9zVlK/4KHj58iNu3b8PNzQ0JCQmsbmJiYuDu7o66ujrcvHlTQTfMt2LiZcnrhsfjwdnZuUndQBYDhMHR0RERERHw8fFh7Wy7du0QHx8PY2NjXL16FXfv3lVoQ+WR1418f+/ly5c4ceIECgsLER8fj44dO8LMzAxGRkYICgpC37590bZtW5iamqK+vh719fWQSCTw9PRE7969MWTIEAXdBAUFsXGGlHXDxBPS19dX0Q3TD5HXzc2bN3H+/Hloa2uzNo/RjampKTp06IBOnTpBKBTi3LlzChmdmT6lra0tIiMjERcXBwsLCzg6OqJXr16IiYmBWCxGdnY2Xr582WTf6K8iPT0dV65cgZGREaKjo+Hi4gLIxiMREREwMzPDjRs38PDhQ+VT2edwcnJCWFgYIiMj2XoXFxeHhIQEWFpaIjs7G9evX4dQKGTfH2QBqsPDw+Hv76+gm/bt28Pc3JyNowq5/oky8rphrltYWKigm4SEBFhYWMDQ0FBBN+bm5qivr2djycjrJjo6GjY2NuDxePDz82N18/z5cxQUFLC/7+joCGtra+jp6cHAwEAh/pl8H43pAxQXF+Py5cvIy8uDs7MzevXqhaioKJiYmEBXVxcJCQn44IMPYGFhgeTkZNy9e5etn8zz2draIiIiArGxsbC0tGxWN/V/Yza19PR0/PHHH9DX10d0dDTc3NwAOd1YWVnh1q1bSE1NVT5VQf/yurGxsUHbtm3RqVMnBd0wcU41ZDHOeDweQkND8d5778HNzQ26urpo06YNevfujaCgIKSlpeHGjRuora2FRCJp1ubK60ZbWxvV1dU4ffo0UlNT4ejoiLi4OPj7+8PKygqWlpaIjY1F586dERISApLFOoOsfxUREYFBgwbhgw8+gJ2dHXg8HlxcXJCQkABHR0c0NDQgNzeXbTOcnZ1Z3ejr66vohrk3TVl8N0Y3OTk5cHBwQI8ePRR00759e3z44Yews7PDgwcPcOfOHVY3THvN5/PRpk0bJCQksM/l5OSEmJgYuLi4oLa2Fs+ePXtt4o23FVXPRitDKBTi8uXLePjwISwsLGBmZsYeq6urg5OTEwQCAV6+fIlHjx6xgWEh69wIhUKYmZmhY8eOTWYrCwoKQseOHVFdXY3U1FSIxWJwZE4fKysr+Pv7Izw8XOEcQ0ND9OjRAz4+PigsLFQY+Mg31k3BGD6mkeHz+YiKilJwBECWBrhv374YOnQooqKioKenBz6fj3bt2mHIkCF47733QHIZherq6vDo0SMIhUIIBAJIZQHHIQvCzQTnbmhoYLOoMBWPMQY8Hg+NjY24d+8enjx5wg6Yw8LC5O7s/+Pr64uoqCgIBAIkJycjJycHmpqa7MDRysoK7du3h6+vr8J5NjY28PHxgaamJmpqatgOsZo3p7S0FNeuXUNVVRW8vb0VtKehoQEPDw+Ul5cjOTkZxcXFCudKJBIIhUJ4enpiwIABcHV1VThuY2OD6OhoeHh4ICMjg3UmQaYTOzs7BAUFITg4WOE8W1tb9O7dG46OjsjNzUVeXh6bJe11dYPpQKekpCA1NRX+/v6Ij49nA/ox+Pr6YuLEiejZsycsLS0hFothb2+P0aNHY+DAgbCzs0NFRQWqq6tRWVmJZ8+eoaSkBFpaWtDR0WE7AUKhEDU1NWhoaIBEIlHIWKHcQPJ4PJSVleHChQuoq6tDdHQ0IiMjFcpAlnY0ISEBpqambLB/iUQCrizon5OTU5N1isfjwdHREba2thCJRCrZQ+RRvjdlXne8srISFy5cwPPnz2FtbQ1jY2P2GHOP2trayM3NxaNHj9jvB1lDLBKJWCe7t7c3e4whIiIC0dHRrE1m6riWlhZsbW2b1I2FhYWCbuQHiK/TDdMRfvjwoYKjQFk3np6eGD9+PPr27QsrKytIpVKYmJggISEBQ4cORUJCAqqqqlAjy8JRX1+Px48fo7GxEbq6umhsbGQHHoy+IGuHmGdsyqaKRCLcuXMHz58/h4GBARISElTsIgAEBAQgIiICmpqauHPnDoqKiqChoQGxWAwHB4cmdaOlpQUHBwfY29v/ad2869TU1ODx48fIysqChYUFLC0t2QDVTHsvkUhw48YNdlAPufcmFouhq6uLLl26qPQJrKysWCdqcXExUlJS2KCdjY2NCAgIQL9+/WBra6twnrOzM9q2bQtHR0c8fPgQz549Y/sfeMU3Y9paJtBnfX09/P390bVrV9bxDQDGxsbo0qULRo4ciS5durApmgUCAYYOHYqpU6fCwcEBIpEIFRUVEIlEbJIRiUTCOogYKisr2QD61dXVbIcfSvfK1Ekmi1V4eDg6duyokgjAxsYGPXr0gL29PdteMPVKKBTCwMAA77//PhISEthzxGIxXF1d2SQOjKMDr3hfb4LyNZig2S9evICZmRmsra1Z3XA4HFhaWgIAkpKSFHQDWR9ULEvK0JRuzMzMVHRDRNDQ0EBjYyOcnJyQkJAAd3d3hfM0NTXRrl07hIaGIjMzk81ozHwr5WdgkP+WeXl5ePjwIQwNDdGrVy/Y29srlHVxccGwYcMwdOhQWFhYoLa2Fnw+H4MGDcL06dPh4uKioJtnz56xgdGVdcOUaalumKDJwcHBSExMVNGNhYUFunfvDmdnZ+Tm5io40RmHaZcuXdCpUyeVdsDd3R06OjoQCoWsnpujufcIpWPNlUtPT8ft27dhamoKFxcXlJSUALK+m52dHSwsLPD48WN20gly12L67x07dkTXrl1VHD6+vr6IiYmBtrY27ty5g+LiYlY39vb2SExMRJs2bRTO0dTURGxsLCIjI5GTk9Ok87IpmG9ZV1eHly9fKujG2dlZoSyjmxEjRsDGxga1tbXQ0tJqUjdCoZAN3t6UbqqqqlBbW8vaHPl+rPw715AFbE5NTcWNGzdgY2OD+Ph4lXaWw+GgQ4cOCAsLg4aGBtLT09l3z+igS5cu6Nq1q0pQdHd3dxgYGEAoy6T6Kt28CU1pJz09HTdv3oSBgQHc3NxQJsv8WFpaCmtra1hbWyM9PR2PHj1iz2Guw+g/Pj6+Sd14e3sr6KagoACampqQSqXQ19eHu7s7wsPDVZ4/LCwMiYmJICJkZmaisLAQ9fX1r+2fQfZ9qqurcfXqVVRVVSExMVFlzAvZu584cSJCQ0PZZAaxsbH46KOPkJiYCB6Ph4qKCtTV1aGgoADp6els/5TD4bBtR3V1NWpqalib01LdmJubsxN0yrRt2xYRERHgcrkKupFKpdDS0kJgYCDat2/PtksMRkZGcHFxgb6+Pqqrq9nv0xRNaeFt4fVf+S1HKpXi/v37ePjwIRoaGnDlyhWsXLkSK1aswIYNG3Dx4kUUFRVBJBLh0aNHbKR7BolEAl1dXdja2qpEvoess2VtbQ2RLHWpWJbBicvlwtLSEpaWliqVRUtLCzY2NjA1NQVk6VRbOmDmyGaJKisrUVxcDENDQ9jZ2alUeD6fD0dZlrouXbrAShbt38PDA3p6erh+/Tp++OEHTJ48GcOHD0ePHj0wYsQIXLx4UWF2/E1gOr6FhYUQCoWwlGXdaApNTU1YWlpCV1cXZWVlqK2tBUeWxUhbWxvGxsZsx1UexosrlWXwUPO/U1hYiMzMTGRnZ+Pp06fYv38/VqxYgRUrVuDAgQN48eIFamRpNDMyMlgnK4NUKoWenh5sbW2bzEJibm4OCwsLVMulMWYMp7W1NczNzZVPAY/Hg42NDQwNDSEWi1FSUoKKigpQMyuT5GGOl5eXo6KiAmZmZrCyslI5z8zMDNHR0Wjfvj38/Pygq6sLPT09eHt7o7y8HJs2bcKXX36JkSNHYsCAARg+fDhWr16NkpIS6Ovrq1yvJWhoaKBeli1JS0uLnaFvCj09PRgZGUEqlbLpWDmyLBa6urowNTVlV5zIwzRsEonklXXjdQ7Y1x1vaGjA3bt38fTpU9TV1eHs2bNYvXo1li9fjq1bt+Lq1avsyp3U1FQ8f/5c4XyJRPJK3ZiZmbGDj7KyMkilUkhlWfFaqpvS0lJWr6+zZcz3rKioQHl5ObtSU/k7m5iYsCvd/Pz8wJdlEPT29oaWlhYuXbqEFStWYPz48Rg6dCi6d++Ojz76CLdu3YJAIGBtd0vhyGZNGxoaUFBQALFYDCsrKwXnnTyME57H46GkpERBNzo6On+7bt5lqqurcf/+feTl5YGI8PjxYxw6dAhr167FDz/8gF9//RWZmZmoqanB/fv3FZyZJEsDraWlBX19/Sb7EZA5aCwsLMDlclFcXMx+P6lUCkNDQ9ja2qoMbDkyZ4SpqSnK5VIwMzpr7psxx5kMc3p6ejA1NYVWE5lgTE1N0blzZ/Ts2ZOdjDM0NISTkxNEIhF2796NOXPmYMKECejevTs+/PBDrFu3jh1oNqW5llJaWorq6mpYWVnB2tpa+TB0dXVhaWkJAwMDiMVilJWVobKykn3nGhoaTb5vph8BmT2S7/P9WeTfOaMbZsLwyZMnOHLkCKubdevW4fnz56itrUVKSkqTq+O1tLTYNqEp5HVTVFSE+vp6tt63RDdVVVXsBOHr7BNzXYks07FIJIKRkRHs7e2btOURERFs9lVTU1MYGBjAwcEBRIT9+/cr6Gbw4MFYu3YtO8D9M7phdGBhYaHigIVsha+lpSXbXpSVlSlogMPhwMjICIaGhirvhCuXMUwsFjdbx/CK+gelY02Va2xsRG5uLl68eIHc3FwkJSXh559/xqpVq7B27Vpcu3aNtRN5eXlsJjHI7p9Z9WFubg4rKyuVMYK2tjbs7OzA5/NRXFyMuro69vsyK5iU+yjM9czMzNhJk5bAvMPy8nIV3Sg7HSDTTZ8+feDt7Q0zMzMV3XzyySeYNGkSevbsiYEDB7K6kcpWxjA09V6bgitbAVNWVoaSkhJYWlrCVrZauCmMjIwgEAhQU1ODclm2b7RAN1wul60/Lb2316F8HUY3GRkZyM3Nxe3bt7F+/XpWN5cvX0ZRURGEQiHy8/MVdAOZPYSsH9aUbpjJYGXdSCQS6Ovrw87OTkU3kPVrra2toa2tjZqaGhQXF7POJOV31RQikQhFRUUQi8Wws7Nr0h66uroiPj4eMTExcHBwAGQTLnZ2dkhOTsZ3332HmTNnYuDAgRg4cCAmT56MQ4cOAbK25E3hyPp0jG7Mzc1hZ2fXbJ/T0NAQenp6rG4YuFwujIyMYGRkpPIuOHIrRv+Mvfm3afqNtCJyc3ORmpqK6upqmJmZobS0FGfPnsX58+dx+/ZtZGdnQ1tbGwKBAHfv3sXNmzcVGhVm8GtoaMh6OuXRkqUGlMhWajBwOBwYGhrCwMCgyQ66tiyNNWSDszeZGePIlszX1tZCR0cHhoaGCgN9kg28+Xw+LCwsYG9vD4FAgPr6eqSlpeHEiRM4evQorl27hqdPnyI7OxuVlZWQSCTQ0NCApiz9YUvuRR6OrONbXV3NdoCbcghBdo/asjTbJOv4MX/X0tKCrtIWOvnz5P+peXOICC9fvmRnvyFrgB4/fozz58/j/PnzePr0KfstamtrcevWLTx+/FjhGozjz8DAoMmOn7a2Nvh8PhobG9m6QXIdfIFA0GQnntEFZLPGzGqOV+mRI+sEQXYOs8JOT09PQSdMfTY1NYW1tTVMTU3B4XDw8uVL/PHHHzhy5AhOnz6Ne/fuISsrSyEVqvxvvSkcWfrU6upq9veVG2kGpg4y9Un+/hl7o3wPyvX/76wbWVlZSE1NRW1tLczMzPDy5UucPn0aFy5cQHJyMvLy8qCrqwttbW0kJSXh3r177LnMvfF4PBgZGTWpG54sZfOf1c2b2FTI7LBIJIJAIIC+vr6KbjRlW9oY3WhpabFb/n7//XccPXoUN2/exPPnz5Gbm8uu5pT/nm8Ko5uqqipwZB1V5hmVISLWwSWvAaYe6yil9Iacbpj683fqpjVTXFyM8+fPo6CgAHw+HzU1NXj48CGuXbuGU6dO4datW6ymq6ur8eTJE3YVAeO00JSl95X/fvLvm8vlsn2MetmWIKYMY2eVnT0SWbp2bW1tdhYVLdA8871ra2vR0NAAHR2dJgcAkN2/jY0NnJyc2A53WVkZrl27hiNHjuDMmTO4c+cOXrx4gYKCAnYlgfYr0qK3BJKlgBaJRDAwMIC+vr6CnYPsOXg8Hlu/SNYuyR9XfmeQe+/M/f1dumd0k5ubC21tbdTLUmEzurlx4wY0NDRgYmKC+vp6Fd0Q0RvppkG2SpYpo6OjAyMjI5W2hmm7tbS0IBQKXznbLQ/zvmpqalBdXQ2STXAYGBgofGvm/kxMTODo6AgTExNwZJOgN27cwOHDh3H69GkF3dTU1LDP+lfoRigUQl9fHwYGBk3qRksuTbdUNmHBnA9ZO6QpW3Ehj1S2PUq+7F9NXV0dUlJS2IkYLpeLsrIy3Lx5E2fOnMH169dRWlrKtp/MliP5FVskGwcw/aCm3qmOjg40NDQUdCOVSsHn82FkZKRSdxjd8GQrZt9UN7W1tWy72BLdmJqagsvlokYWOoPRza1bt5CRkYH8/HxUV1ezumlqzNBSOBwO228wMDBgHY1NwTijle0NZLrRkttGzMDohrFTysf/CuR1Q7JVWhUVFbh16xarm+LiYva75ubmKuiGuTfInNRN6YaxK4xumHdEsv6HiYmJim4YtLW1oampCbFYjLq6OjQ2NqpcXx75YxKJhF05bWho2KQ9FAgEsLS0hJWVFQQCASQSCdLS0nDq1CkcPXoUly5dwpMnT5Cbm8tOcP+Zvj3zPRndMJNFTY35oTSJoawbpl4pn/tP2Jt/gv+9Zr4FVFRUIDU1FUVFRdDR0YG/vz98fX3h5OQER0dHODs7w8nJCZ6enrCyskJGRgYePHig8jEZg9HUh2S2upBsgCQvRvkGSpka2fYYyBkfvKFYOLJGUPl+m6OgoAArV67EypUr8fDhQ7i6umL8+PFYsGABdu/ejV27dqFLly5obGxs0ki2FMagS14x0y2RSFBTUwOJRMI66uQb8+be999lhP9LSKVSPHjwAPfu3QOPx4Obmxu8vLzg7u4OR0dHODo6wsPDAz4+PnBxcQERISUlRWUJPl7zrerr61FXVwcNDQ0Vp8Gr9FVbWwuhUAgul6tQN1oKR7aio6n611xjcePGDcybNw979+6FQCBAly5d8MUXX+CHH37Atm3bMH/+fNjZ2bGz3v8LHNn2E5LNaCrfG4NYLEZNTQ04cs6DltYNyDVwfzVEhOLiYqSlpaG0tBRGstgYPj4+cHR0hJOTE5ycnODs7AwvLy+YmJggPT29Sd1ApsOmnoPRDfP95RvSpr4pQ3O6aeo3moKxW03Z1ObeZ3p6Or755husWbMGL168QEBAAKZOnYolS5Zg//792LJlC+Li4thOd0vvRZ6W6kYikbDLtN9UNyQbeDT3nP91SktLcevWLdTW1sLDw4ONI8j0JVxcXBASEsIuUc/IyGDjaSjbL/lvIP++mTZRLNvWJD8wetX3Yzqympqab6x55vdfVa+UqaysxO3bt/H9999jw4YNICK89957mDFjBn799Vds3LgRs2bNQmhoKCC33eZ/gZnUEovFKnUSskkQpi+loaEBAwMDdgDEvIOm3gWj+b8bRjdVVVVwd3dvVjfMdl9l3cjbvpbohieLXSL/7M3ppq6uDvWyuFyMbuR/71XI2wqS2SXl48pUV1fj7t27WL16NX755ReIRCIF3WzatAlz585FREQE8BfpRtLMqjOxWMw6UhndMH0U5tmbqxPNfYe/kvLyciQlJSEnJwdGRkbw8PCAt7c3XFxc4ODgAGdnZ3h7e8PT0xNmZmYoKirCnTt3WEek/H0xGlCGGZwz9oYZ5DJ151W6YdpnZd28DkY3zG8of5umrlNTU4N79+4p6KZr166YOnUq1q9fj82bN7O64crFGHtTSC5mW3O6YWAWAMg7xN5EN38X8roxNDREmzZt4OXlpaAbHx8feHl5wdzcHCUlJW+sG6lUqqKbltgbyLQjlU3MMbbqTWDKSySSJu9NmerqamzevBkLFy7E3bt34e7ujhEjRmDZsmVYv349Nm7ciOHDh4PD4bCOqjflf9GNjo4ODGTxVV+nG8iVaap+tBZatTPpyZMnuHHjBhoaGhASEoJBgwZhyJAh6NWrF3r37o0+ffqgb9++GDhwIOLi4iAUCpGWlsYGceTKAmwJhUIUFRWxzh95qqqq2Hg/JiYmbCMmlUpRVFSEsrIylRVNRIT8/HwUFRUBMi88I6zmxMRAsk4FM3teXl6OwsJCBS8th8NBoyx20Y4dO7B+/XoUFBSgpKQE586dQ1VVFRISEtCrVy907doVnTp1gqurK9zc3GBgYMBWKmY2i/lNks2yM7/FCFu+Msi/h8LCQtTU1LD3JQ+Hw8GLFy9QXl7OLjd+3bMr05or1r+JhoYG7ty5gzt37sDR0RHdu3fHgAED0L9/f/Tu3Ru9e/fGgAEDMGDAAHTp0gWWlpa4d+8e7t+/z16DI3PY1NfXqywRZyguLkZubi50dXXZrTmMNgsKCtgZJXnEYjHy8vLYxs3c3Jyd1XyVPuQbL4FAAG1tbZSWlqK8vFzhNzgcDgoKCrB9+3Zs374dFy5cQFpaGu7fv4+0tDQ4ODhgzJgx6Nu3Lzp16oT4+Hh4enrC2toaPB4PUqlUoQFk6gWnmRlwBqls+bWRkRFqa2uRnZ3d7PMUFRWhvLwcfD4fdnZ20NLSguQvXBb9Z0hJScGtW7cAAJGRkfjggw8wePBg1qb27dsXffr0wcCBAxEZGYmqqiqkpaWxQTE1ZFuq6urq2CXLypSXl+Ply5fsrDqjNYlEgsLCwiZ1I5FIFHRjZmbGDg6ae88MzHvV0dGBjo4OysrKUFZWpqKbkpIS/Pbbb9i0aROuXLkCsSyY5tmzZyEWi9G1a1f06NEDXbt2RWJiIhwcHODn5wcdHR3U1taCK9sewfwm84+ZHVeGZB0zHo8HExMTEBEKCwvZLdHKSCQSZGRkoLq6GtbW1hDIYt+p+fNkZmbi7t27MDIyQr9+/dC/f3/06dMHffr0Qa9evdC3b18MHz4c3bt3h7W1NbKysnD58mWUlpayK8JEsphUTfUjIOtLMLEZLCwsoKOjA6lsVrKuro7d8imPtrY28vPzkZ+fD0NDQxgaGgItGLgwNsvQ0BACgUBhq5MyOTk5+PHHH7F69WqUl5ejvLwcV69exdOnT2Fqaor33nsPgwcPRmJiIsLDwxEVFcVuj+AoOSgZzTMD0VfZTI5sVQWPx0NxcTHKy8vBVVp5IBQKkZ2djXJZEFhTU1MYybY/MO/qde8Cf3FfQv4eGd0IBAL07dsXAwYMYG1kr1690KdPHzbMgL29fbO6qaureyPdMN+3uroaxcXFKu+AK9sSV1hYCD09vTfSDQAYGBiwbXp5eTlKSkqaPPfAgQNYvnw5UlNT8ejRI1Y3hoaG6NKli4JumCQeGhoaf4lu+Hw+SkpKUFZWpqIbkUiEnJwclJWVgcfjKcRSbeo5/gnkf7esrAznz59HcXExoqOj2Ta1T58+7Nhl0KBB6NOnD6Kjo1FXV4fLly8rJLzgyrZUMTFPld8ByWLXVFVVwdTUVEE3tbW1KCoqUrE3XC4XJSUlyM/Ph0AgeGPdGMoS/kBON8q/AZluli1bxsZfVdbNBx98gMTERERERCAiIqJZ3UDutzWamNRkYMro6elBIBAgPz8fxcXFCuMqBrFYzI4H5UMpNOXs/qeR1w2zxZTRCaMbRkexsbEQiUQKuuHI+lqQi5WrrBsOh6OgG11dXbZu1tTUID8/v8l3UVNTg7y8PNTU1EBXV5ddPSR9hfNJ/u+amprs6tSCggIFpyHzzZktfUeOHGET/yQlJbHB3seMGYPOnTujU6dOiIyMhJeXF4yNjdnzlftnzN9aqhvGpuo0syNHWTeQ21b4rtOqnUlMBg1TWfaGLl26ICIiAp06dUKnTp3QoUMHdOjQAf369UNiYiLMzMyQk5ODe/fugWSOEx6Ph6qqKjx69AgvXrxQ/gk8fvwYDx8+hImJCTw9PaEpC2wpkUiQn5+PjIwMNisFI7z8/HzcunULL1++hJFs3zBDc8JizmWubW1tjTZt2qC2thaPHj1ijQFjmDMzM7Fv3z6sWbMGv/32Gx4+fAihLPCbg4MDunfvjtjYWJiZmbHOrhcvXiA7OxtCoRCNjY3svTAGmiNzBDDOJsYIMBVRIlty7+zsDDMzM1RUVCAjI4P1Rss/R3Z2NtLT0yEWi9GmTRtYWlqqDJibMzAMrzuuRhHmO1VXV7PxGYKCgtCzZ0+0b98esbGxbN1o27Ytm1nNy8sLBQUFePjwIbvPV0M2m1lUVMQGUJenuroajx8/RkFBAezt7dksJIyGmD3dVVVVCudlZWXh5s2bKCsrg4WFhcL+66Y6HfIwemBmfXNyctgtrvLcuHED33zzDTZu3MhmwGGWvEZHR7MZkph6kZmZiZs3b6KiooJdosvA1AupXMD6phCLxdDX14eXlxe4XC4ePnyo8s4aGxvZLWRisRi2trZscMrm7MI/iVgsxt27d/HgwQPY2NggISEBCQkJiIqKYnUTHx+PxMRE9O/fH/Hx8TAwMEBGRgab9UVLSws8Hg/l5eVIS0tTeQdSqRRpaWl4/vw5bG1t4ebmxur2VbrJyclR0I28TW1KN/K2gzlub28PZ2dnvHz5sknd3L59G99++y3WrVuHu3fvoqioiF227+bmhh49eiAiIkJh+15KSgpevnwJkUiExsZG9rfkbSpzDE3YNIlEAoEsk6WRkRFKSkrw7NkzBfssb/OfPn0KDocDLy8vGBkZQSy3x1752mpej1QqRVlZGR49eoSCggK4ubmhf//+6NWrF+Li4pCYmIhOnTohISEBISEh7H9ramrYTiwzyJFKpaiqqsKzZ8/YmV3IdF1ZWYlHjx6xHXQ3Nzfo6elBKnNev3z5Evfu3VPJtldQUIDHjx+jtLQUrq6usLOzAzUzoyyPRBZPxd7eHo6OjiAiZGdn49mzZwq2Jjc3F+fOncOyZcuwdu1aFBcXQygUIjMzE7q6uggPD0diYiK7lQmytv3+/fvIzMxUuQ9G8xJZWIDmHCSMVp2dnWFra4uMjAykpqaqlGdsc50smYp8jEr6h1YfKcP8fnl5OasbZ2dn9OvXD71791bQTaIsy1xiYiJCQ0MVdMOVm5isrq5W0Y1Ytm1aWTfMORoaGigqKkJaWhqbFZWhvr4e9+/fR3Z2NrtCHy1oZ6RyWy7s7e1haWmJyspK3LlzR8WWZ2dnY82aNViyZAlSUlJQWFiIFy9eQEdHB6GhoSq6efny5St1w5VNKDSlG2Ub5+joCHt7e2RmZiIlJUWlfHZ2NpKSklBdXQ0nJydYWFiwx5R/+5+Cea+QvQsmw17nzp3x3nvvISIiAgkJCaxuIiIi2MlgPT09PHr0iI1/Q7KtzUSEp0+fIjU1lY2nxjxfdnY2Hj9+DCJiB9USWagLZgWycgyv+vp6pKSkIDMzEw4ODgq6eVVdY37T2NhYRTfymfQgpxtmNUlhYSEyMjIUdOPk5MQ6AIuKil6pG45s1VBjYyPqm8mgJpWtCmH6qoWFhQr9XebZqqqq2JU/AoEATk5ObEwu5d/+p2hON4mJic3qpkuXLujcuTOMjY0VdCOVhYEAgOfPnzepm5ycHAXdmJqaQiJLElNVVYWMjAwVWyAWi/HgwQOkpqaCy+XCzs6OnfB6nc1h0NXVhaenJwQCAR48eKASi1MqlWLfvn346quvcOzYMTx48ADZ2dmoqamBiYkJ3nvvPURGRrJ9w9raWty5cwdpaWmsXWP6YYy9gax9bqluiouL8fDhQ3ahCKOb6upq3Lx5E1lZWeDLMj8zumnp87d2WrUz6cGDB7h//z4cHBzg7++vMpvNYGBgAB8fH5jKMihdv34dL168gJYszkR1dTUuXbqE33//Hbdv32YHENeuXcOePXtw+fJlODo6om3btgqrCGpqanDnzh1s2bIFqampEAqF7LV+/fVXZGVlISQkRCFAoHxHgRGiVCpFY2Mj+08kEsHLywsdO3YEj8fD5cuXsWPHDqSmpqKqqgolJSU4f/48fvvtN+Tn5yMsLAzu7u7gyfZjZmZmIjk5mR1A19TU4MiRI1i8eDFu3LgBrmzlQINsHzVXtoRPLBYjPz8faWlpqJVlSCC5paoNsoChPj4+8PX1haamJo4fP47169ezFb+hoQF//PEHNm3ahMePH8Pa2hpxcXEwNzdnB1XMv6aMM/N7IpFIYVCv5tVw5VZFpKWlsc7FoKAglewB8nh6esLX1xdSqRTp6em4d+8eampqoK2tDR0dHeTk5GDLli04e/YsSktLIRKJ8OTJE2zatAknTpxAXV0dQkJC2EyIUtkWooqKCly5cgWbNm3C8+fP0djYiJKSEpw6dQqbN29GVVUVwsPD2WDLJEtLLRKJFHQhlm37kcgtLw0LC0NERAQePXrE1k8muHJSUhL27duH1NRU6OnpITw8HE5OTuzgXz4zChHhyZMn2L59OzZs2MDWF8bJwDQ4QqEQpaWlyJRlqIDsfUskElbL9fX1EAgESExMhKWlJe7evYvdu3fj1q1b7Oq9ly9fYuvWrThy5AgMDQ3h5+fHBhEUi8XstZrruMn/XlN1h0G+89EUyseZ/6+vr0dycjLS09Ph7u7eZCY2BmNjY3h7e8PQ0BBZWVm4fv06SkpKoC2Lo1VZWYlz587h999/xyNZxreKigpcuHABe/bsQXJyMnx8fBAeHs4OjiQSCaqqqljdPH36FCKRCGVlZThz5oyCbuQHB4wtlX9vUllWOcaeSqVSBAcHIzo6Gs+ePcPu3bsVdHP79m3s3bsXycnJ0NHRQXh4OGxsbKCpqYnGxkY8f/6crRsAUFJSgr179+Krr77C/fv3weVyFValMCu0pFIpcnNzkZaWhrq6OlbPYrEYYrGYLR8YGAhvb29IpVIcOHAAmzZtYld7VVVV4cyZM9i2bRtycnLg5OSEuLg48Hg8dmLgn9DNu4hQKMTdu3eRnJwMiUQCFxcXeHt7N9uXMDMzQ1BQELhcLu7du8dOzpAsRohIJMLOnTuxYcMGtsOdk5ODzZs3Y+fOnRAKhWjTpg28vb3ZwLQ8Hg+PHz/G5s2b8ccff7Dbuh48eICNGzfi7NmzkEgkiIqKYjXS2NjI2gyms8rUAUZXHFkw3aCgIFhaWuLOnTv48ccfcf36dXbF6cmTJ7Fx40bU1tbC398f+vr60NbWhq6uLsrLy/Hs2TN2JTfTt9i/fz/27NmDtLQ0NMjF1IBMQxKJBMXFxcjMzFQYdDA2vlEuVlpkZCSCgoJw584d7N69G0lJSaivrwfJUj+fOnUKO3bsAAB06NBBob1g6nZTmoecXZDva/1VNDY2KuiG2V7S3IoaY2NjFd00NDSwupFIJCq6ycvLw7Zt2xR04+PjA8jsm6amJkpKSnD69GmcPHmSndgrKyvD2bNnsWfPHjx58gTBwcFs+/wq3TDtL4ONjQ0iIiJQX1+PLVu24Ny5c6iQZbFMSkrC2rVrcefOHZiamsLV1RVOsszJZWVleP78uYpuDhw4gN27d+PevXvN6oZpZ5V1w9gvRjdhYWEIDw9Hamqqim4qKipw5swZbN++HSKRCB06dGi2vWgK+bbjVfYSr7GZ8sc4ckF262RxbzIzM2FqaoqIiIgmk05AtqshJCQEdnZ2qJYFe8/MzERjYyNrP06dOoXt27cjJSUFjTLH9R9//IEtW7YgJSUFpqamiIuLg56eHsRiMTQ1NVmNnDhxgk20wfxt9+7dePDgAQICAljdMO2WUChU+G7MuxIKhZDKHBVWsvT0jG5Onz6NUlmiEXndGBsbw8XFhU1WoqwbqVSK7OxsHDx4kNWNvLMVcquzamtrUVBQoOKAEMvGEsz9BQQEIC4uDnV1dTh58iR2796t4Oy6ceMGfvrpJzx+/Bht2rRRyHbH2Pnm2tk30c2bwOhGJBIp6CYyMpJd/aKMkZERgoODYW9vr6AboVDIBtI/d+6cgm6qZdnUNm/erKAbS1lGZI5sYiw7OxsHDhzAiRMnUCJLSvX48WP89ttvOHXqFOzs7BAQEMCu3pHIHMTy302+LWDem4GBAdt/PnXqFA4dOoQnT56gpqYGL1++xP79+3Hs2DHk5OTA3d0dwcHB7OrJsrIy3Lt3j3WMMSv51q1bh8OHDwMy28cslPhfdSMSiXD69GkV3dy6dQs//fQTUlNT4e7urjDmYmwXU4eUtcO0UUwZ5ePyvMre/OvQW8jdu3fpiy++IC8vLxo9ejTV1tYqHJdKpZSVlUX9+vUjbW1tmj9/PmVkZJBYLFYoJ09paSmNGDGCLC0tKS4ujs6cOUM1NTX04YcfEgAyMTGhuLg4mjlzJq1cuZKWLFlCQ4cOJXd3d3J3d6eVK1dSeXk5ERGdPHmSunfvTlZWVmRhYUGJiYk0Z84cWrVqFS1ZsoR69+5NFhYW1L59e9q8eTMVFBSw9zF//nzi8Xg0evRoevToERER7dq1iyIjI6lbt270888/s79TWFhIkydPJgcHBwoPD6cxY8bQN998QwsXLqQ+ffqQlZUVDR48mG7evElERM+fP6d+/fqRk5MTtW3blubMmUMbNmyg1atX0+TJk6lDhw7k5eVFXl5eFBcXR6tWraLc3FxqaGigffv2kYeHB1laWtKECRPoxIkTlJ2dTffu3aORI0cSn8+npUuXss9x7do1Gjx4MHl4eFBISAjNmjWL1q1bRytXrqT333+ffH19yc/Pj5YtW8Z+l+LiYvrll1+oe/fuFBMTQ7t27WKvJ3/djz/+mNzc3GjUqFEq355h8eLF5OHhQZMnT6Y//viDRCKRcpF3nk2bNpGfnx8NGDCAfv/9dxKJRFRQUEA//PADubq6ko+PDyUlJSmfxiKVSomI6Pjx4+Tm5kaurq60bNkyevLkCZ08eZKcnZ0JAHl6etKwYcNo2bJltGrVKpo0aRJFRESQvb099e3bl27fvs1ec/v27RQfH09mZmZka2tLPXr0oC+//JJWrVpF8+fPp4SEBLKwsKBevXrRwYMH2e977do1io2NJUtLSzpy5AgREYnFYho+fDjp6urSF198QS9evCCpVEr19fV04MABioqKIjs7O/rggw9o8eLFtGzZMho+fDiFhISQr68vrV27lhoaGkgoFNKmTZvI3d2dvLy8aOzYsbRixQpat24dLVy4kEaNGkUxMTFkaGhIzs7ONGnSJLpz5w5JJBJKSkqijz76iCwtLSkkJIRWrlxJ+fn5lJubS8uWLaO2bdtS+/bt6fLly+w7WLFiBbm7u5O/vz99+OGH9M0339C6devoiy++oKCgIPLw8KBx48YpnHPr1i3q0aMHxcXF0ZIlS+jx48fsMSKi+vp6WrJkCbVt25b69etHu3fvZo8lJydTly5dKDY2lr777jtKT09XOFeZQ4cO0XvvvUfdu3enVatWUWlpKRER3b9/n9q2bUtGRka0YsUKysnJUT5VAcYGW1pa0nvvvUf379+noqIieu+99wgAWVpaUufOnenTTz+llStX0sKFC2nQoEHk5OREQUFBtHXrVhIKhUREtG/fPkpISCBzc3NWN/PmzaNVq1bRwoULqUuXLqxuDhw4wN4zEdGkSZNIR0eHPv30U8rNzSUionXr1lFYWBj179+fdu/eTY2NjSSVSunYsWMUFxdHNjY2CroZOXIkhYeHk5eXFy1fvpy1WdeuXaPOnTuTk5MTtW/fnubPn08bN26k7777jsaPH09xcXHk6elJXl5e1LlzZ9q8eTOVlJRQbW0tbdy4kezt7cne3p7mzp1Lly5dotzcXLp58yb16dOH9PT0aOvWrexznDlzhnr37k3u7u4UFRVFX375Jf3yyy+0bNky6t27N3l5eVFwcDD9+OOP7DkpKSnUt29fatu2LS1YsEBFN42NjfTNN99QbGysim4yMjJo6tSp1LFjR5o2bRrdunVL4dx3ifr6ejpy5AhZW1tTZGQkvXz5koiIKioqaOnSpRQSEkLe3t60efNm5VMVKC8vpzNnzlC7du1IR0eHvvvuO3ry5Ant2rWLOnfuTADIwcGBBg4cSIsXL6Y1a9bQp59+SmFhYeTo6EjvvfceHTt2jL3exo0bydTUlACQv78/jR49mlasWEErV66ksWPHUkhICNnb29OwYcPo+fPnREQkEono2LFjNGzYMPLx8WHb5dLSUlqyZAnp6enR4MGDWduak5NDc+bMIX9/f/L09KThw4fTihUr6Ouvv6YePXqQk5MTDRo0iI4dO0YNDQ1UVVVFW7dupejoaLKxsaExY8bQ6tWr6aeffqIlS5bQiBEjqFOnTmRtbU36+vo0ZswYtg24c+cOjRo1inx8fCgiIoLmzZvH9nOWL19OISEhNHDgQDp48CBJJBISCoX022+/UUhICDk5OdHIkSNp2bJltHbtWlq4cCF17NiRLCwsaNSoUZSUlEQikYgaGxvpwoULFBkZSdbW1nT27Fn2fZJM8wUFBfTZZ5+Rjo4OTZgwgaqqqtjjz58/p65du5KOjg7t2LFD4dymuHfvHnl4eJCrqytdvHiRiIhqa2vp66+/ZnWzbt065dMUqKyspAsXLqjoZt++fdS9e3ficDgqupk3bx5FRkayujl8+DB7vdu3b1NUVBQBIFtbW+revTt98cUX9P3339OXX35J/fr1IxsbG4qJiaEDBw5QY2MjSSQSOnPmjIpuKisrafny5WRoaKigm6qqKjpy5Aj169ePrK2t6b333qP/+7//o1WrVtHYsWMpICCAgoODacGCBVReXk5CoZB27dpF7dq1IysrKxoxYoSCbkaOHEldunQhOzs7Fd2kpKTQuHHjyNfXV0U3P/zwA4WGhlL//v1Z3TQ2NtK+ffsoMjKSHBwcFHSzePFi6ty5M5mbm9OHH35IN27coJqaGvbdjRs3jnR0dGjevHmUnZ2tMm44evQomZubU4cOHej48eNsf5w5V1NTk5YtW0YVFRUq58pTUlJC7du3J1tbW9qyZQtVVlaSWCymGzdu0KhRo0hfX5/Gjh1LdXV1yqcqUFNTQzNnziSBQEA9evSggwcPUk5ODn322WcEgLS1taldu3Y0c+ZMWr16NS1dupT69etHnp6e5O7uTkuWLGG/6d27d1ndWFtbU9euXenzzz9X0I2trS2Fh4fTrl272HsrLS2l1atXk7GxMfXs2ZNKSkqIiOj69evk5ORE/v7+dOTIEba/dfToUVY3nTt3psWLF6vo5rPPPqPi4mJqbGyk/fv3K+hm1apV9NNPP9H//d//0ejRo1ndCAQCGjZsGF2/fp3EYjGVlpbS1q1bKTY2lszNzWngwIF06tQpqq+vp0uXLtG4cePI39+fpk+fzj7L8+fPaeDAgWRvb0/t27enGTNm0Nq1a2nNmjX04YcfkpOTE0VHR9OKFSvYdoKUdJOZmUmNjY3sMZLpxtramtq2bUuHDx+m4uJi9tjnn39ORkZGNGXKFEpJSaGGhgaFc+UpLy+noUOHkq+vr0KbfvfuXQXdyNu0pqivr6d58+ap6GbRokUEgDQ1NRV0s2zZMnr//ffJ29tbRTc5OTk0b9488vLyIiMjI7atWrZsGa1cuZKmTZtG3t7e5ObmRnPnzqX79+8TybT7yy+/qOgmOTmZPDw8yNPTk44cOcI+y8uXL2nhwoVkb29PQUFBNHXqVPr2229p3rx51KtXL/Lw8KAuXbqw45qMjAz66KOP2PH2nDlz6KeffqLVq1fTrFmz6P333ydPT0/S09OjmJgYWrt2LZWUlFB1dTXt3LmTOnToQGZmZgq6uXbtGk2cOJH8/f1pwoQJCroZOnQo2dvbU7t27RR0M2LECHJ2dqaIiAhatmwZ5eXlyb7C/++LRkREUL9+/Wjbtm0q9f3+/fs0dOhQatu2Lc2YMYNSU1PZYz///DP5+/vT0KFD6ejRowp27G2jVTqTysrK6Ny5czRgwAAKCwujo0ePEskNjpuisrJSwZFx8OBBqqqqov79+5OtrS2NGjWKhg4dShEREWRiYkIaGhpkampKnTp1olWrVikM0A4dOkS9e/emdu3aUdeuXWnYsGEUFRVFurq6pKWlRQ4ODtStWzfaunUrVVZWKtzHqlWryNvbmz799FN69uwZkWwwP2DAABozZgzt3LmTPUcoFNK9e/do8eLFFBUVRYaGhqSvr08mJiYUERFBkyZNojNnzrCOlMrKSjp16hTrNONyuaSnp0cuLi40ceJE2r59O/3000/0wQcfkKmpKXXv3p2uXbtGRERPnjyhUaNGkZWVFTk7O9P8+fMpJSWFUlNT6fPPPydfX1/6+eef2eeora2lpKQk+vjjj8nV1ZX09PTYhs3MzIy6detG69evp6ysLJJIJESy77Z7924aN24c23lVJjk5mZYuXUoJCQn06aefqlQ8BrUzSdWZJBaL6dGjR/T5559T+/btaezYsa91CBARPXz4kAYPHkwxMTE0e/ZsunPnDp08eZJsbGzIxcWFFixYQO+//z7Z2NgQn88nPp9PXl5eNHPmTLpy5YqCxjdu3EhdunSh+Ph46tGjB3344Yfk7+9PPB6P+Hw+ubq60vvvv0+HDh1iHQkNDQ2UnJxMgwcPpqioKDp37hyRzJnEDIK+//57ys7OZrVUUFBAW7ZsoT59+pCzszPp6uqSsbEx2dvb0/vvv0+bNm2iFy9esPf1+PFj+vLLLykkJIT4fD5paGiQpaUltW3bln755Rc6f/48jR8/nuzs7MjExISWL1/O3tumTZsoPDyc+Hw+RURE0OXLl6msrIx++eUXGjx4MA0dOlRhIP706VNau3YtdenShQwNDYnH4xGHwyEjIyP2vd2+fVtBs6mpqfTRRx/RBx98QD/++CNlZGSwx0h2Hz/++CMNGjSIJk+eTMePH2eP/Rln0urVq6miooKEQiEdPHiQOnXqRB06dKBLly4pn6ZCUVERff/999SxY0fq0KEDXb9+nQoKCighIYGcnZ3Zeh4UFERGRkbsO+/evTtt2rRJQZvbt2+n9957T0E3QUFBpK2tTdra2uTs7MzqRrkjtnDhQvLz86Nvv/2Wddzv2rWL+vbtS1OmTKFjx46x77qkpIR27NhBAwYMUNCNnZ0d9evXj9avX8/aZZI5wA8fPkyDBg0iY2Nj0tTUJAMDA/Ly8qKPP/6YfvvtN1q9ejX16dOHjI2NacSIEfTgwQMiWTs2cOBAMjc3Jx8fH1q1ahU9fvyYkpOTacqUKRQQEECHDh1if6u6upouXrxI48ePJwcHB9LV1SUApKurS5aWltSvXz/avn27QkflyZMnNGnSJBo0aBCtXr1aRTdisZjWr19PgwcPVtGN2pn0/wdJs2fPpvj4eJoyZQpdvXpV+VQFJBIJ5efn0+zZs8nHx4fmz59Pp0+fpu3bt1PXrl3J0NCQxo0bR7NnzyZ3d3fS1NQkfX19cnR0pHHjxtG5c+fY/oxUKqVffvmF9PX1yd/fnxYsWEA9e/Ykc3Nz4vP5pKOjQ4GBgfT555/TrVu32LZQJBLRhQsXaM6cOdStWzfWkVFRUUE//vgjBQQE0IwZMxTKP3/+nL799luKjIwkMzMz0tXVJTMzMwoICKCRI0fSiRMnWHtMMvu6dOlS8vX1Zeuuubk5RUdH0/z58+mPP/6gpUuXkr29Pbm4uNCcOXOotLSU6urq6LfffqOuXbuStbU1RURE0JYtW4iIaOvWrdSnTx+aPn06nTx5kh2I5+bm0rp169hzNDQ0SFNTkwQCAfn5+dGYMWMUHEZ1dXV048YNGjBgAEVHR6t8s8bGRiouLqYVK1aQr68vzZ8/X6ET/lc4k2pqamjOnDmsbpi/N4dEIqGioiIF3Zw6dYp27txJPXv2JAMDgyZ14+DgwOqmurqavd7NmzfZSZOPPvqI+vfvT35+fqSvr08aGhpsO7hz504qLCxk7+Hy5csquqmurqZff/2VgoODFXRDsj7okSNH6P333ycXFxfS09MjQ0NDcnBwoA4dOtAPP/xAWVlZ7MC6pKSEVqxYQYGBgWRsbKygm88//5wuXbpEK1asUNBNQUEBCYVC2rt3L/Xs2VNBN1KplHbv3k19+vShKVOmKOimoKCANm7cSN27d1fQjY6ODvn4+NDw4cPp5MmT7LMwzJs3j/z8/NiJIaZPwXD+/HmKiIigYcOG0cWLFxX6N3/GmVRdXU0ikYgOHDhAQ4cOpfj4eIWJgVexadMmiomJoV69etHPP/9MmZmZNGvWLAJA/fv3p88++4wiIiLI0NCQ+Hw+GRoaUqdOnejHH3+kp0+fstdhdOPp6UkfffQRvf/++xQQEKCgG2bQy9hIqVRKZWVltHXrVgoJCaHx48dTWVkZkazvER8fT927d6dz586x76qxsZHVjaurK+nr65OBgYGCbl68eMG2yxUVFSq6MTU1pcjISJozZw6rG0dHR3J0dKRp06ax/bsnT57Q9OnTydramgwNDWnatGlUWlpKycnJ9MUXX1D37t3p//7v/6i+vp5INna5cuUKzZw5k3x8fNj+oKamJtnY2FD79u3pl19+oaKiIgVtyOsmNzdX5dufP3+eYmJiaNCgQXT27Fn2HdGfdCalp6eTRCKhY8eOvbFudu7cqaKbL774ggBQz549VXSjr69PHTt2ZHXDjKmzsrJo7ty51K5dO+rQoQMNHjyYevXqRTY2NsTlcsnY2JgCAwNp3rx5Cs6QiooK2r17t4puHj58SImJidS5c2c6d+4cVVRUsOfcv3+fFi5cSLGxsWRsbEx6enpkamrKOgXPnj3LlpdIJPT777/Thx9+SC4uLsThcEggEJCLiwsNHTqUfv/9d9q5cyd16tSJBAIBhYeHKyy+mDNnDtnZ2SnoJjU1lRYsWEA9evSg+fPnK+jm+vXrNHfuXPL391fQjbW1NcXGxtLatWspPz9fQRu7du2i/v370+TJk+nw4cPs9RgeP35Ms2fPpkGDBtFXX32l0H9XO5P+JK9zJlVXV9PDhw9pz549tH37dgXvcXOIRCJKT0+nw4cP06+//koZGRlUUlJCPXr0IFdXV1q4cCFt2LCBvv/+e5o2bRqNGTOG5s6dS7t27WJXRDDs37+f+vTpQwkJCTR58mTavXs3/fjjj/TRRx/RuHHjaPHixXTgwIEm7+vOnTu0YcMG+uOPP9gZj+fPn9Phw4fp5MmT9OjRIwVDI5VK6dGjR7R+/XqaOXMmTZw4kaZPn05r1qyha9euKXQwJBIJVVdX0/nz52nRokXs/cydO5eOHDlCeXl5lJ2dTSdPnqQFCxbQTz/9xA6c6urq6MKFC/Ttt9/SggUL6OjRo5SXl0dFRUV0+fJl2rhxI927d4/9Leb3bty4QcuXL6cpU6bQ0KFDaezYsfTZZ5/Rnj17FAY9JOvQP378mE6dOkVHjhxhZ1rlKSwspBs3btDu3bvpjz/+UPH+M6idSYrOpOPHj1NDQwOVlJTQiRMnaOfOnXThwoVXNloM1dXVdPLkSdq+fTsdP36ccnJy6NChQ2RmZkYRERF06tQp2rFjB82ZM4fGjRtHU6ZMoZUrV9KtW7dUvs+vv/5K3bp1oy5dutDcuXNp//799M0339CYMWNowoQJtGzZMjpx4oTCyhKRSESFhYV09OhR2r59O2VlZRHJtH/x4kXatGkT3b59myorKxUa9/z8fDp69CgtWrSIJk6cSFOmTKEvv/ySDh8+rLAakGTOmJSUFFq/fj1NnTqVRo8eTdOmTaPvvvuOHj16RCKRiK5fv04rVqyg2bNn0++//86e++zZM9q6dSt99tlntHTpUnr8+DEJhUK6f/8+HT16lI4fP075+fkKv5eTk0O7du2iWbNm0ZgxY2jYsGE0bdo0WrVqFSUlJal0YIuLi+nUqVN09OhRSk5OVmhcSeYUSE5OpqNHj9LZs2cV6s6fcSbJr0y6d+8ebd++nfbu3avwfZqjvr6eHj58SHv37qWNGzdSSUkJZWZmUlxcHPn4+NDy5cvp119/pW+//ZamTJlCY8eOpXnz5jVpG7ds2ULdu3enzp07s7pZsWIFjR07lsaPH09Lly5V0Q3D1atXaePGjXTz5k22sX306BEdOnSIzp49S8+ePVNo3AsLC+n48eMKuvniiy+avC+JREIVFRV04sQJ+uKLL2jcuHH00Ucf0ZdffkmnTp2i/Px8yszMpMOHD9O8efNoy5Yt7OqoqqoqOnnyJH399de0ZMkSOnfuHBUWFlJBQQGdO3eONm/erNDRJ9ng7dKlS7R06VKaOHEiDR06lMaPH09ffPEFHTp0SGG2k2TOkDNnztCRI0fozp07KrqRSCSsTpV1o3Ym/f927/jx47R161a6du2ayvttCqlUStevX6cNGzbQxYsX6ebNm/Tbb79R+/btydLSktavX0+3bt2iL7/8kkaNGkVTp06lZcuW0cWLF1l7LJVKSSwW088//0w6OjrUqVMnOnfuHG3atIk+/vhjGjduHE2bNo3Wrl1L9+/fV+h/SCQSysrKoosXL9K+ffvYdplxym/evJnOnz+vYpvT09Npw4YN9Mknn9D48eNp+vTptHLlSpXOPENaWhr98ssvNGvWLBo5ciRNmTKFvv32W7p69So1NjbS06dPafXq1bRo0SKFSbDs7Gzau3cvffXVV7R8+XK6cuUKkWwAcfDgQTp37hxlZGQoPFN2djbt27ePPv/8cxo9ejSNHDmSJk6cSN9//z1dunRJYRZeKBTSy5cv6fDhw7Rjxw6VfoZEIqG6ujq6desWbdy4ka5cucL2D6RS6V/iTBKJRHTixAlWN4zD5nXI6+bWrVu0Z88e6tSpE5mZmanoZsqUKbR06VIF3TAkJSVRYGAgRUVF0ffff0/r16+nZcuW0cSJE2ns2LG0cOFCOnHihIKepVIp5eTkqOhGJBJRSkoKbdmypUndlJWV0YkTJ+irr76iSZMm0aRJk+jLL7+kbdu2qTivSTY4+vXXX2nOnDkKurl06RIJhUJ68eKFgm6YAWZeXh4dOHBAQTdSqZSePHlCBw8epLNnz6roJjc3lw4ePKigmwkTJtB3331H58+fb1LXTH/21q1bVFNTozIJnZWVRdu2baPjx49Tdna2gpP1zziTysrKSCqVUkpKCu3bt4/27t1LDx8+VD6tSdLT02nXrl20e/duunr1Kr18+ZImTpxIAGju3Lls333y5Mn00UcfsWMX5cnEGzduUGBgIIWGhtKKFSvo119/peXLlyvo5tixYwp6lkqlVFdXRw8ePKAtW7bQ6dOn2QFxYWEh7dy5k/bv309ZWVkKA2VGN19//TVNmjSJJk6c+Ea6mTx5Mn3zzTd0/vx5Vjdr1qyhRYsW0fbt29l7bGhooMuXL9OKFStozpw59Ntvv1FNTQ07dtm/fz9dv35dQdcikYhu3bpFK1eupEmTJtGIESNo1KhR9MUXX9COHTvYPqg88rqprq5uUjc7duygo0ePqryLP+NMSktLI5LZzzfVzfPnzxV0k5+fTzNnziQANG3aNBXdzJ49m3bs2KGim8zMTJozZw61b9+eBgwYQGvWrKHdu3fTnDlzaNSoUTRz5kz66aef6N69ewrvpb6+nh49eqSim5KSEtqzZw/t2bNH5V2JRCJKS0ujzZs308yZM2nChAk0Y8YM+u677+jatWsqzpjS0lI6d+4cLVu2jMaNG8eOeXft2kVlZWVUVlZGhw4dos8//5y++uorhRW+169fp++//15BNyUlJXT16lXav38/XblyRUE3jY2NdPfuXVq9erWCbj7//PNmdf3o0SM6fPgwnT17lp4+fapiX0tLS+nixYt09OhRun79uoITUu1M+pO8zpn0V5Gfn09du3YlJycnhUr7Og4cOEC9e/emyMhImjdv3muXG/4vKBuq1/Gm5f9p/ur7UzuTFJ1J8ktFlXnVu2/u2K5du8jIyIiioqLYJastYcOGDdS5c2dq27YtrVy5Uvlwi2nuvug1x5riTcv/r/yvv/O/nsfwZ5xJ33//fYsHQi3h8ePHFBMTQx4eHvT9999TZmamcpEm2bp1K3Xr1o2io6P/lG5exZ99z28bf/Z51M6kv4bi4mLas2cPRUREkLW1tYIjujmkMmfSTz/9RNra2tSlSxeFFXHN8We/+dvGP/08YrH4TzuTlAcD/yulpaV08OBBatu2LZmbm7dINww3btxgtwv98ssvr9XzP/2e/27+rud53XX/jDNJecLpz1BWVkYjRowgDofzRmMQRjf+/v60du1aFaeBMq96H6869k/xpvfwpuVbyuuu+2ecScnJycpFWkRT91RZWUkTJkwgADRr1qwW64ZxJkVHR1O/fv0UQjS8KU3d1//Cn7nOm577puVbyuuu25qcSa06APefhQmmxgRUa2lwK5JlU2HOY6LCv45XBdb6r9KSd9KSMmr+WuTrRkvrBeSyHzQVaE7NP8Prvtfrjv8ZlG1jS3+LOU+tm3+Pln4rNarI28s3gTnvTeqKGlVao83gyLJQMfbyTZG3ly3tg6r5a3lVnVUOwP1Xw3z7N7Ud/8vYRc27AxMcXCqXubElMLp50/PehNZox/9J/q73/lfwn7YkHA4HGhoabBasRlnawNfBkWV50tDQABGxGSZex5sI4U3K4n8o/0/T3P0193d5WlJGTfO86v01d4zRt3zWspbAlWUGZLIlyGdweBOauy+85lhTvGn5/5X/9Xf+1/Oa43UN8uuO/xnkbSNkGUhagrJN/V918yr+6vf8b/NXP8/fqYt3GaZzzfQl3sQxwJzH4XAglmX4exV/9Tf/t/mrnuevus4/CaOT/1U3TDsLWaapV9Ea38+r+Lue502v+yqbKX/sTR0+r4JxIDF2A7KxS0v0o9w+/xndvOrYP8Wb3sOblm8pf9d1/wzK98Tokfn2eAPdQGlM0NLxQFMo35c8rzqmzJuUVeZNz33T8i3lTa/7Knvzb/Ofdybx+Xzo6OiAx+O12EuvqampcN6bCkKNmrcdDQ0N6OjogM/ng8vltljj8nWjufTaat5duFwudHR0oKOjAy0trTfWDZ/PV+tGTauCI0v7zehevrP+KjgcDrS0tKCrqwttbe0W9z/UvBswuuHz+dDV1W2xbqBkZzU1NVtsZ9W8G3A4HPB4POjq6r7RGEStm/82f0Y3PB4PfD4f2trab2Sr1Pw3+E/3XvT09DBkyBBMnz4d8fHxsLS0VC7SJJ6enhg0aBBGjx6NDh06QEdHR7mIGjWtGl9fX3zyyScYM2YMrKysWjzQCQoKwocffoiRI0ciOjq6xeepeTcwNTXFqFGjMGXKFERGRsLU1FS5SJMEBARgyJAhGDVqlFo3aloVAoEA3t7eGDNmDGbNmgUPDw/lIk3C4XAQGhqKefPm4cMPP4Spqala9/8hdHV14enpiVGjRmH27Nkt1g0A2NraYvz48fjoo48QEhICQ0ND5SJq3lE4HA50dHTQu3dvzJ8/Hx06dGAn/V4Ho5sJEyYgPDwcxsbGykXUvKNwOBxoa2vjvffew4IFC9C5c+cW68bQ0BCJiYkYPXo03n//fTg5OSkXUfMf5/UqekchIggEAvTr1w/jxo1DdHQ0zM3NlYs1ibu7O3r16oUhQ4YgNjYWfD7/rV5+pkbNm9KmTRtMnToVQ4YMgYWFRYsaHADw8/ND//79MXjwYISGhrb4PDWtHyKCiYkJBg8ejNGjRyMkJARGRkbKxZrE29sbffv2xQcffKDWjZpWha6uLtq0aYMhQ4ZgwoQJcHV1fW1/gMPhgMPhICAgAB9//DH69+8PY2Njte7/Q+jo6MDd3R2DBg3CpEmTWqQbyOystbU1hg8fjqFDhyIgIAAGBgbKxdS8w/D5fHTp0gWzZ89G27ZtwefzX7vKRF43w4cPR1BQkNoJ+R+Dx+MhISEBs2fPRnx8fIt1Y2BggLi4OHzwwQfo1asX7O3tW2Sr1Px3UPdc1KhRo+Yd4nWdg9cdf1tQd1b+WVqLLtSo+TdR1xM1DK/SgvyxV5VTo+ZVqLWjhuFt1sJb70zS0NAAj8dT/vOf5q/+KH/19dS8Gvm4Kv/ld8+RBVTU0tL6W+qJmrcfJt4bR7baoSUwutHU1PzLdNPS324pf/X11CjC4/HYIK7/pXfN2Mu/k//S+2xNMP3JN10BxgRQ1tLS+lvjhbRENy0po+bvQUOWIKIlMIGyObLYWH9VO/u/otbNv8f/YjMY3fzdbdXraE43zf1dzV8HE3e0NfTR3qxF/QdhXp6mpqY6IKsaFeQr2X8dpqOira2tfEjNfwAmIOKb1AeOnBNSHfPtvwkT7JxxRP4XIFkWJD6fr3xIzX8EPp/POgXexDHA5XLVbex/nP9lLMK0s2qb899FPhlJS9taZrJPbXP+u2hpabWa/hmHWtqa/oPcvHkTe/fuxcGDB2FnZ4fx48fD1NQUNTU1ykXV/Mfg8/mQSCTYtm0bbty4gU6dOmHw4MGIjY391z34/zSbN2/GV199BVNTU8THx8PPzw9GRkavTfeq5t3BwMAA9+7dw7Zt28Dj8dC7d2/069cPbdq0US7KcujQIaxevRo1NTXw9fVFXFwcrK2tUVdXp1xUzTuKnp4enj9/jiNHjqC4uBhBQUEYM2YMwsPDlYu+E9TW1uLMmTOYMWMGAGDevHmwtbVFfX29clE17ygaGhpobGxEcXEx1qxZg5ycHKxbtw6DBg1SLqrA/fv38eGHHyI3Nxcff/wxvLy8oKWl9UbOKDWtF2ZSu7GxEatXr0ZSUhIWLFiAMWPGwNDQsNlVJ2VlZRg0aBCuX7+OUaNGITAwEKampiAiSKVS5eJq3kGYLJ3r1q3D+fPnMWTIEIwePRq+vr7NOokqKiowbdo0nD9/HjExMQgPD4ebmxs4HA7EYrFycTXvIFpaWtDU1MSBAwdw9uxZhIaGYtCgQejcuTMEAoFy8beCt9KZdPnyZWzfvh3Hjx9HWVkZ2rRpAx6PB4lEolxUzX8MLpcLIsLz58/B4XCQmJiIYcOGISEh4V9fRvxPs3nzZnz22Weorq6Gubk5DA0NoaWlpe6o/IfQ1NREeXk5srOz4ezszCYG8PX1VS7Ksm/fPnz11VfIzs4Gj8eDubk566RV899AQ0MDtbW1ePnyJQQCAWJiYjB16lRER0crF30nqKqqwunTpzF//nw8fPgQfn5+4PP5alv5H4LD4UAqlUIkEuHBgwcwMzPDjz/+iAEDBigXVeD+/fsYN24cbt68CXd3d+jr67eKmWI1fx0cDgdEhAcPHkBHRweffvophg8fDjMzs1c6k4YPH45jx47B0dERBgYG0NbWVjsg/0Mw22mfPHkCqVSKgQMHYuTIkQgJCWl2pVp5eTmmTZuGnTt3wtzcHAYGBtDX1wfUcST/MzC7DLKzs1FXV4fo6GgMHToUPXv2ZLXwtvFWOpMuXLiALVu24OTJkygsLGxRxPnWgnyHhunIcjicZg0L440WiUTKh5pEU1MTGhoaKjEBJBIJGhsbWWPEbI15Cz9/i6ivr4eBgQHat2+PESNGoFu3bv85Z9KGDRswa9YsVFRUsNtBW3M9aUrrWlpa7CxwU4hEohY5QTgcTrOxMuSvweVy2XLN/ebbBIfDgUgkglgshouLC3r27IkRI0YgICBAuSjL7t27MX/+fGRkZEAsFjf7XloLTemG2frZ3Dd8E900FyelNesGsjZBJBLB1NQUMTExmDVrFmJjY5WLvROUl5fj5MmTWLp0KVJTU1t9n4LD4UAikUAsFrMafJWNa6qOvAoNDQ12C6Q8RITGxkb2N5m4W60JqVQKoVAICwsLrFmz5rXOpOTkZEyaNAnXr19nbUFr1g6zMkbZXjLfW9l+SaVSVmstgZlVl0dZf83p622nvr4eJiYmmD17NoYOHQpLS0uVZ2UoKyvDiBEjcPTo0Wb75a2Jf0s3EomEXW3PlW0ZbG3vsb6+ns0ePmLECERGRjYbXqC8vBwTJ07Erl272D698ntpjSj3uV41BmVsdEvQ0NBQ2EaIJnSDFowl3kbq6+vB4/EQFRWF4cOHo3///mpn0ptw5coVbNu2DcePH0deXp7y4XcCPp8PgUAADQ0NVFdXv3K5PYfDYWc1OE3ERWGMfENDA6qrqxWOMXA4HOjo6EBXVxcSiQTl5eXKRVodxsbGSExMxPDhw/+TK5M2bdqE2bNno7S0VPlQq8bIyAg8Hg8NDQ2ora195aBfW1sb+vr60NTUBMmCXcojlUohFotRW1vbbOOkra0NXV1dAEBDQ8Mr6+LbjKenJ3r37o0PP/wQPj4+yodZ9u3bh0WLFuHRo0ct7ui1BhjdCIVC1NTUvFI3PB4PBgYGf0o3PB6PXXLcmnVjYWGB9u3bY9q0aYiKilI+/E5QUVGB06dP46uvvsL9+/eVD7datLS0oKenB01NTVRXV6OhoUG5CAuXy4VAIACPx2MHKfKQbNvW6+wun8+Hvr4+GhsbUVlZ2ao65/JYWlpizZo16N+/f5M2gOHevXuYNGkSrl27pnyoVaOnpwddXd3Xfm/IbJ2uri7bB1WGcTLW19c3awc5HA6MjY3B5XJRXV3drF192zE1NcWcOXMwbNgwmJubN+tMLSsrw8iRI3HkyBHlQ60agUAAgUDwl+qmoaHhldvsTUxMwOVyUVNT80ob9zajp6eHQYMGYfjw4QgJCXmlM2nKlCnYsWOH8qFWDY/Hg6GhIYgIdXV1r/zekL0vPT29Zm0z4yyqrq5utg3S09MDT7arqba2tlX2d7W1tdGuXTsMGzbsrV6ZpLFgwYIFyn/8tyktLUVGRgaePn2KsrIy5cOtHg6Hg8DAQLRr1w6BgYGQSCSvdJqZmZmhXbt2iIqKgo+PD/z8/ODr6wtfX1/4+fnB29sb7u7uMDQ0RF1dXZMOJTMzM/j4+CA6Ohq2trZ4+fJlqzXKDMbGxggKCkJYWBjs7OyabdTfVR4+fIjLly+jsrJS+VCrxdDQEImJiYiKioKhoSFqa2tRVVWlXAyQDY48PT2RkJCA0NBQeHt7w8fHR6FuuLu7w8HBARwOB4WFhU02Ol5eXoiKioKLiws0NTVRUlLSKre/uLi4IDQ0FH5+fjAxMVE+zPLixQskJyejpKSkxSsV3nbkdWNiYoK6urpm6wWHw4GHhwc6derUIt0UFxc3qQcPDw9ERUXBzc0NWlpazZZ727G0tERgYCDCw8NhZWWlfPidQCqVIicnB5cuXUJBQYHy4VaJrq4uXF1dER0djaCgIEilUpSVlTU7uLOyskJwcDBCQ0MRGhrK6p355+3tjTZt2sDIyAiNjY2oqKhQvgR0dXXRpk0bdOzYEZaWliguLkZDQ0OTdvVtR09PD927d4eXl1eTgxWG4uJiHD9+HDk5OcqHWiUaGhowMjJCWFgYYmNjYWpqCqFQiLq6uia1IxAI4OTkhMjISMTExKjYSm9vb3h7e8PW1hYCgQBlZWVNtitmZmbo0qULvL29IRKJUF9f3yodSgKBAB07dkRwcDAbE6cp6uvrcfToUTx+/Fj5UKtEQ0MDBgYGCAkJQVxcXIt1Ex4ejpiYGAVbI68bOzs76OnpobS0tEndGBsbo1u3bvD29oZEImm1utHV1UVERATCw8Nhbm7e7GojoVCICxcuIDk5+ZV2qbXh5eWFLl26oE2bNtDS0mrWTkBmmyMiIpCQkAAfHx8Fm8P8c3Fxgbm5Oerq6pocI+jq6iIsLAzBwcGwtLR8ZZ/wbUYgEMDf3x/h4eFwdnZ+axdNvJXOpJKSEjx58gQPHz5851ZdAIC+vj4biC00NBT19fV4+PBhszM6dnZ2GDp0KBITE+Hm5gZnZ2c4OjrCxcUFLi4ucHd3R0hICEJCQhAQEAA+n4/i4mKF69nb2yM2NhZ9+vSBjY0Nrl+/3iorljyGhobw8/NDYGAgrK2t/3POpLS0NFy8eLHJTn9rREtLC6GhoRg5ciR69eoFe3t7ZGVl4dmzZ8pFweFwoKGhgbi4OIwcORKhoaGwtraGs7MznJ2d4erqCldXV3h7eyMyMhJBQUFwcnJCbW2tymAyLi4OvXr1goeHB+rq6vDo0SM0NjYqlGkNODo6IjAwEG3atIGxsbHyYZaMjAzcvHkT+fn5rd6hDNlS+7CwMFY3Tk5OyM3NxZMnT5SLgiPLYhcdHY0xY8a0SDcuLi6or69Hfn6+wrWio6PRu3dveHl5QSgUIi0trVXqxtzcHD4+PggKCoKlpaXy4XcCiUSCrKwsXLhwQeU7tlbMzMzQr18/DB48GGFhYeBwOCgqKkJFRUWTgzt3d3d07twZHTp0QGhoKOzs7ODo6AhXV1c4OzujTZs28Pf3R0hICPz9/aGvr4+KigrU19ezTlIDAwPExMRg6NChMDY2xv3791FZWdkqnajyzqRXUVxcjGPHjr0zziQDAwMEBwdjwIAB6N69O5ydndHQ0ICMjIwm2wNjY2P4+/ujT58+SExMhI2NDRwcHODq6goXFxe4ubnB09MTISEhCA0NhbOzMyQSCYqLixVWAtjb22PixIkIDg7Gy5cvUVBQ0O96f3QAAOtNSURBVOTE59uOrq4uOnTogMDAwGZX3EDmTDpy5Mg740zS09NDUFAQ+vXrh549e8LFxaVFuunZsyc6d+4MOzs72Nvbq+gmODgY4eHhcHJyalI31tbWmDJlCoKDg1FYWIiCgoJWOXaRd26Ympo2O15paGjA+fPnce/evVbppFeGy+XCyMiIDcEQFxcHbW1tPHjwoNmxi7GxMfr164cPPvgAjo6OcHR0VOijubm5ISgoCBEREfDz84OBgQFKS0sV7ImhoSF69+6Njh07wtzcHDk5Oa3Shuvo6MDb2xtBQUFwcHCA1luaaKppl/q/DLNt612oSE3h4OCAuLg4+Pv7w8/PD5GRkQgICIChoaFyUUDW+AcFBSE0NBQODg7Q1taGSBZzSSKRgMvlwtjYGNHR0Rg/fjwmTJiA8PBwhQGlnp4eXFxcEBUVheDgYHZbT2uG0Ulr7Mj+FTDbEt6VeuLs7Iy2bdsiLCwMbm5u6NmzJwIDA5WLsXC5XNjb27OzpQKBABxZbAaJRAKpVMrO3g8YMADz589H3759YWRkpHAdGxsbhISEIDg4GA4ODs028m87jD14nR7etXrj6OiooJtu3bohODi42RljLpcLW1vbN9LN+++/DzMzM4XrWFtbIzg4GCEhIXBycmq1uiGiFummtfOuPZ+VlRW6deuG9u3bIywsDAkJCQgPD2+2bTcyMoKXlxdCQkLg4eEBTU1NCIVC1hZoaGhAT08PUVFRGDt2LCZPnoyuXbsq9Eu0tbVhZ2eH6OhoBAQEwMDAoNl61hpoiSZaUqY1YWxsjPj4eCQkJCAkJATdu3dHhw4dVNpFBm1tbVhZWSEiIgLBwcEQCASsbphBv5aWFtzc3NC9e3fMnj0bEyZMgJOTk8J19PT0EBoaisjISNjZ2TW7zac18K71vVqCoaEh4uLi2BW9LdVNeHg4goODoaenp6IbTU1NuLq6olu3bs3qRldXl9WNg4NDs/btbUe+3/U63bSkTGtBV1cXgYGBiImJQVhYGLy9vdG5c2eV7ywPn89nd+HY2tpCU1OT1Q3TbzU1NUVoaCjGjRuHTz/9FBEREeDIhYHh8Xhwd3dHWFjYa1frv80wumlqguhtovX2AlopVlZWCAoKYh09RARzc3OEhobC1NRUuTggG/zw+XxUV1fjzp072L59O1asWIHVq1dj9erVWLlyJebOnYvvv/8e+fn58PX1Ra9eveDs7Mxeg1nJwQS5a242RY2af4s2bdogODgYtbW1Cn9r06YNtJtIo8qRBZzl8Xh49uwZ9uzZg59++gkrV67EDz/8gJUrV+Kbb77BZ599hgMHDkBXVxft2rVDbGysQsPC5XKhqanZbKBlNW837u7uTerGy8tLRTfyHQ153fz888/N6kZbWxtxcXGIi4tT0Q1jT1vzgFpN64LRMLOaCADy8vLg7OyM0NDQZm2YhoYGNDQ0IJVK8eTJE2zcuBHffPMNVq9ejR9++AHLly/HvHnzsHbtWqSlpcHPzw/vvfcezM3NFa4jr3t1P6L1oa+vj6ioKFhaWqKgoABaWlrw8fGBhYWFclFAbjWnoaEhqqursWvXLgXdrFy5El999RW++eYb7N69G2KxmF3VKW9/ObJkBkw7q9ZO64LZpmVra4v8/Pw30k19fT327dvXrG527NihoBv5BAnyulG3s60PPp+P8PBw2NrasuFcrK2t4evrqzJBx8DhcNh4lNeuXcOmTZvwww8/YNWqVVi9ejW+++47LFy4EEuWLMGzZ8/YrddBQUEKupEf86q18/eifrv/MJ6enmjfvj0aGxtx//59XL16FVpaWmjXrh1sbW2Vi7NIJBKUlJQgNTUVJ06cwPXr13H+/HmcP38ep0+fxsmTJ/Hzzz/jwoUL0NbWZmMjMUilUjQ2NkIoFEIkEr0zXm817w5BQUHw8/PD/fv3cerUKdTU1MDNzQ1xcXFNzn4xGpZIJHj+/DnOnj2L48eP4/Llyzh37hwuXLiAY8eOYevWrdi+fTvKysrg4uKCkJAQhetJZFmthEJhqwzQ918nICBARTdOTk5o166dim4YzTCrcRjdHDt2rFndFBUVwcnJCaGhoSq6YeypWjdq/im4XC7c3d0REBAAbW1tpKen4+TJk9DU1ERwcPAr416JRCLU1tbi6dOnOHr0KG7fvo1z587h3LlzOHv2LM6cOYN169bh999/B5/PR2hoqIIDlZkhZXT/rqxu/C/h6uoKX19fFBYWYteuXSgsLISDgwN8fHyaDO7K2Eoul4uioiKcPn2a1c358+dZ/fz4449Yt24dMjIy4OjoiDZt2ihokYggFArZdlbdB21duLi4wN/fH6Wlpdi9e7eCbpraVcHohsPhoLS0FOfOnVPRzfnz5/Hzzz/jp59+UtCNtbU16xSQyjJ7CYXC/8QK2ncNY2NjxMXFQUdHBydOnMCTJ0/Q2NiIsLAwBAUFKRcHZNrhcDioq6vD3bt3cfz4cZw9exaXLl1i7c3Bgwfx7bff4vz589DU1ISfn59C/DsiglgsVrdV/xBqZ9I/jJOTE8LCwlBeXo4zZ87g8uXLkEqlCAwMfGUnELJOpLa2NvT09JQPATKjm5WVheLiYmjKUnaqUdMa0NfXh6enJ2xsbHD//n0cO3YMaWlpMDc3R1hYGAwMDJRPAeScA1paWhAIBCorURjKy8vZgNO8ZtJnq2l98Pl8tGnTRkE3KSkpMDExQXh4eLO6YWB0w+fzlQ8BMt0UFxdDKBSqZ0bVvBVoaGggKCgIPj4+KCwsxOnTp3Hq1CmUlJTAzs4Onp6er9wKwsz0N+U4gCxmR3p6OkpLS9mZXTWtH65sW3hgYCAMDQ2RlJSEX3/9FTdv3oS+vj67/bE5pFIpuFxus/1PyOLxMXFOeTyeWjvvAPK6MTY2xt27d1V04+npqXwaCxGBK8sk2RwvXrxQ0M3bGmRYzZtjYWEBPz8/iMVinDlzBmfPnkVRURGb+KQ5GIcSn89/pc0pKSlhE3XxeDz1isd/CXXP+B+Ew+HA19cXHh4eyM7OxtGjR9mKZWNjAx8fH+jp6TU7YJFKpWhoaGgycj1klZbZ2vbs2TOUl5crF1Gj5q1DT08PAQEBcHV1hVgsRmpqKs6cOYOkpCQ2aGFzgYGZhkMkEqGmpqbZLB8uLi4wMTFBWVkZnj59qrAlSk3rRCAQNKmb69evg8fjvVI3DIxumgogCpluzMzMUFFRodaNmrcCLpeL8PBw+Pj4ID09HadPn8atW7eQl5fHZulyd3dXPo2FiCASiZoNYmtubg43NzdIpVLk5uYqBDVVd9RbL0SEoKAgBAQEoLS0FMnJyUhLS8Pt27dRUVHBBrNtDi6XC4lE0mzQbD6fDy8vL5ibm6O2thY5OTkoLi5WLqamlcHoJjg4GBUVFU3qJiAgQPk0Fi6XC6lU2qxueDyeim6KiorUK5DeAczNzREQEAAzMzMUFRXh2rVrOH36NJ4/fw4XFxd2dW1TcDgcSKVS1NfXNzvmNTc3h6OjI7S1tZGdnY2srCy1bv4lmvZaqPnLYQKKubm5QVNTEy9evMCNGzdw9+5dvHjxAgDg6+uL4ODgZgMTampqQk9Pj41hwOwD5fP5sLa2RkxMDKKioiASiXDx4sVWGblezX8POzs7tGvXDvr6+nj69ClycnLw5MkTJCUloba2ls3iwOVyVQYzTMOho6MDU1NTdhsSMyNqamqK+Ph4tG/fHsbGxnj69CmuX7/OzmSoab1YW1ujXbt2MDExUdDNjRs3UFVVxWYAaYlumBh2TenGzMwMz58/x7Vr19S6UfOvY2RkBF9fX5ibm+PevXu4ffs2ioqK2KxKwcHBTWYoYzTP4XCgq6vLOlp5PB40NDSgra0NIyMjxMXFITExEbW1tbh+/ToKCwuVrqSmNaKpqYnAwEC4uLjg/v37SE9PBwA8fvwY6enpcHV1bVI3DFKpFFpaWmycEx6Px8Ya5PF4iIuLw8CBA2FlZYX09HSkpKQ067BU03pgdOPh4YG0tDQ8evQIUNKNj49Ps5PgEokEGhoabExYed1oaWkhJiZGRTfl5eVqp8A7QEBAAMLCwlBZWYmnT58iLy8Pd+7cwYMHD6Crqws3NzfY29srnwbI7I2Ghgb09fVhYWHBOp20tLTA4XDg6uqK7t27IygoCGKxGHfu3EFKSop6O9u/RNO1X81fjrGxMcLDw2FhYYHs7Gw8f/4cIpEIFRUVyMjIQHFxMVxdXREcHKyyNJiJUWBnZ4cBAwZgzZo1OHjwIA4cOIDDhw/j4MGD2LNnD6ZPnw4jIyNcvHgRO3fubDKluho1bwPyg3tLS0u0bdsWEokESUlJbLrQ69evIzs7G4aGhvD394e7u7tKcFmhUIjGxkbExcXhm2++wW+//YbDhw/jwIEDOHr0KPbs2YMff/wRsbGxuHPnDo4ePYrHjx83u4JJzduNvG7MzMwQGxsLDoejopvMzEwIBIJmdSMSiRR0s2PHjmZ1c//+fRw9ehQPHjxQ60bNvwqTJtjZ2RlCoRA3b95Efn4+hEIh0tLSkJOTAz8/vya3nUilUtaR1LFjR/z666/Yv38/9u/fj0OHDuHgwYPYt28fPvnkEzg7O+P06dPYsGEDCgoK2GsoO2XVtB50dXXh6+sLa2tr3Lt3Dw8fPgQAPHz4EKmpqWwGS2tra+VTAQBlZWVwdHTEt99+y+rmwIEDOHjwIA4fPozVq1ejb9++SE9Px8aNG/HgwQPlS6hphTC6sbOzQ2pqKvtdlXVjZ2enfCog2ypubW2Nr7/+WkU3R44cwdq1azFo0CC1bt4R5NsIX19f+Pv74+nTp0hLSwMRIS8vD7dv30Z1dTUcHBwQFBSkkuQBAGpqasDn8zFy5Ej88ssv2L9/P9tHO3bsGHbs2IHPPvsMenp6OHHiBM6ePYuSkhK1E/JfQu1M+ocwNzdHhw4dYGhoiDt37iA/P589lpmZiYcPH8LGxqbJOB8kSw2opaUFOzs7BAUFoW3btoiOjmZXI4WEhMDW1hYNDQ0Qi8UwNjZudvmgGjX/NvIG39XVFUFBQSgrK8O1a9cgEokAANnZ2Xj69Cnq6+sRFhaGsLAwtqFi/iuVpVrV0dGBn58fIiIiEB0djaioKLRt2xbh4eFwd3cHn89HeXk5NDU1YWhoqB4UtVLkdePs7Izg4GBUVVUp6CYvLw/p6emoq6trVjeMTW2JbioqKsDlcmFsbKzWjZp/FVdXV8TFxUEgECAzMxMZGRmALA13WloaHj58CEtLS3h7e6ukQmbqjqamJszMzBASEoK4uDhERUWx2o+IiICdnR3EYjEaGxuhqampEOtE3VFvnWhpaaFNmzbs9seUlBTk5uaCy+UiKysLqampaGhogKurq0rQdYbGxkZAttqA0Q2jnZiYGLi7u0NbWxt1dXUQCoVNXkNN60JeNxoaGkhJSUFmZqaKbphMkk1l52J04+vrq6CbqKgoxMTEwMPDA3w+X62bdwT5Vd8BAQFwcnLCvXv38PjxY3b1WkZGBl68eAEDAwO0b98ejo6OSlcBm9TE0dERISEhiIyMRHR0NKKjo9G2bVsEBgbC1taW3bJtbGysMmmo5p9D7Uz6hzA2NkZQUBA0NTWRmpqK+vp6QGasy8vL8ejRI+jo6MDDw0PFmHJlqXhLS0tx5swZfP3115gyZQpmzpyJGTNmYObMmZg1axY2b96M0tJS9O/fH0uXLkV0dLTCddSoeZvgytLGurq6wsTEBMXFxQqr6XR0dJCXl4ecnBy4ubmpBOvjcDjskuknT55g1apV+PTTTzF9+nTMmjULM2bMwJw5c7BgwQIkJSUhODgYEydOxMiRI1+ZOVHN2w2Xy4W+vj5cXV1hamqK0tJSFd3k5+cjKyurSd1ANqCW181nn33WrG58fX0xYcIEjBkzRq0bNf8qjo6OCA4ORnV1NR4/fsz+XSAQoKCgAM+fP2dXMfv7+ysE2WY68vX19bh16xYWLVqECRMmYNasWfj4448xc+ZMzJkzh82s9MEHH2DJkiUIDAxkr6HeQtA6sbOzYycqCwoKkJubC6FQCH19fdTW1iI3NxdlZWWwsLBASEhIk+neDQwMUFlZie+++47VzaxZszBz5kzMnDkTixYtwuHDh+Hr64u5c+eib9++cHBwUL6MmlaEvG4KCwuRl5eHhoYGFd0wzummkggxZX/44QcF3TB2Z+HChdi3b5+Cbpjt6WpaJxoaGnBxcYGjoyO0tLSQkZGBwsJCtj2SSqVIT0+HUChEaGhok7phkkgcPXoUixcvxuzZs9nx7vTp0zF37lysXbsWNTU16NWrF6ZOnYru3burJ/z+JdS19W+Gw+FAQ0MDHh4ecHBwgLu7O9q1a4epU6di+fLl+PrrrzF69GiEhoZCX18f1tbW8PX1VegEMtdgOpBnzpzBnj172KWi+/fvx65du7B9+3Zs2bIF1dXV6Nq1K+Li4tgsRerU1WreNvh8PoKDg+Hj4wMtLS0EBwdj9OjRmDdvHr755hssWrQInTt3hrW1NWxtbeHu7s52cqVSKYgIGhoa4HK5yMnJwYULF3DkyBHs37+frRd79+7F5s2bsXfvXty+fRvu7u4YOHAgXFxclG9HTSuBz+cjMDAQ/v7+0NbWRmBgoIJuFi9ejPfeew82NjZvrJsDBw6o6CYpKQlOTk4qulGv0lDzT+Ps7IzIyEg4OTkhNDQUM2fOxNKlS7FgwQJMnjwZ7dq1g7a2Nuzt7dG2bVuFTjqHwwHJ0iVnZWXhxIkT2LdvH7tlfv/+/dizZw/WrVuHTZs2oa6uDrGxsYiPj4eTkxOg7ke0WhwcHNCxY0fY29vD0dERo0ePxuLFi7Fo0SIsXLgQQ4YMgY2NDWxsbBAXF9fk4I7P56Oqqgrnz59ndcNoZ9++fdi0aRM2bdqEe/fuwcLCAl27dkVkZKTyZd4p3vWBq7xu7O3tMWzYsCZ1Y2FhgXbt2jU52cLn81FTU4OLFy82qZvNmzdjw4YNCrqJjo5WWU38LvEuPpM8VlZWiIyMhL29PfT19dGlSxdMmzYNixYtwtKlSzF9+nQEBQXB0tISXl5eTa5M4vF4EAqFSElJwcmTJ9k+PfPf3377Ddu2bcORI0dQVFSEDh06oFu3buqVtP8SamfS34yGhgZCQkIQEBAAsVgMDoeDdu3aYfjw4ezKosGDByMoKIg9JyoqSiEQIofDAUcW2Z7J5sZkR6iqqkJFRQXKysqQlJSEH3/8EWfOnIGmpiY8PT3Z2AnqTqCatw1dXV1ER0fD1dUVjY2NcHZ2xtixYzF58mTMmjUL06dPR9u2bdm0oFZWVvDx8WG3bzKz5BwOh83KVVlZiYaGBlRWVqK6uholJSXIy8vDyZMnsXXrVhQVFcHPz08hLoR6tr11oauri8jISHh4eLCrMOR18/HHH7MB3SGnG8axzsSOaUo3VVVVKrrZsmUL8vLy2HgjDOqOipp/EiMjIzg5OcHc3Bx8Ph/e3t4YPXo05s6di8mTJ2P8+PGIjY0FZCuVoqKiYGNjo3wZkFI2N8ZWVlZWorS0FKmpqdiwYQNOnz4NoVCIkJAQNsuXuh/ROnFyckJYWBg0NTWhr6+PkSNH4vPPP8eUKVPw+eefY+DAgdDU1AQA+Pv7K8S/Yewch8NRyOZWWVmJqqoqVFZWory8HNnZ2exEZ3JyMjw8PF6Z5etd4F1vA+R1o6Ojg2HDhjWrGz8/P4Vgysy74cqyANbU1ABKuqmoqEBOTg4uXryooJvg4GB2ZdK7+I7fxWeSx9HREe3atWOTSXXq1AmTJ0/GlClTMHfuXIwYMQIeHh6ALJuzq6srHB0dFbapyY95Ga3U19ez+ikuLkZKSgp27tyJo0ePQk9PD76+vux44V1/x28bamfSP0BQUBB8fX1RVlaGvXv3Yvz48ZgwYQJmzJiBGTNmYOzYsZgxYwZOnjwJsViM0NBQuLm5KV8GRASSxfpojpqaGjYQrYGBAfT19dkZSTVq3ia0tbURFRUFU1NTnD59GkuXLsXEiRMxZcoUzJgxA9OnT8eIESMwf/58lJSUwNnZGSEhIeyAnojYGR6mXjRXNyoqKlBUVASRSASBQKAwe6GmdaGtrY3IyEhYWlri/PnzWLZsmYJuZsyYwQ6W5HXDzJrKa6SluhEKhdDW1lbPeqn5V9DX10dQUBDr1Nm+fTtGjBiBqVOnsrZy/Pjx+PTTT7F9+3ZUVVUhMDCw2aC4r+tHiMVith9hZGTEOmbVmm996OrqwsfHBzY2Nrh8+TLmzp2Ljz/+GFOnTsX06dMxdepUfPzxx/j8889x9+5dmJqawsfHh82MKu9AfJ1uAKC0tBT19fUwMDBQif+ppvWgra2toJtPP/20Wd3cuHEDBgYG8PHxYeMmKTue30Q3hoaGyofVtCLs7e0RGRmJ6upqbNu2DZ988gkmTJiA6dOnY8aMGZgyZQpGjBiBnTt3gojg5+eHwMBAdmubPK/qnwFASUkJysrK2PAHjANL3Vb9s6idSX8zurq6iIiIgKurK9LS0rBx40b8+uuv+OWXX7Bq1SqsWrUKGzduxA8//IBdu3bh5cuXaNOmjUKcD/lKQUSQSCTs/8vD5/Ph7u7ObsUoLS1FWVkZiEi9/1jNW4eTkxO7Ym/fvn345ptvsG7dOqxduxarVq3C6tWrsX37dqxduxZXrlyBQCBAbGwsq29lp4BEImm2bjg4OLCzFiUlJaitrVUuoqaV4OTkxMZxOXToEJYvX66gm1WrVmHbtm344YcfFHTDBJ+Vp6W6MTAwQEVFhYJu3vWl6mreHoyNjZGQkAAXFxc8evQIW7ZswY4dOxRs5fr167Fs2TKsX78ez58/h42NDbuFGLKssJCblGpO85DFSnF0dASHw0FRURHKysoAubhLaloH+vr6CAkJga+vL6RSKU6fPo3ly5fj+++/x5o1a7B69WqsWbMGq1atwrJly3Du3DlIpVIEBQUhPDwcWlpabGIDxt69amCnr68Pd3d3mJubo6KiAqWlpcpF1LQCBAIBgoODFXSzbNmyZnVz5swZSCQSBAQEICIiQkE3eM24BbI4h/K6KS4uVi6ippXA5XLh7e0Nd3d3ZGRk4Oeff8Y333yDX375BatXr8aqVavw448/YseOHdixYwcyMzPRpk0bxMbGNul8fpUDW0NDA56ennBzc0NjYyNKSkrYgO9q/lnUPYO/GSMjI3h4eEBPTw8pKSnIyclRLgLIGurnz58jPT0dAoEATk5OsLS0BOQab4lEgoaGBnaZsTJOTk4YOnQoOnbsCABIT09ng3QyS1HVqHkbsLKyQkBAAExNTVFYWIjk5GR2JlwZLpeLtLQ0lJaWwt/fn11hIu9kbWxsRE1NjcpsGGQNTmhoKPr37w87Ozu8ePECL1++ZI+rB0itB0Y3ZmZmKC4uxr1795odsGhqairopqlgsIxumuqAMLoZMGAAnJyckJWVpaAbtTNJzT+Fvr4+wsLCoKWlhbt37zZrK4kIDx8+ZAPSe3p6wtfXF5DLqkSybW5VVVUK5zI4OTmhb9++iI2NBZ/Px8OHD/HkyRNAVifUtB4MDAwQGhoKGxsbFBQUICsrS7mIAjk5OSgvL4ejoyMCAgLA5/MVnEny29yU4fP5CAoKQufOneHr64vs7GxWN2paF3p6eggJCXkj3ZSWlsLe3h5BQUEKuuFyuZBKpc1O4GlrayMgIEBBN48ePWrWgaDm7UVHRwe+vr5seJWnT58iLS1NuRhLeXk5UlJSoKenh6CgIIWV38w2t/r6+mbbKmtra3Tp0gVdu3YFEeHZs2dsf1Ddr/9nUb/tvxFzc3PExsbCz88PjY2NuHHjBtLT05WLsdy/fx/JycnQ1NREaGgoG/9AJBJBS0sLzs7O6Nq1K+bMmcMuGZw+fTpmzpyJzz77DJ999hmGDRsGIsL+/ftx5coVdjZAS0sLfD4fenp60NXVVVc0Nf8qYWFh6Ny5M7hcLp4+fcqmuG6KhoYGJCUlISsrC7a2tggNDYWRkRG0tbUhkUigoaGBqKgoTJ06FXPnzlXYJvfpp5/i66+/xvjx4+Hn54fk5GRs27YNz58/Z6/P4/HYrW/a2tpqJ8FbDKMbHo+HZ8+eKXxHZUQikYpuTE1NoaWlBalUqqCbTz75pFndBAUF4cGDB9i6dataN2r+URhN+fr6Ijo6GmKxGBcvXkR+fr5yUZaSkhI8ffoU9fX1CA0NRUJCArS1tSESiaCrqwszMzPExsZi3rx5GDduHKt5ph+xePFijBkzBlwuF2fPnsXFixfx4sULQNaP4PF40NXVha6urtq59JZjbW2N7t27w9bWFnfv3kVmZqZyEQUyMjLw6NEjuLi4oFOnTrCwsACHw2Ftppubm0JohunTp+Pjjz/G7NmzsXTpUsyePRuBgYHIzMzE4cOHce3aNfbaXC4Xenp60NPTA+//sXff8XEU9+P/X9d0p957l6xiy5ZsS+644QKmGVNswA3TDEkIhCSkUZx8Qk2AQAIBA8ahG3AvuHfhJlmWZBWr995P0p2k0+3vj69uf9JZMiZAUJnn47EP8O3s3Enam51978x7bGyGRR90uLb5Xl5e3HjjjVd93hQWFpKRkUFQUFC/501gYCC/+MUv+j1vnn/+ef7whz/0OW9OnDghPyxUqVTivBkiXF1dWbRoEXFxcTQ1NXHp0iU5N19/Kioq5DYiISGB2NhY6JVny97eniVLlvDHP/5RnmJpSWXw7LPP8uyzz3LnnXdib2/P7t272bFjh7xSulKpxNbWVr7nFdeqH9fQ/1YOYoGBgYwfPx6z2cylS5fIzMzs9wk4PU8L9Xo9mZmZlJSU4OTkRGxsLC4uLhgMBhobG9FoNMyaNYvf/va3vPXWW7z22mu89tpr/P3vf+e5555jxYoVuLu7c+DAAf75z3+SkpIi12/uSWTW2tpKe3u7iPoLP6nQ0FBCQkLIzc0lLS1NvgD0p7Ozk8zMTC5evIjZbMbPz4+oqCjs7e1pamqivb0dHx8ffvnLX/Liiy/yxhtv8Oqrr/Laa6/x/PPP85vf/IZp06ZRUlLCJ598wscff9znZqyzs5O2tjba2tro6OjoM+JJGFws501hYSGpqam0t7dbF5GZTKY+542vry/R0dE4ODjQ3Nzc57x54YUXBjxvKioq+PTTT/nwww/7nDddXV3ivBF+VEqlEh8fH0JCQrCxsaGwsJDz58/L084GUlRURHp6Ora2tkRGRqLVajEYDBgMBrq7u4mIiODpp5/mnXfekc/53v2IkJAQTp48yfvvv09ycrJcr6InaX17ezvt7e1XnLoi/PRcXFwIDQ2lra2NxMREqqurrYv0UV5ezunTpzEYDAQEBODi4oJaraarq0selfnoo4+yfv16+bx55ZVXePnll3n88ce54YYbaGhokFft6j2ixWw209raSmtrK52dncOiDzpc23wnJyfCwsKu+rypqqri1KlT6PX6Ac+bhx9+uN/z5oknnuCWW27pc94UFhb2mZEhzpuhwd7eXl4kJzk5+VtHtNXX15OSkkJhYSEqlYpRo0YRHByMJEnU1NQAMG/ePJ5++mleeeUVXn/9dV599VVeffVV1q1bxwMPPIC3tzeJiYm899577N27t8903N73vOJa9eNSrVu3bp31iz+16upqsrKyyMzMHHAKw1Dg5OSEVqulqKiIw4cPc+bMmQGDSRZdXV0YDAZycnLIzMwkNzeXjo4O1Go1JSUlpKSkkJGRwcWLF0lLSyMtLY0LFy6QnJzMwYMH+eqrr9i5cydpaWl9hgaq1WpMJhNVVVWcPXuW06dPDzjsdKhwcnJizJgxxMbG4ufnN+Iiz+np6Rw5cmTAKQ+DmYeHBwaDgRMnTnDy5MkBp3/SqxPa2dlJY2Mjqamp5OXl0dDQgLln+HR+fj4pKSmkp6f3+W4kJyfzzTffsHPnTrZu3crRo0epqqrqU79Op6OpqUkun5+fPyQvPMHBwYwfP55x48bJCXP7U1paSmJiIhUVFXR0dFjvHtQs583Jkyc5fvw4xcXFA3bMJEm67LzJycmRzxuDwXBV5822bds4cuQI5eXlferXarW0tLSQnp5OUlISubm5Q/K88fDwICoqivHjx8tTq4cbk8lEUVERR44cueKonsFGoVDIT1br6+s5cOAAx48fv2IQlZ6ft6GhgdLSUvm8tqwmW1xcTG5uLhcvXuxzzqempnL+/HkOHz7M5s2b2blzJ8nJyTQ2Nsr1qlQqFAoFTU1NnDlzhqSkJHl12aHG0dGR2267TV5VaCB6vZ4dO3ZQUlJivWvQc3Z2RqlUcvr0afbv309JSckV2/yuri6amppobGwkMzOT5ORk2trakCSJxsZGysvL+7SV6enppKWlkZKSQmJiIrt372br1q0cOnSIgoKCPueFWq1GoVCQlpbGyZMnKSkp+dbzeDCys7Njzpw5xMXFXXFEqsFgYMeOHXKqiaHE2dkZtVrNmTNnrvq8sazql5WVxblz5+TzpqmpifLy8j7tjeW8uXDhAidPnmTPnj1s2bKl3/NGpVKhVqvl86aoqGhI3rvY2dkxefJkJk2ahJeXl/VumVKpZP/+/SQnJw/YtxmstFotLi4uFBQUcPDgwStOycYqzUBRUREpKSmUlZXJf1+9Xs+FCxdIT0+XN8v16uzZsxw6dIitW7eyY8cOzp8/36c9USqVqNVqSktLSU5O5sKFC0MyF5etrS1RUVHExsYSHBws50AcbBTSIDxbU1NT+eKLL/jyyy/Jzc213j1kODk54erqislkQq/XDzjvszeVSoWzszOOjo5IkkR1dTUmkwkvLy9sbW2RelawsvzZFD3z2Ds7O2loaBiwwbexscHBwQFHR0dMJhM1NTXfGtga7Hx9fVmyZAnLly+X80mMJJ988gl/+tOfvjX6Pxj5+Pjg6OhIfX09LS0t/eY6sqbT6fDx8YGei0xLSwtarRYPDw/UarV8I2/5figUCjo6OuTl3gdiWXVGkiTa2tpobm4echdxeoYJ33bbbSxatIiYmBja29v7/BxqtRp7e3u++uor/vWvf5GSknLF38tg5OPjg5OTEw0NDTQ3N19VG2ZrayufN62trTQ3N6PRaPD09EStVvd7I2zJKXOlNtvR0VFedcZy3vRX12AXHh7OTTfdxJo1a4btUt5Go5FDhw7xzDPPcP78eevdg5qjo6P8YKqhoeGKnXMLlUolT2kzm83y6ABXV1d0Oh1qtbpP22DpR5hMJmpra/skz+3NMuXE1dWVzs5O6urqBiw72Hl6evLKK6+wdOlS2tvbUSqVffpV9LQdSUlJPPHEE5w5c8aqhsHNxsZGXhmrra2Nmpqaq2qfLG2jVqulubkZo9GISqXC0dEROzu7PnUoevKamM1mGhsbL2sve/dVtVotXl5eqFQqGhsbaW9vv6r2e7Dx8PDg2WefZeXKlTg4OAz4ELOhoYH777+fbdu2We8a1DQaDY6Ojri4uMjnzdX0h9RqNR4eHtja2vY5byzBcKkn8T+9zovu7m6ampouO29602g0+Pj4oFQq5UUwrqa/ONg4OzuzcuVK7r77bkaNGoWDg8NlbaeLiwvFxcU8++yzfPTRR31+Z0OBTqfDz88Ps9lMbW0tRqPxqh6weXh44OLigtFopKWlhfb2dlxcXHBxcen3d2Dpqzc1NV32O7RQqVS4ublha2srBzuHYvDaycmJm266iRUrVjB79ux+V7wbDAZlMOn8+fN8/vnnfPnll986V3cwUygUqFQqudG8Wpbj6LW8plKpvOJcYcsF/Ur+288zWHl6enLrrbeyYsUKpk2bNuKCSR9++CF/+MMf+iQFHiqUSiUqlQqTyXTZheJKLInke5/vltf6c7XnuuX7Zjabv9PnGUxGjRrFnDlzmDJlCqGhoXR0dFz2ZFin03Hs2DG2bNlCXl7ekLu4qtVq+by5mr8rPe2epW0wm810d3ejUCiu6ry5UptqOYfpVe9QFBwczPXXX89DDz3ExIkTrXcPCwaDgUOHDvHss88OuWASvUYEdXd3f6f2yXKO9+5HKBQKOVhi7Wray+HSj3BycuLnP/851157LUajEWVPomB6BZO0Wi2XLl3izTffJCsry6qGwU2hUMhtlNlsvuobcMvf15K3xHK+Wc7B/lxNe2lpcy3n8VC91np4ePDMM8+wcuVKHB0drxhMuu+++9i+fbv1rkHPcg5czX1Fb5b7lN7nzZXuXa62Dflv27/BxNbWluuuu4758+fj7++PnZ0dXV1dfX4eR0dHqqqq2LBhAwcOHBhyP2vvvpbJZLrqc0elUvW5pkg9K5AP9N2ip8/1bW2apb2RelaEu9rPM5jY2dlxww03yItr9U5SPpgMymDSsWPH+PDDD9mzZ89lU1IEwcLZ2Zn58+dz7733snDhQmxsbKyLDGsffPABv/3tb4f0VFDhh+Po6EhwcDB+fn44Oztf1vGyDPstLCwkMzOT1tbWPscLI5Obmxtz587liSeeYPr06da7h4Xm5mb27dvH888/T2pqqvVuYQRSqVTEx8cTHBwsTwG07g5rNBpqa2v55ptvBhz1LYwsHh4ePPnkk6xcuRJPT88Bb3gbGhpYs2YNO3bssN4ljFDh4eGEhITg4ODQ76horVaLXq8nOTlZ3PsK0HOdmjNnDqtXr+bWW2+9YgqLn9KgDCbt3buXDz74gMOHD1NXVyfnw7H+4gkjj+XJWHV1Nba2tkybNo01a9Zw6623otVqrYsPa++//z5PPvkkTU1NODk5YWtrK0f3hZHH8iRnoKeA9Hx/Ojo6aG1txWg00tXVNeDTZmF4szypc3JyYtq0afz+979nzpw51sWGhdraWr7++mtefPFFsrKy8Pb2RqPRiLZyhLI8+baMdBzoPFAqlXIKActUOGFksoyacHNz4/HHH2fVqlX4+/sPOMK1oaGBe++9l507d+Li4oJOpxsw8CQMb1JP2gVLezMQpVIpp0Vpa2uTR/CJPtrIZDKZUPes7r5q1SqWL1+Ok5OTdbFBYVAGkxITE/n888/ZtWsXgYGB3H///bi7u4sn6QI6nQ6z2cynn37KmTNnmDNnDsuXL2fevHkjbprbBx98wF//+lfc3d2ZPXs2MTExODs7iyeoI5RlKK/1iKSBWIIJoqMy8tjb21NUVMS+ffuoq6tjwoQJPPzww0ybNs266LDQ0tLCvn37+O1vf4skSfz+97/Hz88Po9EIw3h1HaF/llFI3zZdtvcUCXGOjEyWKV8mk4l3332X1NRUnnrqKR544AHc3d0HDA40NDRw1113kZiYyL333ktsbCxubm7Qs0KZMHL0bke+bTqohWhzRi6NRoNKpWL37t2cOHGC8ePHc/fdd3PzzTfj4OBgXXxQGJTBpAsXLrB9+3a++OIL5s6dy7/+9S/rIsII99prr7F+/Xquu+46li5dOiITcG/cuJF//OMfjBs3jgceeIDZs2dbFxEEQehXS0sLzz//PBcuXGDs2LHcc889wzZnUkdHBwcOHODBBx8kMjKSffv2odPprIsJgiAM6Fe/+hX//Oc/eeGFF1i7di0ODg4Djlarr6/njjvuoKCggH/84x/cdNNNI66PKgjCf++zzz7j73//O3Fxcdx5552DOgF3/63gT6z3k6DOzs4hueKD8OMyGo3yyIqrifIPV5Ik0dXVhcFgECOSBEG4anq9no6OjiGdDPdqST0rwigUCkwmkxjlLAjCd2bpY1nak2+j6FntzmAwDLmVUwVB+GkZDAa6u7uvejTbT2lQBpPoNezcbDaLYJJwGcsw4au9qA9XlsBrV1fXgEtkCoIgWOvs7JSnRI6kNlT0KQRB+G9096wEejUs5aSeXEuizREE4buwrPY3FPpogzaYJAiCIAiCIAiCMNhc6Qav974rlRMEQbgag7kdEcGkH9F3/cN/1/L9+SHqEARBEARBGIp+qH7QD1WPMDxdaZRS731XKicMfT9UO/Hf1PPfHCMMTYO5HRHBpB+R5Q/f2NhISUkJxcXFNDU1WReTWfI5NDQ0UF5eTnFxMUVFRVfcCgoKKCoqorm5Wa7DaDRSU1NDWVnZZeX72/Lz8ykvL8dgMFh/JEEQBgmz2UxLSwvl5eXk5ORw8eJFkpKSSE5O5uLFi+Tn51NRUUFbW5v1oZfp6uqirq6O/Px8srOzSU9PJy0tjYyMDAoLC6mpqRE5uARBGJIsqye1tLRQUVFBTk4O6enpnD9/nvPnz5Oenk5eXh5lZWVXzGVj6cO1tbVRWVlJXl4e6enpXLhwgYsXL5KTk0NJSQlNTU1iha4R6Eo38mJk0shhaSc6Ozupq6ujsLCQ7OxsLly4wLlz50hJSeHSpUsUFhZSX18/YEoKSz1dXV00NDRQVFREZmYm6enppKenk5mZSV5eHtXV1bS3t/c5Rhj+BnM7MihXc0tJSWHr1q189dVXTJ8+nTfeeGPQZjD/NpIksWnTJg4fPkxnZyc33XQTd9xxh3UxWXV1NQcOHCAlJYWGhgZ5zuRADUZbWxtOTk4sXbqURYsWoVQqycrKYu/evRQWFtLU1CQnVx2ojpaWFqKjo1m+fDlxcXHWuwelv/71r3z00UcsXLiQpUuXMnXq1BG3UsbGjRt59dVXiY6OZuXKlcyZMwdHR0frYsIQ1vt729zcTGJiIocPH+bs2bNUVlbS3t6OWq3Gzs6O4OBgEhISWLRoEdOmTeuzyoz197+srIxdu3bx9ddfU15eTl1dHSqVCnt7e2JiYpg6dSrXXXcd0dHR/R4vDH2FhYW89tprZGZmMm7cOFasWEF8fLx1sWHBaDRy4MAB1q5dS3BwMFu2bMHX19e6mDDE9W6nDAYDJ06c4PDhw5w5c4bKykr0ej0qlQpbW1tCQkKIiYlh0aJFXHvttX2WeO9djyRJnDlzhq+//pqzZ89SUFBAR0cHarUaPz8/IiMjuf7665k7dy7u7u5yHcLws3btWjZs2MBzzz0nr+bW+7zprb6+njvvvJOcnByef/55rrvuOry9va2LCUOYdb8oPz+fQ4cOcejQIfLy8qipqQFApVLh5eVFWFgY8+fPZ/78+YSEhPSph16BocrKSg4dOsT+/ftJT09Hr9djMplwcXHB39+fWbNmMX/+fOLi4lCr1XIdoo82vLzzzju89dZbxMXFsXTpUubOnYu9vb11sUFBtW7dunXWL/7UqqqqyM7OJjMzk8DAQBYtWjRkAwW1tbW8/fbbfPDBB6Snp+Pm5kZsbCyOjo79fvGrqqrYtm0b+/btIzMzk4aGBlpbW6mtraW2tpa6uro+W1lZGW1tbYwdO5bY2FgUCgXp6el8+eWXJCYmkpOTQ2trK83NzdTU1Fx2fF1dHcXFxdja2hIfH09QUJD1RxqUjh8/TlpaGuHh4cTExBAQEDDgRX24unDhAqdOncLDw4O4uDhCQkLQarXWxYQhTKFQ0N3dTV5eHlu2bOHTTz/lzJkzVFRUoFQq0el0aDQaurq65CfnRUVFdHR04ObmhrOzs1yPxblz5/jkk0/Yt28fubm5SJKERqNBoVDQ2dlJbW0tWVlZ1NTUoFKpcHNzw9bWttenEoaDpqYmTp8+TW1tLd7e3sTGxuLn52ddbFgwmUwUFBSwa9cuXFxcWLZsmQi8D0OKnhFJxcXFbN68mU8//ZSTJ09SXV2NJElotVo0Go08Ajw7O5vi4mL0ej2urq64ubnJ9dAzqvzYsWN89tlnHD58mObmZiRJQq1Wo1QqaWpqoqioiMLCQhoaGnBycsLHx8fqUwnDxa5du0hJSWHevHkkJCRgY2PT56FNbwaDgS+//JL6+nrmzZvHqFGjcHBwsC4mDGGWdqK9vZ3jx4/zySefsHPnTjIyMmhra8PGxgatVotSqaStrY2CggIKCgqoqKhAq9Xi4+ODWq1GoVDIdeXl5fH555+zefNmiouLMRgMqNVqVCoVRqNRHvlUUlKCUqnEx8cHjUYz4HkoDF3JycmcO3cOHx8fYmJiCA0NxcbGxrrYoCCCST+irq4uLl68yOeff05paSmSJOHq6oqvry9eXl79Rhhra2s5evQoly5dQqfTERsby8SJEwkICCAoKIjg4OA+m7+/PxERESQkJBAWFgZAVlYWx44do7q6Gjc3NyZNmkRMTAz+/v6XHW+pY+zYsUyYMAFPT0/rjzQoiWCSCCaNFPn5+Wzbto23336bM2fOEBAQwI033siKFSu48847WbhwIZMmTUKj0VBQUEBiYiL5+fn4+fkREBAgj+qUJIn29nbef/99Xn/9dbq6uli4cCHLli3j7rvvZs6cOUyYMIHu7m7OnTvH2bNnqampITQ0lNDQUOuPJQxxIpgkgknDUX19PRs3bpTbS3d3d26++Wa5nbvuuuuYPHkyjo6OFBUVcerUKVJSUnBxcWH8+PF9+prHjh1j48aN7N+/H1tbW5YuXcry5cu55ZZbuPbaa/H29qapqYkTJ06QnJyMl5cXERER2Nraipu7YUgEkwRrRqORM2fO8MEHH/DRRx9RV1fHlClTuO2227j33nu56aabmDdvHiEhIbS2tnL+/HmOHz+O2WwmPDwcZ2dnuc2pqKhg3759vPnmm+Tm5rJw4ULuvvtubrvtNm644QZiYmJwdHQkNTWVkydP0tbWhoeHB/7+/qLvPwyJYNL3NFyCSQUFBRw+fJgLFy5QW1uLu7s7NjY2KBQKoqKi8PLysj6E2tpajh07RllZGYGBgdx2220sWbKE0aNHExsbS1xcXJ9twoQJjB8/nvDwcPlClZmZyalTp+QRS3fffTcLFiwgOjr6suPj4uIYP348sbGxBAQEDJkGSQSTRDBppPjqq69Yv3491dXVzJgxg7Vr13LbbbcxZswYwsPDCQwMJCQkhNGjRxMWFkZRURHp6enU1NTg6enJ2LFjoWc665kzZ9i2bRtlZWXcddddPPLII8TGxhIeHk5AQACRkZF4eXlhY2PDpUuXuHDhAlFRUcycOdP6YwlDnAgmiWDScNPW1saRI0d46623KC4uZsGCBSxfvpwlS5bI/aTAwEBCQ0MJCQkhKioKg8EgpxWwPOyzBOA//vhjvvrqK6Kiorj77ru56aabmDBhAoGBgQQFBREREcG4ceMoKSkhIyODzs5OPD09iYiIGJJ9VuHKrINJWq223xkG9AQZvvjiC+rr65k/f36fProwfJSUlPDmm2+ye/duXFxcuOOOO3j44Ye55ppriIqKIjg4WB4IMGHCBLRaLRcvXiQvL4+Ojg65zwVw6tQpvvjiC+rq6pg+fTpr1qxhzpw58oP/sLAwYmJi6OzspKCggJycHBQKBddcc424ng1D1sGksLCwQXtd6T+kLvwgsrOzOXbsGC4uLlx//fXMmTMHehqMsrIy6+IyhUKBTqfDx8eHhIQEIiIimDBhAvHx8ZdtkydPZuLEiX3mYkuShEqlkvOoTJ8+nYiIiMuOtWxTp04lJiYGJyenPp9DEISfTkdHB7m5uRw8eJDMzEwmTJjAr371K1avXk1kZCTe3t44ODjg5OSEt7c3EyZM4MEHH2TNmjX4+vqSmJjI/v37aWlpgZ6h2ElJSZSWlhIUFMQNN9zAmDFj8Pb2xs7ODhcXFzw8PFiwYAEPPvggN9xwAy4uLhgMBtrb2zGbzdYfURAEYdBISUlh9+7dZGdnM2rUKH7+85+zdu1axo0bh7e3N/b29jg6OuLp6Ul8fDyrV6/m/vvvJzAwkAsXLvD5559TUlIi15eTk0N1dTXx8fHcdtttxMTE4ODggIODA87OzoSFhTFv3jxWrVrFxIkTkSSJiooK0VaOEJZcN/3pve9K5YShq7W1laSkJPbu3UtLSwvLli3j8ccfZ+bMmYSEhODs7Cy3FaNGjWLWrFk88sgjLF68mObmZrZs2UJqaqpcX2FhIefPn8fb25tFixYxd+5cXF1dcXJywsHBAR8fH8aOHcvy5cu57bbb8PDwoL6+XiT/HyEGczsigkk/oqKiIlJSUnB3d2fOnDlMnjwZGxsbcnJyqKystC5+GbPZjMlksn75W/V+UvLf1iEIwk+rqamJxMREsrOz0el0LFq0iIULF1oXu8w111zD9ddfj0qloqCggIyMDHlfU1MTbW1tKJXKK47kCw4O5uabb+a+++4jLi5O3BwJgjDopaenk5SUhJubGzNmzGDixIlygtqBREREsGDBAuzs7EhLS6O2thZ6pssZjUbo6VMNNJ0JYNy4cdx3333ceuutREdHf+t7CoIw9OXm5pKYmEhDQwNjx47ljjvuIDIy0rpYH15eXixevJi4uDiam5vJysqioaEBelaDa2xspLOz84r9Mz8/P2688UaWL1/Otdde22/KFEH4Xxr46ih8L+3t7WRkZFBaWsqoUaPkebN+fn40NjZy8eJFKisr+w30WJJImkwmeflHS1Co99bV1YXJZKK7u7vfiKXZbKarq0teKtz6+N6buFkUhMGlubmZM2fOUFtby6hRo5gwYYI8xLW/77vFxIkTueaaa7C1taW4uJiMjAz0ej12dnb4+fmh0+koLi5m+/btJCUlkZubS0NDQ5+2yNnZmQULFnDvvfeSkJAgbo4EQRj0srOzuXTpEsHBwUyePFmePnKl9tLf359rrrkGT09PKioqKC4uBsDGxkZene3UqVN8+eWXnDp1ioqKCnm0p8WECRO48847ueWWWxg7dqxoLwVhBMjLy+P8+fNotVpiY2MZN26cdZHLuLm5MXfuXEaPHk1nZyfZ2dnk5eUB4OHhgYuLCyUlJezbt49du3ZRVFRETU0NHR0dch3e3t7MnTuXe+65hwULFohgkvCTE8GkH0FLSwvJyckUFBSg0+kYNWoUUVFRxMbGEhoaikKhICMjg+TkZDo7O60PB6C7uxu9Xk9JSQllZWXk5ORw6dKly7aCggKqqqrkJ2j0Gplk6lmxJD8/n7KyssuOtXS8ioqKqK+v7zewJQjCT8NoNFJaWoparSYyMlLO44HV6ENrKpUKX19fbG1taW1tpbq6mqamJpycnORps01NTXz00Uf89a9/5fPPP+ebb74hJydHDjzTE1AaO3YsQUFB6HS6Kz6ZFwRB+Cl1d3dTV1eH0WgkKCiIgIAAurq64FvaS61WS1BQED4+PiiVSiorK2lsbMTR0ZFx48bh7u7OqVOneOutt9iwYQPbtm3j3LlzlJSU9OkzeXl5MWrUKAIDA684qkAQhOGhvr6e6upqfHx8CA4Ovqp7KIVCgZeXFx4eHtCrDkmS5MWUmpub2bp1K2+99RYbN27k2LFjZGZm0tzcLNej1WqJiooiOjpa5EoVfnLi7uBHYJme0tjYyNixY4mKioKemzxL0tyCggLOnDlz2VxXpVKJWq2mtbWV5ORkXnrpJVavXs3DDz/Mz372M3l7+OGHeeihh/j973/Pxo0bKSoqkutQqVRIkkRDQwMHDx7kj3/8I6tXr+5z/M9+9jMeeughfvazn7Fu3Tp27drVp6ESBOGn1dnZSV1dHfTcqPQOJn0bFxcXHBwcMJvNtLS0oNfrUSgUxMXFsWzZMm6//Xa8vLz45ptvWL9+PX/4wx/45S9/yX333cdvf/tb3njjDc6dO4fZbL7ijZggCMJg0NzcjF6vh54n/O7u7lfVdlnyUzo7O2MymdDr9XJf6Prrr+fXv/418+bNw2AwsHfvXl555RV+97vf8eCDD/LQQw/xpz/9iU8++YSMjAwUvZb4vtJoKEEQhj69Xk9TUxOOjo54eHh8pwduLi4uqFQqDAYDjY2NGI1G4uLiuPfee1m2bBmBgYFcvHiR9957j2eeeYZHH32Uhx56iF/84hf84x//4ODBg7S3t8vvKdob4ad09We+cNWqq6s5efIker2eMWPG9HlKZUnEVl1dzfnz5/sN4CgUCkwmE01NTeTm5nL+/HkuXLhAamqqvF24cIGUlBQyMjIoKSnpM6LA0pnp6uqipqaGzMxMkpOT+xxvqSM1NZXs7GyqqqquKqouCML/hmWqqyRJqNXqq7ox6k2tVsttj+W7bW9vz80338wvf/lLli9fTlxcHDY2NhQVFXHy5Em++OIL3n77bd58803ee+89duzYQXl5uVXNgiAIg4vRaMRsNssP5K72xk6hUFxW3pJCIDIykp/97Gf8/Oc/56abbiI4OBij0Uh2djb79+/nww8/ZP369bz55pt8+OGHnDhxgo6ODiRJ+s7ttSAIQ0t3dzcmk0luc76L3u2UJY2JRqPhxhtv5OGHH2bVqlUkJCRgZ2dHZWUlZ8+eZfPmzWzYsIF//vOfvPvuu2zevJmysjK6urpEeyP8pK7uait8J7W1tVy8eJHGxkZsbGzIysri+PHjHDx4kNLSUnQ6HW1tbfIUtt4sN5BOTk7MmDGDF198kb1797Jlyxa++uoreduyZQvbt2/n3Xff5Ze//GWfpG8mkwmFQoGHhweLFy9m/fr17N27t8/xX331Fdu2beOrr77ijTfeYNmyZbi4uPT5LIIg/HSUSiUajYbu7m7a2tq+U7DXkiutu7sbnU7Xp6Njb2/P5MmTefDBB3n99df5/PPP+fjjj3n++ed59NFHiY+Pp6GhgQ8++ICnn36ar7/+mq6uLvHkSxCEQcvGxgaVSoXZbKa9vR2j0XhVbZbJZKKlpQWDwYBSqUSn0/VpM52dnZk3bx6///3vWb9+PZ999hnvvPMOzz33HHfddRdhYWFkZGTw3nvv8eqrr7J79+4++U0EQRieVCoVKpUKo9FIe3v7VbU3FgaDgY6ODlQqFTqdrs+gg7i4OO677z5eeuklPvnkEz755BPeeOMNfv7znzNv3jy6urrYuXMnzzzzDG+99ZacwFsQfioimPQD6u7upqGhgczMTKqrq2lsbKS0tJT9+/fzn//8h08++YRvvvmG2tpaTCYTdXV1nD9/vs+Tf0mSMJvNaLVaAgICmDt3LlOmTOHaa69l/vz58rZgwQIWLlzIrFmziImJwcnJqU8dAHZ2dkRGRrJo0SKmTp3a5/j58+ezcOFC5s+fz/Tp0wkLC0Or1X6nxlAQhB+PRqPB3d0dk8lERUXFVd2gWL6/VVVVtLW1YW9vj6+vL87OzgAUFxdTUVEhT+0YM2YMkyZNYvHixSxfvpz77ruPBx54gNWrV+Pj40NGRgYHDx4kOzv7qt5fEAThp2BZhpueB3r19fVX9bTeYDBQWlpKXV0dCoUCHx8fnJycqK+vp7KykurqapycnAgNDWXMmDHMmjWLpUuXsmrVKh588EEefPBBZs+ejUKh4MCBA+zZsweDwWD9NoIgDDOOjo44OzvT0NBATU3NVY+GNBgMcgoDy5Tcjo4Ompqa5JQlvr6+REREMGnSJG688Ubuuece1qxZw4MPPsidd97J6NGjKS4uZvfu3eTm5lq9gyD8b13dmS9cFZPJREpKCunp6eh0Ouzs7GhoaKCgoID09HR5Slp7ezt2dnaYzWbOnTvXb0NgWYmttbXVetdVM5vNGI1GOY/A1biazpcgCD8+nU5HcHAwarWa4uJiGhsbrYv0q7Kykry8PDo7O/Hy8iI0NBQvLy8aGxvZv38/+/bt49KlS/JKkRZeXl6MHz+ee+65hxdffJEHH3wQGxsbCgoKSEtLu6y8IAjCYKHRaPD09MTGxoaKigrKysouy0nZn5aWFrKzs6mtrcXBwYHg4GAcHR0pLCzk4MGDHDhw4LKpvmq1Gj8/P2bPns0DDzzA448/zqJFi+jo6CAzM3PAhVUEQRg+PDw88PX1pbm5mbKysj4LIQ2kvb2d7OxsKisrUSqVhISE4OfnR3t7O6dOnWLbtm1kZGRYH4ajoyPjx4/nlltu4YknnuCXv/wlISEh1NTUkJ+fT1NTk/UhgvA/I4JJP7CzZ8+Snp5OYGAgd911F08++SRPPPEEv/jFL3j00Ud58skn+dWvfsXixYtxdHTk7NmzXLp0ST7eMrJAoVCgVCq/V5Z+Sy4AnU5nvUsQhEHOycmJ8ePH4+bmRlFREWlpad/aWVEoFKSnp3P06FEMBgPBwcGMGzcOjUZDTU0N27dvZ9OmTSQnJ18WHLIEki1z+SMiIrCzs6O9vZ3m5uarujETBEH4qYSHhxMcHExWVtYVV8vtraGhgcOHD9Pc3Mzo0aMJDAzEbDZTUFDAF198wccff0xVVVWfYyz9M4vo6Giio6Ohpz6z2dyrtCAIw1FISAjjxo2js7OTjIwMMjMzrYtcxmg0cuTIEdLS0rC1tWXMmDFERkZiNps5evQoGzdu5Ny5cwP2zwD8/f2ZOHEizs7OtLa20traKkaOCz8pEUz6ATU1NZGUlER5eTkTJ05k5cqV3HHHHfKQ6JUrV7JkyRJWrlzJsmXLCA8PJz8/n8zMTDmIpFQqUSgUSJLUZ2SSyWSio6ODjo4OOjs75f+3/Lu/fCpms5nOzk55ZFLvY6zr6ezsFDeLgjCIODs7M23aNMaNG0dXVxdHjx5l586dVFZWWheVVVVV8fXXX3PhwgWCgoKYMmUKfn5+0PP9r62t5ezZs+zbt6/fp1+9VVZWolAocHd3x8PD4zsnmBQEQfhfmjhxIrNnz8ZgMJCYmMiJEydoaGjot2/T2dlJW1sbiYmJnDt3Dm9vb2644Qb8/PzkRQ9yc3M5cOAAiYmJGI3GfusBKC8vp6WlBXt7e9zd3fvkPxEEYXgKDw9nxowZ+Pv7U1xczI4dOzh9+jRdXV3WReUAc1JSErt27UKv1zN58mT5YZ+DgwN1dXWkpqZy8OBBzp07R0tLi3U10LOKnCX1gb29PS4uLt9ptV9B+KGJYNIPqLS0lIKCArq7u4mNjSUoKMi6iCw8PJzo6Gi6urooKioiLy8PeoZPKxQKuru7aW9vl+fsFxUVUVxcTHFxcZ//LywsvGwKjOWJmclkkodfVldXy8dY11NQUEB5eTmtra0DdpYEQfjfsrW1ZezYsUybNg0fHx+OHj3KW2+9xYEDB6ipqbEuTlpaGu+//z6bNm2ivb2d22+/nXnz5sn7nZ2dmT17Njqdjj179rBv377Lpm/QExTfu3cvO3fupLGxER8fH2JiYrC1tbUuKgiCMGjEx8dz4403EhoaysWLF3nppZf47LPPLhtZBFBYWMibb77J+vXraWlpYcaMGSxZsgR3d3c0Gg2TJ08mKioKs9nMp59+yqZNm/q9uauvr+fgwYPs3LkThUJBZGQkNjY21sUEQRhmXF1dmTRpEgkJCbS1tfHhhx+yceNGUlJSLsub1trayt69e3n33Xc5cuQIYWFhrFq1iuDgYLmu0aNH4+TkxJEjR/j0008pKCjoU4fFyZMn+eijj8jOzsbV1ZWwsDAcHR2tiwnC/4xq3bp166xf/KlVVVWRnZ1NZmYmgYGBLFq0CI1GY11sUCksLGTXrl1s3boVV1dXfv7znxMbG2tdDHqmsrm7u1NdXc3u3btpbW3Fz8+PmJgYOjo6OHDgAGlpadTW1lJbW0tmZiYnTpzg1KlTl21HjhwhOTkZlUqFv78/Op2O3NxcDh06RFFREbW1tVRXV5OSkjJgHYcOHaKwsBBnZ2fc3d2HREfo+PHjpKWlER4eTkxMDAEBASPuaeCFCxc4deoUHh4exMXFERIS8r2mRQqDR++lpZ2cnFAqlVRXV5Ofny/nRMrPzycnJ4eUlBSOHTvGli1bOHz4MEajkYULF7JmzRoSEhLkeiw5RZqamsjJyaGmpoaSkhIKCwspKSkhNTWVpKQkdu/ezc6dOyksLCQoKIilS5cyb948bGxsRE61YaSpqYnTp09TW1uLt7c3sbGx8ii24cZkMlFQUMCuXbtwcXFh2bJlovM9DKnVatzd3TGbzdTW1pKbm0tRURFlZWVcunSJ/Px8Lly4wPHjx9m1axc7d+6kubmZ2bNns2rVKmbMmCE/jHNycqKjo4OamhqKiorIycmhtraW0tJSLl26RGpqKkePHmXv3r0cOHCAxsZG5syZwx133EF0dLQYyTkM7dq1i5SUFObNm0dCQgJarXbAa6LRaOSLL76gvr6e+fPnEx4eLieIF4YPFxcXbG1tMRgMFBcXU1JSQmlpKTk5ORQVFZGenk5ycjJff/01mzdvJiMjA29vb1asWMGyZcvw8vKSzyEbGxu6u7spLi4mLy+Puro6edBAVlYWZ86cYf/+/Wzfvp20tDT8/f1ZsmQJ1113nTi3hqHk5GTOnTsnP9ANCwsbvLEQaRA6f/689PTTT0ujR4+W7r//fqmtrc26yKBz+PBhadmyZZKzs7O0aNEiqayszLrIZY4fPy6FhoZKTk5O0gMPPCAVFxdLVVVV0v333y+5uLhIwFVtKpVK+s1vfiOVlJRIkiRJ+/fvl2bNmiXZ2dldVnagLSwsTHr33Xel2tpa6485KP3f//2fFBkZKf3iF7+Qjh8/LnV2dloXGfY++OADady4cdKdd94p7dixQ2ppabEuIgwTtbW10vr166XZs2dLTk5OEiApFApJqVRKCoVCbgciIiKkP/zhD1JaWprU3t5uXY0kSZJ04sQJ6YEHHpCCg4Pl42xtbSUHBwdJqVRKKpVKcnNzk26//Xbpo48+kkpLS62rEIaBgoIC6dFHH5XmzZsnPf7441JSUpJ1kWHDYDBIO3bskHx9faWpU6dKFRUV1kWEYcJkMklNTU3SZ599Ji1atKhPX0qpVEpKpVICJLVaLQUFBUmPPvqolJycLBmNRuuqpIaGBmn79u3SzTffLOl0OkmpVEoajUZycnKStFqt3A6HhYVJDz30kHT06FGpu7tbMpvN1lUJw8BDDz0kqdVq6aWXXpKampokk8lkXURWV1cnzZ07V/L395f+85//SFVVVdZFhGEkKSlJeuKJJ6SoqCi5vbH00Sxtj06nkxYuXCht3LhRKi8vt65CkiRJys7Oln73u99JISEhklqtlgDJzs5OsrOzk1QqlQRIzs7O0rx586R33nlHKisrG5H3PyPB22+/LcXGxkorV66Udu7cKbW2tloXGTQU0iBcCz4lJYWtW7fy1VdfMX36dN54441BPx/UkiC3qqqKoKAgrr322m8d4VNXV8f+/ftpbm4mJCSEadOmodVqOX36NHl5ebS0tNDR0YHZbB7w6UdHRwe2trZMnjyZSZMm4eTkRFlZGefOnaOqqgq9Xo/JZLpiHQaDAT8/P6ZPn05UVNSQmM7y17/+lY8++oiFCxeydOlSpk6dOngjtj+SjRs38uqrrxIdHc3KlSuZM2eOeNo+zPQeoVRWVkZycjI5OTnk5+fT0NCAwWBArVbj6OhIQEAAUVFRxMfHM3r06D4j9XrX09raSnp6OmlpaWRmZlJXV0d7ezsajQaNRoOXlxeBgYGMHz+eMWPG4O3tPWDbIQxdhYWFvPbaa2RmZjJu3DhWrFhBfHy8dbFhwWg0cuDAAdauXUtwcDBbtmzB19fXupgwjNTW1nL+/HkuXrxIQUGB3M6p1WocHBzw9/cnJCSESZMmERsbO2D/obGxUX5CXFxcLCfYVigUODo64uHhwahRo4iNjSUmJkZcg4extWvXsmHDBp577jnWrl2Lg4PDgCPi6+vrufPOO8nJyeH555/nuuuuw9vb27qYMIT17ldZknCnpaXJq7U1NjYiSRJarRZPT08CAgKYMGEC48eP73P96V2PJEmkp6dz9uxZcnNzKS8vx2AwIEkSdnZ2ODk5ERQURExMDOPHjycwMFCuRxhe3nnnHd566y3i4uJYunQpc+fOxd7e3rrYoCCCST+A3g1Bb2azuc+KH71dad/3MdBnGW5EMEkEk0aK/r7TLS0tlJeX09bWhlarxdXVFX9//8vKWR9r/e/Ozk5KSkpobm5GrVbj7OyMt7f3ZQFl6+OEoU8Ek0QwaaRobW2loqICvV6PRqPB3d0dHx+fAQMBA6mvr6eqqgqDwYBOp8PLywsvLy/rYsIwJYJJQn/66x9VVFRQXV2NJEnY29vj5eWFq6trnzLfpquri8rKSurr65EkCRcXF7y8vMSUthFiKAWTfvhoxghk3YhYDPQ637Lv+/ix6hUE4afR33fa0dGR0NBQRo8ezahRo/Dx8em3nPVr1v+2sbEhMDCQ6OhoIiIi8PPzuyyQRD/HCYIgDBUODg4EBwfL7Zy3t/eAQYArcXV1JTw8nNGjRxMeHo67u7t1EUEQRpj++kdeXl5ERUURHR1NcHAwLi4u1kW+lUajwdfXV64nICBABJKEQUkEk35E/TUwFlfaJwiCcCUKhQKdToe9vT22trbfK9mrVqvF3t4eOzu7b52aKwiCMBRZ2rnv014qlco+7e5/E5ASho8r9eN777tSOWF4UqvV2NnZYWdnh06n+6/PAY1GI9cj+mcj2397Dv0viGCSIAiCIAiCIAjCVbpSlpDe+65UThAE4WoM5nZkUAaTev/CFAqFePojXObHyDc11Fi+J0qlErVaLZ5aCIJw1TQazYi8tioUCnH9EAThO/uu7YYll45arR5xOT0FQfh+1Go1CoViUI9IslCtW7dunfWLP7XKykqysrLIysoiICCAhQsXYmNjM6ijcsL/huVLdfToUdLS0ggPDycmJoaAgIARd2OUmprKqVOncHNzY/To0XK+m66uLsxms9jEJjax9bupVCqqqqo4deoUtbW1eHt7Exsbi5+fn3UzMyyYTCYKCgrYtWsXzs7O3HnnnfJiBaJfIQjCQHrfyO3YsYMLFy4wf/584uPj0Wq1A97oGQwGvvzyS+rq6pg9ezZBQUE4OjoiSZK8wrLYxCY2sVlvlnvZ06dPc+7cOXx9fRk7diyhoaGDNig9KFdzO3/+vLya29SpU/nHP/6Bs7MzXV1d1kWFEcbyRfrzn//MJ598wsKFC1m2bNmIXM3tww8/5JVXXiEoKIhbb72VadOm4enpicFgsC4qCIIgc3Z2Jj09nffee4+SkhImTpzI8uXLmTBhgnXRYaGjo4ODBw/y0EMPERgYyJdffklgYCAmkwlEQEkQhAEolUpUKhXd3d08/PDDbNy4kRdeeIG1a9dib28/4GilhoYGli5dSnp6Or///e+ZNWsWvr6+SJJEd3e3dXFBEAToye+n0Wh4++23+eSTT5g8eTLLli1j1qxZg3Zl+0EZTEpNTWXTpk385z//wd7enuXLl+Pi4kJ7e7t1UWGE0Wq1mM1mNm/eTE5ODnfeeScrV65k8uTJIy6YtGHDBtatW4dOp2P8+PGEhITg4OAggq7DTO8nFr2ba0snt79hsJIkIUkSZrO5z+vWLFN+rI+n1w225X2VSuWAHWdhaNHpdFRWVnLq1Cna29tJSEjgZz/7GdOmTbMuOizo9Xr27dvHk08+icFg4Be/+AVeXl50dHSACCYNGwqFQr5Zt7SBUs9UI0tbN1AbdrXtZX/trUXv9xyoXRWGFkXPNDWTycR//vMfMjMzeeqpp7j//vtxd3cfcER8Q0MD99xzD/v37+emm24iPDwcJycn+fwQhgdLu2HpJ1n+tpb2xtJHs2Y57tvOBUs7MlAdlnqu1JcThha1Wo1SqeTEiRNcvHhRfth38803D9rV/AZlMCk7O5tNmzbxzjvvUFlZKX9JBuFHFX4iZrMZBwcH7rvvPlavXk1sbOx/vULLUPXOO+/w2GOP0dHRIec/EReS4ad3p6N3G3g1N0fWx1i72psjepUVhj6FQoHJZKKzsxM7OzsSEhJ4+umnmT9/vnXRYaGmpoY9e/bwt7/9jczMTGxtbUWfYhhS9ASTrNtLS7vV+8bM+m//bW0lV9kGWuoR/dbhw3K+tLe34+rqymOPPcaqVasIDAwcsN/Z0NDAqlWr2L17N2q1Ws5/Igw/vdsb6/7SQAGe3mUHaiMsdfR3vIWlvbO8lzB8GAwGNBoNY8eOZdWqVaxZswZnZ2frYoPCoAwmNTU1cfHiRU6ePElubi70fFmv9IUSRgZLJw0gMDCQGTNmMHHiRNzc3EZcQ/rBBx/wxBNP0NTUZL1LGGaUSiU+Pj64ubmhUqkwGo3U1tbS0NBgXfQy/XVi+xvpdCVKpfJbn9oLQ5O7uztz587lV7/6FdOnT7fePSw0NTWxf/9+XnjhBS5cuGC9WxiGXF1dcXR0RK1WYzAYaG5uFqPbhe/Nw8OD3/72t6xcuRIvL68rjkxas2YNO3bssN4lDEOOjo54enri6OiI2WymtbWVkpKSb53SaBm9ZLm3sfzXbDZ/67EWlmmYwvBjY2PDzJkzWbVqFUuWLJFzPQ42gzKYZNHe3k5HR8dlN0KCIEkSGo1m0A75+1/49NNP+dOf/kRRUZH1LmEYUCgU6HQ6IiIiGDduHIGBgXh6eqLRaOjo6KCiooKUlBSysrLQ6/UYDAY5OOTg4MCoUaMICgrCycnpsifklqdZjY2NlJaWUllZiV6vp6urSy5nY2ODh4cHEyZMwNbWlqSkJEpLS0WnZZiJjIzkpptukkd4DkcdHR0cPnyYp556ivPnz1vvFoYJnU6Hv78/o0ePJjw8HEdHR2xsbDAYDDQ2NpKTk8OlS5eoq6ujs7OzT5sYGRnJ6NGj+w2+K3pG8rW3t1NVVUVFRQUtLS3yNEl6buh8fHwIDQ3Fw8ODnJwcMjMz+9QjDH0eHh6sW7eOlStX4uDgMOBDzIaGBu6//362bdtmvUsYJhQKBd7e3kRHRzNmzBi8vb1xcXFBkiRaW1vJysoiNTWV0tJS2tra5Bx9AH5+fkRGRuLp6Ymdnd1lD+vMZjNdXV1UVlZSUlJCY2Mjra2tcjmFQoGdnR1hYWGMHTuWqqoqkpOT+5QRhj4nJyduueUWVq5cyTXXXCNyJgmC8MP69NNPeeqppygsLLTeJQxRlidT9CRJvuWWW7j77rsZP348bW1tNDc3y/vs7OxobW3lyJEjbNq0ibNnz9LW1gaAv78/d9xxBwsXLiQ8PBx7e/s+T70UCgUajQaj0Uh9fT27d+/m008/JT8/X75BcnR0JDY2ll/96ld4eXnx8ssvc+jQIZHgfZiJjIzk5ptvZtWqVcM2mGQ0Gjl8+DBPP/20CCYNY0uXLmX16tWMGjUKjUZDdXU1APb29ri7u9PS0kJ6ejoff/wxu3bt6nPTde+99/LII4/g6OiIVquVR5woFApUKhVKpZLu7m7q6uo4ffo0GzZs4Ny5c/LxOp2OWbNmcdtttxEfH8/GjRt588035f3C8CCCSSNb7z6aZfrR/Pnz8fPzo7q6mo6ODmxsbHB3dwegtLSULVu2sHnzZsrKyuScpjNnzmTZsmWMHz+ewMBAFL2mxfZuc9rb28nIyODLL79k9+7dNDY20t3djVKpxNvbm8WLF/Pggw9y5swZ/v73v1NaWirypg4jlvuAFStWDOpgUv+toCAIgvA/Z+lIAEyfPp377ruPhIQE+anTkSNHOHLkCEePHiUjIwM/Pz+WLl3K2rVrueaaa+R67OzsiIiIICEhgaioKPR6PcnJyaSnp5Oenk5GRgYZGRm0t7czfvx4Vq5cycqVK4mIiJDrUKvVuLu7k5CQwIwZM/Dx8RlwSL8wtI2EZ0oj4WccqRwcHJg6dSp33303c+fOpaOjg7Nnz3L27FlOnjzJuXPnyMjIwNnZmSVLlnDvvfcyb948XFxc5DoiIiKYPHkyERERdHd3k5eXx8WLF8nOziYjI4O8vDwaGhoYPXo099xzD0uXLmXcuHHY2NhAz3QVLy8vJk6cSEJCAuHh4b0+oTCcSFeRX0sYnix/d1dXV2699Vbuvvtu3NzcyMrK4tSpUxw+fJhjx45x/PhxWlpamDx5Mvfddx8rV64kJCRErsfDw4OxY8eSkJCAh4cHBQUFJCcnk5GRwcWLF+U2x8nJieuvv54HHniARYsWycEEhUKBVqslJCSEiRMnEhsbKz80FIYPS/By0Lc3kiAIQ9Inn3wihYaGSoDYhtGmVqulcePGSX/729+kpqYmaceOHVJ8fLzk4uIiqdVqSafTSWq1WgoKCpKef/55qaioSOro6JBeffVVSaVSSYAUFhYm/f3vf5fS09OlU6dOSbfffrsESDqdTrKzs5McHR0lOzs7ad68edIXX3wh6fV6qaSkRFq2bJn8OZydnaXrr79eSk1NlWpra6WVK1dK9vb2l31esQ3tLTIyUnriiSek1NRU6yZm2DAYDNKuXbukiRMnXvbzi23ob7GxsdJrr70m5eTkSImJidKNN94oqdVqyc7OTtJoNJKDg4Pk7e0t/epXv5Ly8/Ol6upqacOGDdLYsWPlOv7yl79IdXV10v79+6XVq1dLnp6ekkKhkBwcHCStViu5ublJcXFx0nvvvSc1NjZKFy9elH7zm99IDg4OEiDZ2tpKS5culQ4cOCB1dXVJf/3rXy/7nGIb+puHh4f0z3/+U2pqapJMJpN1UyOrr6+Xbr311suOF9vQ39zd3aUbb7xROnLkiFRfXy/97ne/k/z9/SVHR0e53VGr1dKiRYuk7du3SwaDQcrLy5NuuukmuY5bbrlF2r59u5Sbmytt2LBBCg4OlgDJwcFBsrOzk+zt7SVPT0/pl7/8pZSSkiKZTCZp27Ztkr+/vwRIKpVKCgoKkp599lmpo6ND2rNnjzRmzBjJxsbmss8rtqG7OTs7SytWrJC+/vprqa2tzbqZGTTEyCRBEIRBRKlUEh0dTVRUFO3t7SQnJ5OcnExTUxMmkwmj0YjJZKKkpISdO3dy+vRpbGxsGDt2LH5+ftAz3x7+31M0o9FIVVUV9Ez3aW9vR6/X097eTlJSEnv27KGkpITAwEACAwPlz2F5EmL9X0EQhMHE29ubKVOm0NXVxYkTJ0hOTpZzHHV1ddHa2kp1dTWJiYkkJiZiZ2fHjBkz5Kko9LS7Us+KXbW1tdTW1iL15D7p6OigoaGB1NRUTpw4QU5Ojpybqb/VvIbEk2RBEP4rrq6uTJgwAU9PT4qKivjmm28oLy9Hr9fL7Y7JZOL06dNs3bqVyspKwsPD+4z8tiyAYjabaWlpobS0FIDW1lba29tpa2ujtraWo0ePcuTIERQKBVFRUbi5uUGvNka0NcJgIIJJgiAIg4hSqcTDwwNHR0caGhrkPEn9SUlJ4auvviIxMZHi4mLs7e3B6mZGo9EMuAKEyWSiuLhYXnWk9zQ20UERBGEo0Ol0eHh4YDAYqKqqQqPRWBcBoLCwkG3btnHgwAGKi4sxGo3yPkt7Z2Njg4ODAzqdrteR/7+amhrKy8tpb28fMF+OIAjDl62tLd7e3kiSRHV1NZ2dndZFoNcqol999RXnzp2jvb29Tx/Nkr9Sp9Ph6upqfTgAjY2N5OXlUVtbi9lsHrBtE4SfkrgSCoIgDCKSJNHV1YVWqyU4OJiYmBj8/f2ti0GvxMJPPPEEb7zxBmVlZdCzspBl7rzJZKK1tdXqyP/HaDQSFhaGv78/BoOBhoYGeZ+4URIEYSiwPOW35D3y8fGxLgIgP+n/y1/+wp/+9CcuXbpkXYSuri7a2tr6BJp68/DwYNSoUbS3t1NRUSFWThKEEaa7u5vu7m7c3NyIiopizJgx1kWgpy9XUVHB+vXreeyxx/j666/lRVJUKpX80K+jo4Ompibrw6Fn8YDo6GgcHBxobm6Wy4ncSMJgIu4WBEEQBhGz2UxmZibp6emYzWbmzp3LY489xqpVq5g9ezZTpkxh9OjR+Pv7Y2dnR0NDA2fPniU9PV0OGlmS9imVStzc3JgyZQpjxoxh0qRJTJ06lWnTphEfH88999zDLbfcQldXF5s2beLChQvy5xCdFUEQhoKKigqOHTtGR0cH8+bN44EHHuCee+7huuuuY/LkyYwePZqgoCBsbW1paGjgwoULnDt3rs8NnGVkpiWJ9pw5c4iLi2Pq1KlMmTKFGTNmsGjRIhYuXIitrS379+9n37598uqXgiCMDA0NDSQlJVFUVERgYCB33XUXv/71r1myZAkzZsxg/PjxRERE4O7ujlKpJC8vj1OnTlFSUtKnHsuquiEhISxYsIAxY8bI7c3kyZOZPn0699xzDwkJCaSkpLB582Zqa2v7HC8Ig4Fq3bp166xfFARh8EtPT+fw4cMDPtEQhiZJkqisrEShUBAREUFcXBzTpk1jwYIFzJgxg7FjxxIYGIi7uzsKhQK9Xn/ZDY2rqyvx8fGMGTMGX19ffH19iYuLY/bs2UyfPp3Zs2dz6623snjxYhISEjh79iyvvPIKGRkZmEwm6Jk6EhAQwIIFC3B0dGTfvn1kZ2eLZWeHGXd3dyIjIxk/fjze3t7Wu4cFk8lEYWEhR44cobKy0nq3MMRZRlUGBgYyYcIE4uPjWbBgAddccw2xsbEEBATg5eWFQqGgtbW131FHM2bMYPbs2Tg6OuLr60tMTAzTp09n5syZXHPNNdx8883cddddxMXFUVxczNtvv82RI0fo7u6GnunEUVFRxMfHExISwjfffMPhw4et30YY4uzs7ORAo1arHfCG3mAwsGPHDrKzs613CUNcW1sbVVVVeHh4MHHiRGJiYrj22muZO3cukyZNIiwsjICAALRaLZIk0dzcfNkIxoiICCZNmkRwcDC+vr4EBwczbdo0Zs2axfTp01m4cCG33347N9xwAw4ODnzyySds3LiRlpYW+UGhk5MT48ePZ+bMmRQWFrJ//34aGhrkNkkY+nQ6HVFRUcTGxhIcHDxopzmKkUmCIAiDiCRJmEwmEhMTefHFF3nppZfYtWsXOTk5aLVaRo8ezZ133smTTz7Jq6++yssvv8zatWv7JHe07uAqlco+m0KhwGw2o1AoUKvVjB07loULF/ZJwG0hcicJgjCYNTc3c/bsWd544w2ef/55Nm/eTE5ODmazmejoaJYsWcKvf/1rXn31Vd544w0efPBBoqKisLGxsa4KetpP6/ZSkiS6u7txcHAgIiKCuXPnEh0d3eeY3kS7OfyJv/HIJEkSNTU1bNq0iaeffpp33nmHxMREamtr8fT0ZNasWdx///389a9/5R//+Ad/+ctfuOGGG3BxcbGuCgZob+gZpa5Wq+U6Z8yYga2trfXhgvCTEyOTBGGIEiOThrf29nZycnI4fvw4mZmZXLp0idraWlpbW7G3t8fHx4eoqCji4uKIjIykubmZ9PR0urq6cHFxYdKkSURERNDV1cXx48c5dOgQhYWF5Ofnk5eXR2ZmJqWlpbS2thIaGsqkSZOoqqoiJSVFTvQYFBTE/PnzcXJyEiOThikxMkkYDjo7OykoKODIkSOkpaVRUFAgJ8q2JOiOjo4mNjaWkJAQurq6KCsro7GxEYC5c+cydepUqqqqSEpKIjExkYyMDIqKisjNzeXSpUtkZ2djMpnw8PAgJiYGjUZDamoq7e3tqNVqIiMj5ZFJiYmJHDlyxPpjCkNc75FJNjY2A+YWFCOThr/a2lrOnj3L2bNnyc7OprCwUM476eTkxKhRo4iKimLChAm4u7tTVFREUVERgNxWeHl5UVJSwp49ezh//jwlJSXk5eWRm5tLdnY21dXVAEyePBkvLy8uXrxIeXk5CoUCBwcHJkyYIEYmDWNDZWSSCCYJwhAlgknDj7Jneereuru7aWlpoaKigqysLM6dO8fBgwc5cuQIFRUVODg4EBUVhUKhoKSkhKKiIhwcHJg6dSrh4eHo9Xq2bNnCli1bKCoqIj8/n5ycHLKzs0lLS+PEiRPY29szefJkuru7qa6upqKiApPJRGhoqAgmDXMimCQMRdYjgXrT6/VUVlZy6dIlzp49y/Hjx9m/fz9lZWU4OjoSFRWFl5cXGRkZ5OTkQE8wadKkSRQUFHDw4EH27dvHhQsXKCwsJDc3l6ysLNLT08nMzKSxsZGpU6fi4uJCeno6RUVFqFQqIiIiSEhIEMGkYUwEk0Y2S+Ls3tra2mhsbKSwsJC0tDS++eYb9uzZw4ULF2htbSUoKIjAwEAaGhrIy8ujpaWFsLAwEhIScHd35+LFi3z44Yd88803lJaWkpOTw6VLl8jKyuLUqVNkZ2czevRowsLCqK+vp6KigoaGBuzs7IiPjxfBpGFsqAST+m8FBUEQhP85y7DmyZMns3DhQsLDw9FqtbS3t1NTU0N+fj7p6emcPn2abdu28fe//52tW7fS1dXF2LFjmThxIm5ubnLAR5Ik2tvbKS0tlef5l5WVUVZWRnl5Ofn5+Vy4cIHjx49jNBqJjo5mwoQJ2NnZDbjcrSAIwk/NkjfEzs6OMWPGcP3118vTzjo6OqipqaGwsJCMjAwSExPZs2cP//73v9m4cSNNTU1MnDiR0aNHo1Kp5PrMZjOtra2Ul5eTl5dHQ0NDn/aypKSEo0ePsm3bNgwGA9HR0URFReHs7CyvKCcIwvDV3d2Nt7c3CxcuZPr06bi7uwPQ1NREeXk5ly5dIikpiZMnT/Lvf/+b119/neTkZDm/kqWN6u7ulqfONjQ0kJubS1tbm9zWlJeXU1paSn5+Ptu3byczMxNnZ2fi4+MJCwuDnv6iIAwGIpgkCIIwiOh0On7zm9+wfv167rzzzn7zGFlUVlZy+PBheei0i4sLOp0OqWfJWXqepOl0Oqsj+zKZTNTX19Pd3Y2trW2fp/5XGgEgCILwU1GpVLi5uXHXXXexYcMGVq1ahbOz84BtVkVFBbt37yYpKUle2ttyM2i5MbO0l1fKTdLa2kpbWxuSJGFvb39Zm4toN0cE8TcemSZOnMhbb73FX/7yF6ZMmYKrq6t1EegJUJ86dYqzZ8/S3NyMra0tLi4uKJVKOWelQqHAxsYGe3t768NlNjY26PV6mpubsbGxQavVgsjZJQwiIpgkCIIwiFjmwgcHB7Nw4UL5KdRAWltbsbGxQaPR0NXVddkQZ5PJRGtra5/XrAUHB+Pj40NnZyd1dXWYTCZ5+L7osAiCMBhZnuprNBp8fX259tpriY2NHbDN6urqoqOjA7VajUqlorOzE4PBAL0CA11dXbS1tcmvW1Or1YwfPx5fX19MJhM1NTU0NzfLN4YWA30GYfgQf+ORSaPR4OHhwdSpU5k9e/YVA8/09MFsbW2RJImuri4kSULRk9RfkiSMRiPNzc3Wh8n8/PwIDg7G0dGRxsZGuawIZgqDhQgmCYIgDCImk0lOuh0REcGMGTNwdnZGpVKh1WrR6XTY2Njg4OCAm5sbU6ZMwcXFhZqaGnJzc2lqakKtVss3NzqdDh8fHwDs7e1xcnLCyckJnU6Hv78/1157LdOnT8fOzo7c3FxSU1MxGAzy3GxLPaLjIgjCYGI2m2lvbyc1NZWysjJ8fX25+eabGTduHPSM8rRsSqWSUaNGMW/ePPz9/WloaKC4uBi9Xg+9Vry0s7PD09MTb29v1Gq13F7a2tpiZ2fH9ddfz5IlS7CzsyM7O5usrCyMRiMqlUpeiUm0lyOD+BuPTOXl5Xz99de0tLQwY8YMxo8fD4CtrW2fPpqTkxORkZGMHj0aSZIoLi6mqKgISZJQqVQoFApUKhXOzs7yCHRLe+Pg4IC9vT1RUVFcd911jB49mra2NjmPGz2jKEV7IwwGIgG3IAxRIgH38NXQ0ICDgwMzZ84kISGBiIgIgoKCcHd3JywsjHHjxjF//nweeeQRli1bhoeHB3v37uXDDz+koaEBDw8Ppk+fzoQJEwgMDMTHx4fx48dz/fXXM2/ePBYsWMAtt9zCypUrue+++4iNjSU/P5+PP/6Y3bt3093djb29PaGhodx88814eHjw9ddfk5mZKXIpDTMiAbcwHKhUKsaPH8/s2bMJCQnB19cXHx8fAgICGD9+PHPmzOHee+9l9erVuLm5cezYMbZu3Up5eTkA1157Lddddx0uLi74+fkRFxfH3Llzue6667j22mtZvHgxK1eu5IEHHiAhIYHs7Gw+//xzjh8/Tnt7OxqNhrFjxzJ9+nSCg4M5c+YMBw4csP6YwhAnEnALHR0dNDY2EhERwezZs4mJiWHUqFF4eXnh4+NDdHQ0CQkJLFu2jIcffpi5c+dSW1vLRx99xNdffw3AmDFjuOaaa4iIiMDPz4+goCBmzpzJokWLuPbaa1m0aBG33347DzzwAEuWLMHV1ZUDBw7w4Ycfkpubi1KpxNXVlSlTpjBnzhzKysrYu3evnK5AGB6GSgJuEUwShCFKBJOGJ0mSqKmpoa2tDXt7ezw9PQkICMDHx4fAwEBGjx7N2LFjGTNmDFFRURgMBo4cOcKmTZtITk6GnqdboaGhuLu7o1ar0Wq1eHl54efnh6+vL76+vgQHB+Pt7Y1WqyUtLY1NmzaxZ88e+XzS6XS4ubkxZswYjEYj+/btIy8vT6zmNsyIYJIw1On1eqqqqrC3t8fX1xdXV1cCAgIIDAwkKiqKsWPHEhsbS2hoKAqFgqNHj/LZZ59x/vx5jEYj9NzchYeH09nZiUajwd3d/bL2MjAwELVaTWZmJp9//jk7d+6Ug1FqtRo/Pz8CAgKwt7fn2LFjfPPNN1afVBjqRDBJMBgMVFRUoFQq8fb2xsPDg6CgILy8vAgPDycmJkbe/Pz8yM/PZ8uWLezatYuGhgYAAgICCAkJkUcx2dvb4+/vL7c3lvbLw8ODlpYWjhw5wqeffsqpU6cwm80olUrs7e0JDg4mPDycixcvcuTIEZqamkRi7mFkqASTFJKY9CsIQ9Knn37KU089JQ95FYYXOzs7fHx8mD17NrNmzSIkJAQXFxd5jn11dTW5ubmcPn2alJQUSktLMZlM0BMgmD59OrGxsXh6eqJQKOjq6pKHQls6G42NjZSVlXHx4kUuXbpEW1ub/P62traEhIRw88034+zszNatW0lLSxMjk4aZyMhIbrrpJlavXk1sbKz17mHBaDRy6NAhnnnmGc6fP2+9WxgG1Go1oaGhTJkyhalTpzJ27Fjs7e1Rq9W0tbXR0tJCZmYm58+fJykpicLCwj6B8fnz53Pdddeh0WiQelZ2681kMmE0GsnPz+fixYsUFxfT0NAg583RaDTExMQwbdo0Ro0axaFDh9izZ0+fOoShz8PDg2effZaVK1fi6Og4YDCpoaGB+++/n23btlnvEoYJV1dXxo4dy+zZs5k8eTIeHh7ySrjt7e0UFBSQlZXFqVOnSE9PR6/Xy+3KmDFjmDFjBiEhITg7O9PR0SHnUqKnj2YymeR+XmZmJsXFxfLxSqUSZ2dnJk+ezIIFC8jNzWXbtm3U1dWJkUnDiLOzMzfffDPLly9n1qxZ2NnZWRcZFEQwSRCGqM8++0wOJomv8fDl4+MjP+FydnZGkiQ6OztpaGigpKREzpPUm1arxcPDAzc3N2xtbVGr1X32W26W9Ho9dXV11NTU9NlPz7QRe3t7AgMD0Wg0lJaW0tjYeNlNljC0RUdHy1Mex44da717WOjo6ODw4cM89dRTIpg0zHl4eBAdHU1oaCgODg6o1WoMBgOtra0UFRWRl5dHXV2d9WH4+Pjg7++PSqWSc5H01t3djcFgoKqqqt/2UqFQ4OLigqenJ46OjlRVVcmjloThw9PTk5dffpl7773Xetdl7rrrLjZt2mT9sjCMqFQqoqKiiIqKwt3dHTs7O7q6ujAajZSXl1NcXExeXt5lAR5nZ2e8vLxwcHBAp9PJeY8sASWz2UxXVxeNjY1UVVX1edBHT3tjSQTu6+uLXq+ntLQUo9Eo7geGERcXFxYvXsyKFSvk3KaDkQgmCcIQ9cknn/CnP/2J4uJi612CIAhXZdSoUdxwww2sWbNGTiQ63BgMBg4dOsSzzz4rgkmCIPzX3NzcePLJJ1m2bBkODg7Y2NjII4J7l8nPz+eXv/ylGJ0mCMJ/zcnJiRtvvJEVK1YwZ84cEUwSBOGHtWHDBn7zm9/Q2NhovUsQBOGquLm5MWPGDH77298yc+ZM693DQn19PXv37uWVV14hJSXFercgCMJVCw8PJygoCLVajVKpvGwkiFarRa/Xk5ycLK8WKAiC8F1pNBqmTp3KqlWrWLp0KU5OTtZFBgURTBKEIeq9997jySefxGg04uXlJeeHENOQBEG4EpVKhcFgoLa2FrVazcSJE/nd737H3LlzrYsOC3V1dXz99de89NJLZGRkEB0djY2NjWgrBUG4apbpR0ajka6uLiRJuiyQ1JulvPXIJUEQhIFYplg3NDSgUCiYOHEiq1at4p577hHBJEEQflgffPABzz33HE5OTkybNo3o6GicnJzo6OiwLnoZy9zs/l7rve9qX7Ou49te+zb9HfN9XhtIf2X7+/mu9jXrOq5Gf2W/z2v/jf7q6e/nu9rXrOv4vvqr5/u8NpD+yvb3813ta9Z1XI3+yn6f16wpFArs7OwoLi5m//79NDU1ER8fz0MPPcSUKVOsiw8LbW1tHDhwgF//+tcYjUYef/xxfHx85JW8vsvfrb+/c3+vWZf/ttcGev37vPbf6K+e/n6+q33Nuo5ve+3b9HfM93ltIP2V7e/nu9rXrOu4Gv2V/T6v/Tf6q6e/n+9qX7Ou4/vqr57v89pAvktZlUpFZ2cnNTU11NbWYjAYMJvNKKzycAmCIFhTqVQolUrOnz9PcXExM2bMYMWKFVx//fXY29tbFx8URDBJEIaojRs38ve//52QkBBuv/12pk2bhqenJwaDwbqoIAiCzMXFhbS0NN59910KCgoYP348q1atIj4+3rrosGA0Gjl48CCPPPII7u7uvP/++4SHh9PW1nbVN4iCIAj0BJ+vRKlU0t3djV6vp7W1la6uLhFMEgThqtjY2KBWq/nkk0/YuXMnU6ZM4a677mLu3LkimCQIwg9r48aNvPrqq4wZM4bVq1czd+5cdDqddTFBEITLlJaW8sorr5CRkcHYsWNZsWLFsA4mHThwgLVr1xIaGsq2bdvw9PS0LiYIgiAIgvCT27BhA2+88QZxcXEsXbqUuXPnDtoE3ErrFwRBGHqkb5m7LwiC0JulvRhp7YZoKwVBEARBGCoGe59FBJMEYYgzm810d3eLJI+CIFy17u7uEZmAWpIkuru7rV8WBEEQBEEYFKyT/A/mgJIIJgmCIAiCIAiC8KP6rjdE37W8IAiC8L8lciYJwhBlyZkUHR3NypUrmTNnDo6OjtbFhCGkpaWF7OxsqquraW5upru7G61Wi5eXF+Hh4QQHB1sfgslkoqWlhfr6epqbm+URagMl++zu7kalUuHu7o6XlxeOjo6YTCbq6upobGxEr9dDrxWu+mMymbC1tcXDwwNPT09sbW2tiwiDXGFhIa+99hqZmZmMGzduxORMCg4OZsuWLfj6+loXEwThB9Te3k59fT2NjY3Y2NgQHBx8xWtFa2srtbW1NDQ04OLiQlhY2IDXoOFMkiQ6Ozupq6ujsrISd3d3QkJCRuTvQhBGqnfeeYe33nqrT84kkYBbEIQflAgmDR/d3d00Nzdz4sQJDh06RGlpKfX19XR1dWFjY0NQUBDx8fHMmDGDUaNG4erqKh+r1+vJzs7m9OnTZGVlIUkSNjY2fervraOjA1tbWyZMmMCMGTMICwujubmZ06dPk5SURHFxMTqdDqVy4IGrBoMBLy8vJk+ezKRJk8SN+RAkgkninBWEH1NpaSlnz57l/PnzuLi4cM899+Dv729dTJafn8/JkydJSkoiLi6ONWvWoFKprIsNe2azmaamJk6cOMGBAweYNGkSK1asGJG/C0EYqayDSddee61IwC0IgiD0r6CggBdeeIF169axe/duGhsb8fPzIyAgALVaTWpqKq+88gp//OMf+eyzzygsLJSP7ejooKSkhMTERHbu3MnevXs5evQoR44c4fDhw5dtBw8e5MiRI2RmZtLU1AQ9waFLly5x6NAhtm/fzsGDBzl69Ohlx1q2AwcOcPLkSfLy8mhra+v1kwiCIAgCNDU1cfHiRfbt28fx48dpaWmxLtJHfX0958+fZ/v27Zw9e3ZE5nSjZ2RSa2srycnJfPDBBxw/fnzE/i4EQfh/BvPYHxFMEgRB+IlYhrMfP36cTz75hIKCAuLi4liwYAG33HILt956K4sXL2batGkoFAqOHTvG+++/z+HDh+ULS3d3N01NTeTm5lJWVoabmxvXXHMNCQkJ/W6TJk0iPj6e0NBQHB0dUSgUGAwGamtrycrKora2llGjRl2xjsmTJxMXF0dAQAA6nc76xxIEQRBGOKPRSFVVFTk5ORQUFGA0Gq2L9NHe3k55eTmlpaWUlJQM6pun78P657L+t0qlQqvVEhgYyJQpUxg1atT/fIqb9Wfqz9WUEQRh+BPBJEEQhJ+IyWQiKSmJxMREOjo6uP3223n99dd5/PHHWbx4MYsXL+aRRx7h2Wef5Q9/+AMTJ07k/PnznDhxgtbWVgCUSiVqtRqlUomDgwP33nsvb775Jn//+995+eWXL9tef/11XnzxRe6++25GjRolfw7L1Ljo6Gh+//vf8+abb152rGX75z//yTPPPMONN96Ij49Pn59JEARBEJRKJTY2NtjZ2WFra3vFqdP0CqIAV3xI8UMHMb5Pfd/n2Cvx8vJixYoVbNmyhcceewy1Wm1dRBAEYVC4cssuCIIg/GjMZjOXLl0iPz8fOzs7xo8fT2BgIPb29tjb2+Pg4IBGo8HPz49FixaxYMECvLy86OjooLm5GXo67AqFAkmSUKlUck4KNzc3PD09L9u8vLzw9PTEyclJ7txLPcm2JUnCzs6OsLAwgMuO7V2Hu7s79vb2opMrCIIgXEahUPTZvi2Y1LuMRqNBoVDQ2trKqVOnSEpKory8XC7XW0dHB6mpqRw9epSysjLq6+vJy8sjLy9Pzj+Ynp7Opk2bWL9+PZ9//jmnT5+Wr6GWa1/vwFB3dzf5+fns27ePjRs3snHjRrZu3UpaWhpdXV1yOYVCgclkIicnh9TUVMrKyqipqSE/P59du3axefNmUlJSOHPmjPyels9veT/Lz3n27FlOnTpFfn4+er2ezs5OGhoaaG1tvSxo1djYSGJiIps2beKdd97h3XffZevWraSnp9PZ2SmX631cZ2cnKSkpfPnll3I+lk2bNnHmzJnLpiAqFAqKiork32lbWxsZGRns27eP3bt3U1ZWdtnfQRCEkenKLbsgCILwo5EkCaPRiMlkwtHRccBOoCRJBAQEsHDhQpYtW8bEiRPlVdssLB1iy4il/4alY2zJpSQIgiAI34cl6PBteX96B3Qso23z8vLYs2cPn376KadPn6a7u7vPMZ2dnZSUlLB161Y+/PBDioqKqK2tJTExkb1798r5/Q4cOMDHH3/M22+/zbvvvsvHH3/MN998I+f8swS86PmcFy9eZNeuXXzyySe89957vPfee2zYsIGtW7eSlJSE0WiUf56uri4SExPZtm0bR48e5fjx43z99de8++67fPjhh5w9e5bt27fzn//8h7y8PPmz9w7GFBQU8NFHH7F9+3by8vKorq4mMTGRl156iZ07d/b5udvb2zlz5gxffPEFGzdu5L333mP9+vW8//77ckDJwtIvMBqNJCUlsXnzZtavX88777zDv//9bzZs2MDnn3/OqVOnaG9vl48DuHDhAm+//TYHDhwgJSWFHTt28MEHH/D5559TVFTUp6wgCCOXCCYJgiD8RBQKBa6urqjVavLy8ti3bx979uyhtLS0T0dToVCgVquZPHkya9euZfHixXh6ekJPx9fSCVcqlbi4uPR6h+/GbDZjY2Mj1301vu0GQRAEQRi5JElCrVbj4OBgvasPOzs7eUSShUKhoKamhl27dnHixInLrjfNzc1cuHCBQ4cOkZKSgo2NDVqtlszMTPbt28dHH33EP/7xDxITEwkMDCQ+Ph6tVsuOHTv417/+xYEDB6irq5Pra21t5eTJk7z++uv885//pLy8nLCwMEaNGoVer+fLL79k3bp1fPjhh3IOKJPJRGFhIcePH2fXrl28+eab/Pvf/yY7OxtbW1u0Wi05OTl8/fXXpKWl9QmaWf4/LS2NnTt3kpubi7OzM2azmezsbPbu3Ut6erpcvra2lk2bNvHhhx+SnJyMu7s7M2fOZOLEibS0tPD555/z73//m71796LX66Hnd/jll1/y17/+le3bt2M0Gpk4cSKzZs3CwcGBPXv28Morr7BhwwZKS0vl30VlZSWHDh1iw4YN8iimjIwMzGazGJEsCP9jg3kkoAgmCYIg/ERUKhWxsbFMnz4db29vzp8/zz/+8Q9ef/11Nm7cyJ49ezhz5gwXL16kuLgYgJiYGCIjI7G3t4dewRy1Wk1HRwcnTpzg/PnzHDlyhEOHDsnbwYMHOXjwIAcOHCAxMZHa2lr5c1guUlqtlpqaGrZv305KSkqf4y11HDp0iP3795OcnExbW9u3Tl0QBEEQRi61Wk1VVRWbN29m3759fPHFF322rVu38uWXX7Jr1y5yc3PlByOSJBEUFERAQAAFBQWcPn2akpKSPnVXVVVx5MgRioqKsLe3x93dHY1GQ3V1NWfOnOHMmTO0tbURExPDTTfdxOrVq7nhhhvw8vIiKSmJ//znPyQlJcn15eTksGHDBo4cOYJWq2XGjBksX76cu+66i8WLFxMYGMiRI0f46KOP5BFACoWClpYWMjMzOXr0KKWlpfJI4ltuuYW4uDhUKhXFxcWcO3eO7OxseaqcyWQiOzubc+fOUVxcjE6nIyQkBK1WS1VVFSUlJVRWVsrBpIqKCjZu3Mg333xDQEAAN9xwAw888AD33nsvc+bMwc7OjuTkZDkPI0BeXh4ff/wxBw8exM/Pj1tvvZV77rmHe++9lxtvvJGwsDBSU1NZv34933zzjfy7aG9vp66ujpMnT3Lx4kX8/f1ZuHAh8+bNw9fXVy4nCMKPz9IGDEbiLkAQBOEnolarGTNmDEuWLGHx4sU4Oztz4MABXnnlFR599FHuv/9+HnvsMV599VU+++wzzpw5I3cQLSzD821tbTEYDLz11lvcdtttrF69mnvvvVfe1qxZw+rVq1mxYgW//vWvSU5O7lOP1JMvqaSkhD/84Q8sWbKkz/G9txUrVvDiiy/KOSwEQRAEoTfLQwqNRkNRURFPP/00t99+O2vWrOmzrVy5kjVr1vDiiy+SmJgoHyNJEq6urkyZMgUfHx/q6upIS0ujvr5efo+6ujpSU1Nxd3dn1qxZuLq6YjKZ0Gq1GI1GXF1defTRR/nDH/7A7Nmzueaaa7jjjjt47LHHiImJ4fjx46Smpsr1ZWVlsWfPHgICAnjmmWd46KGHuO6665g/fz6PP/44zzzzDOPHj6e0tJTExETq6+tRqVTY2trS3d2NXq/nhhtuYP369fzf//0fy5YtY8KECURERODk5ERRURGZmZnylHaTySQ/LAoKCmLs2LH4+Pig0+nkfIiWxTEA9Ho92dnZODs7s2TJEubPn8+YMWOYNm0aK1as4JFHHiE2NhaFQoFGo6GlpYWjR4+Sm5tLREQETz75JI899hjTpk0jISGBxYsX89RTTzF9+nQuXbpESkqKnEvK8r4ajYZJkybx5z//mZdeeok777xTzs0oCIIggkmCIAg/gd5PGSZOnMiqVav49a9/zdq1a7nxxhuJiorC0dGRyspKjh07xvvvv8/zzz/Pc889x9mzZ/vURc8IJYVCgZeXF+Hh4YSEhBAaGipvvf8dGBiInZ2ddRVyHQEBAYSHh/c53roOX19fNBqNdRWCIAiCILNMn46NjWXmzJlMnTq1zzZt2jSmTJnCmDFj8PDwgJ48RJZrZFhYGBEREXR1dZGUlERFRYVcd0lJCRkZGXh6ejJz5kxcXV3p6OhAkiQcHBwICQkhLi4OW1tbeTSvj48P1157LdHR0TQ0NFBSUkJLSws1NTVkZWVRW1uLq6srY8aMwc7ODoPBQHt7OwqFAjc3N3kRjNTUVEpKSlCpVEiShK2tLSEhIYwfP57g4GBcXFxQqVTQs0rqmDFjKCoqIikpSc6BJEkSZ8+eJT8/n9jYWMaNGwe9AnGWh0WWf6tUKmxsbCgpKeHQoUMcPnyYoqIi9Ho9kZGRLFu2jLVr13LDDTfg7OxMbm4uycnJ8ijo8ePHo1arsbW1RaFQ4O7uzowZMxg9ejSdnZ3k5ub2yesEMGrUKKZOnUpcXBxqtRpHR0fUavWgHikhCML/jggmCYIg/AQsnUNL/oHJkyfz85//nLfeeos33niDP//5z/zqV7/ixhtvJCAggMbGRvbt28fzzz/Pp59+Kud5sEwz6+zsxNbWlttuu40XX3yRZ599lqeeekrenn76aZ5++mnWrVvHL3/5S6Kjoy/7PEajkcDAQB555BFeeumlPsc/9dRTPPPMMzz11FP8+c9/ZtWqVd8pt5IgCIIwcliCDV1dXYSHh/O73/2O999/n9dee63P9q9//YvXX3+dRx99lMmTJ0PPCm0WTk5OxMfH4+LiwoULF+QRsQaDgYKCApqbmwkKCmLixInydUySJHx8fAgPD7/soYckSfj5+REcHIxSqaS9vZ2KigqysrKorKxEoVBgNpspKCjg+PHj7N69W85n+M0336BSqXB3d6e5uRm9Xo+iZ+EKFxcXxo0bh4+PT5/3A4iMjGT69Om0tLSQlpYmJ/7W6/VcvHiRxsZGpk6dyujRo6Hnd2bpI9Drd+nh4cHcuXPRaDRs3ryZ9957j40bN/LVV1+RlJSEyWSSg3T0TIsrLS3Fz8+PmJiYAQNA3t7eODo60tLSQmVlJfR6z6ioKGJiYvosEMIgz+EiCML/jggmCYIg/ETMZjN6vb7PsrxKpZKQkBCmTZvGjTfeyCOPPMLTTz/Nc889xy233EJ3dzenTp0iMTGRrq4ueSh6d3c3KpWK8PBwJk2a1O82efJkpkyZQmxsLK6urr0+yf9jMplwcHBg3LhxJCQkXHa8ZZsyZQpRUVHY2tpaVyEIgiAIst6jdvz8/IiKiup3CwwMxMnJCawWdtDpdEyYMAE3NzdSU1OpqakB4NKlSxQVFeHg4EBYWBje3t7Qcx2zTNt2dna+LFm0ZaSPvb29HHxqaWmhsbGRjo4O1Go1GRkZfPzxx/znP//hP//5Dx9++CHvvvsuX331FSUlJWi1WnQ6HTY2Nkg9SbRVKhU6ne6y4BU9o3ssgbKCggKqqqoAKC4upqioCKVSyaRJkwgPD0eSpMsSjVsEBgby2GOP8fjjjzNp0iRaWlrYtGmT/IDngQceYP369XJuqe7uburq6tBqtbi5uckjpaxZEpdLkiTnc7LQarVotVqRH1EQfkKDOXgrWgZBEISfiMlk4ujRo3z++eckJSXR1NQEPQElNzc3goKCGDduHPPnz2ft2rWsXLkSHx8fSkpKSE1NpaGhAbVaLT9JVSqVcpDIyckJV1fXfjdnZ+c+HV7LE0jLdAQvLy+Ay47rvTk6OsrD+wVBEAShP1LPam6WqdWW4IRloycvj2U1N8sxFjqdjmnTphEeHk55eTklJSXU1tZy/PhxSktLiYmJISoqSi4/UCDGWmdnJ1JPsm9LfiJ63lun0+Hq6oqbm5u8OTk54eXlxYQJE5gzZw6TJ0/Gx8eH7u5uedqaQqHo95ro5uZGXFwcvr6+tLW1kZWVRXJyMhcuXMBkMhEaGiqPFjabzQP+DDqdjvj4eFasWMGaNWtYuHAhERERuLi4UFFRwf79+/n3v//NF198QVtbm3yNtmwD6ejokHNNWS/uYTnuSscLgvDjGszfPxFMEgRB+Il0dXXx+eef88ILL7B37155ePlAgoKC8PLyQqvVyp0/SwfY0om1fqr4XViCUtbD2a9kMD8tEQRBEH5aluuKyWSy3tWHZUSRNRsbG8LCwoiMjEStVlNZWUlqaiqnT5+mtbWV+Pj4PgmhLdcko9GIXq+/rE6z2UxraytNTU2YzWbs7Oxwc3PDxcUFpVKJyWRi3rx5vPzyy7z88su88MILvPDCC7z88ss8//zzPPnkk6xatYpFixYRFBREd3f3ZYGX/nh4eBAVFYWzszM5OTkcO3aMrKwsfHx8iI2N7TePIVbX2ObmZoqKitBqtdx888088cQTvPnmm3zxxResX7+eO++8k9LSUrZt20ZRURFqtRrXnjxSjY2NA34+vV5Pc3MzOp0ONzc3sPpZBjpOEARBBJMEQRB+YkVFRWzbtq3fxNq91dTUyLmSPDw80Ol0fTqxCoViwA7p1ZB6niA7Ojpa7xIEQRCEH9WVghYRERFERkZSUlLC5s2bOXDgAN3d3cybN4+IiAi5nGWkUWVlJZcuXaKhoaFPPUqlknPnzpGUlIRSqcTLy0teSS0gIACAxsZGOTeSn58ffn5+eHt74+Pjw/Hjx9mxYwf19fXylLmr4eDgwJQpUwgODiYlJYWvvvqKs2fPEhoaysyZMwe8dvce7ZSWlsb//d//sWPHDjkIFhgYSGRkJEuXLuWmm24CICMjg8bGRry8vIiKiqKyspLk5GRaW1utaoe8vDzS09ORJInQ0NA+eZsEQRC+jQgmCYIg/ETUajULFixgypQp5OXlcfz4cS5dukRraytdXV0YjUa6u7tpaWnhwoULHD16lKamJvz9/YmJicG1ZxlkqWeovtlslnMxNDY2UldXd9lWW1tLXV0dzc3N8pNiS2dVqVRiMBgoKiqCnmWX+9tqa2upr69Hr9eLDqcgCIJwGUsA5EoBou/C39+f6dOny4tR1NXV4e7uzvjx4+VV4OgJFikUCvR6PYWFhVy4cIGGhgba29uhJ0/Rnj17uHTpEhEREURERKBWq3F3dycmJgYPDw/S09PZuHEj+fn50BNY0ev17Nq1i5deeol3332XvLw8Ojs7rzqgpFQqSUhIIDo6moKCAk6dOkVxcTGjRo0iISHhslxLUj9T08rLy/n444/58MMPOX36tDw13mw209TUhFarxcvLSx7BHBwcTHx8PJIkkZ6eTkpKCm1tbXKC86KiIrZu3UpOTg6BgYHExsbK09x6rzgnCIIwEBFMEgRB+Imo1Wquu+46brvtNpydnfnyyy+5//77eeyxx3juuef429/+xh//+EceeeQR1qxZw6effoq/vz+LFi0iPj4epVJJR0cHHR0ddHZ2otfree6555g/fz6LFy9myZIll2033HADt99+O+vWrePYsWOYzWa0Wi0Gg4Guri6ysrJ45JFHmD9//mXHWrbrr7+elStX8tprr5Genm79YwmCIAgjXHd3N21tbTQ2NtLU1PSt09y6urrkkTN6vd56N76+vkyaNAmAwsJCgD6Jty0swQ8vLy+6urr417/+xaOPPsrf//53/vznP/Pkk0/yzjvv0N3dzV133SUnxgaIi4vj7rvvpq2tjeeff55nnnmGv/3tb7z66qs89thjPPPMMzQ3NzNjxgwSEhLQarWYTCb0ej1NTU3o9foBp4mr1WomTJjAqFGjKC4uBqC1tZWwsDDCwsL6BJO6u7tpb29HkiRaWlrkYFVISAjx8fFkZWXxm9/8hr/85S+88847rF+/nnXr1vH8889jMBiYOnUqHh4eeHh4MHPmTCZOnEh1dTX/93//x+OPP87rr7/OK6+8wrp16/jb3/5GS0sLd9xxB3FxcfJnsATf9Hr9gFMQBUH437iagPVPRbVu3bp11i8KgjD4XbhwgVOnTuHh4UFcXBwhISFyMkthaFAqlTg5OeHp6YnJZKKuro6ioiJqamqoqqqiuLiYS5cukZ+fT319PaGhodx6663cdttthISEQE9eiPr6elpaWmhtbUWv11NWVkZtbS01NTWXbeXl5TQ3N+Ps7ExkZCTh4eEAlJWV9VnV5kp1lJaW0tnZiaenJ6NHjyY4ONjqJxMGu6amJk6fPk1tbS3e3t7Exsbi5+dnXWxYMJlMFBQUsGvXLlxcXFi2bJmYyikIP7Lm5mZqamowGAyMGjWK66+/vs8IImv19fVUVVXR0NDAlClTuP766/usPmZnZ4ednR3Hjh0jLy+PcePGceuttzJlypQ+N1oVFRWcO3eO1tZWbG1tkSSJ9vZ26urquHjxIoWFhWg0Gm666SbuvfdeRo8eLR/v5OSEr68vjY2N5Ofn09raSlVVFWVlZWRkZGAwGJg/fz6rVq1i2rRp0BMEy87ORqFQEBkZSVxcHEFBQfLnsVAoFKjVajo6OsjOzkav1zNr1ixuv/32y9peo9FIeXk5ZWVlTJs2jXnz5qFSqbCzs8PBwYHGxkays7Npbm6moaGBkpISMjIyaGho4JprruHOO+9k7Nix2NjY4OrqilKppLW1lZKSEioqKmhubiYnJ4eioiI6OjpYsGABq1evZvTo0XJQKzc3l9zcXKZNmyYHp6xXxhME4ceRnJzMuXPn8PHxISYmhpCQEHn15sFGIYlQsyAMSRs3buTVV18lOjqalStXMmfOHHGDNER1dXXR1NRERkYGqamplJSU0NTUhFKplIetR0ZGMnr0aLy9vXF3d5c7fEajkYqKCvLz86moqJCTcg/0FMNkMqHRaPD19SUiIoLg4GA6OzvJzc2lqKiI2traKx5Pz+d1cHAgICCAiIgIfH19rYsIg1xhYSGvvfYamZmZjBs3jhUrVhAfH29dbFgwGo0cOHCAtWvXEhwczJYtW8Q5Kwg/soaGBvLz8ykuLsbOzo5p06bh2rPaaH9qamrIycmhsLCQwMBAZs2ahdJqOfqOjg7WrFnDZ599xqpVq3jooYeYNm1an3JJSUm8/fbbZGVlERQUxG233YZOp+P06dM0Nzfj6enJ2LFjmTBhAn5+fuh0usveo6ioiLS0NLKysqiqqkKr1eLq6kpUVBRxcXGEhYXJN3ZdXV2kpKRQW1uLi4sLoaGhlwWHequpqZFXb7Uk3+4dZJMkiba2NnJycsjIyCA0NJTp06ejVCqRJAm9Xk9KSgpnz56loqICg8GATqfDxcWFsLAwJk6cSGRkJBqNRr6OG41GcnJySEpKIicnh7a2NsxmMz4+PowePZpx48YRHBzc53dhmRYXEhJCTEwMzs7OIpgkCP8j77zzDm+99RZxcXEsXbqUuXPnylNQBxsRTBKEIUoEk4Yny5NDS9JQnU6Hp6cnoaGhODg4WBfHbDbT1dVFZ2cnXV1dSD2JuAdi2a/RaNBqtWg0GiRJkqfK9V4hbiBST34ljUaDTqcTHcwhSASTRDBJEH5M3d3d8nVFqVRib2/fZ6SRNZPJhNFopLOzExsbm36vd5WVlTzwwAMcPXqUV155hVWrVmFra9vnmtU7mBQXF8dvf/tbgoKCOHPmDAaDAU9PTyIiIrC1te1Tt/W1s729ndzcXKqqqlCr1Xh4eBASEoKzs/Nlx1mmiavVamxsbC7Lf9SbpbwkSWg0GtRq9WVBM7PZjNFoxGg0yr+L3p+vu7uboqIieaSxjY0NHh4eBAcH9wlMdXd39/md19TUUFRURFNTE5Ik4ePjQ0RERL/Jvw0GAwaDARsbG3Q6HSqV6lv7BoIg/DBEMEkQhB+dCCYJgvDfEsEkEUwShKGkuLiYo0eP8q9//Quj0ci///1vrrnmGuticjDp4sWLxMbG8utf/5qoqCjrYoIgCIPWUAomiQTcgiAIgiAIgiAMKpIkkZeXxzvvvMPPf/5zXnjhBUwmEzfccAMBAQHWxaFX8mq9Xk97eztms9m6iCAIwpAymEcFimCSIAiCIAiCIAiDikKhoKmpiXPnznH+/HmMRiMzZszgtttuGzCZt52dHUFBQURGRhIYGCgWJhEEYcgbzBPJRDBJEARBEARBEIRBx83NjZiYGO666y6efPJJ1qxZQ3x8fL85lQA8PDyYOXMmt9xyC9dcc81lOY4EQRCEH44IJgnCEGWJUqvVamxtbQfsWAmCIFizt7fHxsZmUA+d/iEpFAo54a24uRSEoSMsLIxbb72VRx55hNWrVxMfH3/FRR98fX2ZP38+t99+O/Pnz8fd3d26iCAIwqBmWbBAqVSiVCoHdV9NJOAWhCHKkoA7KiqK5cuXM3v2bFxdXTGZTNZFBUEQZGq1mtzcXF5//XWysrKIjY0d1gm4DQYDBw8e5OGHHyYwMJAvvviCoKAgTCbToB46LgjC/2NZ7UySpKv6zva+8bqa8oIgCIOBZSXIt956i7fffpvx48cP+gTcIpgkCEPUBx98wF/+8hfs7OyYPHky0dHRODs709HRYV1UEARBZm9vT1FREfv27cNoNHLNNddw//33k5CQYF10WGhpaWH//v388Y9/pLq6mqVLl+Lm5kZnZ6d1UUEQBhmlUolarUahUGA2m+nu7r5iUm2FQiEvYy9JEt3d3SKgJAjCkKBWq1EqlZw+fZpLly6RkJDA8uXLufnmmwftDBQRTBKEIWrbtm28+uqrVFdXY2dnh6urKzY2NnR3d1sXFQRBkKnVavR6PWVlZfj7+7NgwQKWLl3KmDFjrIsOC42Njezbt48XXniBtLQ06LnhHMzDxgVB+HFYbnt63/5Y2oL+2oSByluCVd/1Nqq/97IOjon2SRBGNrPZjI2NDdOmTWP16tXccccdODo6WhcbFEQwSRCGqAsXLrBr1y5ycnJoampCq9WiVCq/c8dGEISRRaFQYDKZaG9vJyYmhrlz5zJp0iS8vLysiw4LTU1N7N+/n+eee04OJgmCMPJYAkADsd5v/e8fkqXugd5joNcFQRgZNBoNs2bNYtWqVSxZskQEkwRB+GE1NjZSXFxMVVUVzc3N4imWIAjfmb+/P6Ghobi7uw/bJbRbW1s5ePAgf/nLX0hJSbHeLQjCCGNnZ8eoUaMIDg6muLiYzMzMK+abdHBwYMyYMXh6epKdnU1hYSFmsxmtVoufnx8hISF4eHigUCjkh3qWYFB3dzdtbW1UVVWRm5tLa2urdfV4enoSHx9PZ2cnubm5VFdXi2m4gjDC2dnZsWDBAlatWsXChQvFNDdBEARBEIT/NaPRyKFDh3jmmWc4f/689W5BEEYQjUZDQEAA99xzD4sXL2bHjh3861//orm5ud+RQFqtlpCQEB555BESEhJ477332Lx5M3q9Hh8fH+bNm8dtt91GdHQ0LS0tch2WYJLJZKK1tZVLly6xf/9+Tp06hV6v75OSYObMmaxbt46WlhY++ugjTpw4QW1tba9PIQjCSOPi4sJNN93EihUrmDlzJnZ2dtZFBoX/tzyCIAiCIAjCMCVGbgqCQE9boNVqCQgIYOzYsQQEBMgrKPVHqVSi0+kICQlh7NixeHt7o1arAbCxscHLy4vY2Fj8/f2pqakhPz+f0tJSiouLKSsro7GxkcDAQG6//Xaefvpp7r33XpycnPq8h6OjI2PGjCE6Ohp3d/crfh5BEEaOoZA/TQSTBEEQBEEY1vobcSAIwsikUqmwtbWVtyvdsCl6Voezs7PDyckJrVYrl1UqlWi1Wry8vGhtbWXv3r189tlnbN68mc2bN7NlyxZ27NhBYmIibW1tTJs2jeXLlxMREdHnPTQaDU5OTjg6Osr5LwVBGNmkngT/1gn6BxvRWgmCIAiCIAiCMCJYchnRz0pq/bGUN5lMfcpbbvZUKhU1NTUcO3aMPXv2sH//fg4cOMDXX3/Nli1beO211/jHP/5BeXk5fn5+jBs3rs+CB5bpcJb6RfBbEIShQgSTBEEQBEEQBEEYcbq7u+nq6howqNTZ2YnJZKK7u7vfII8kSSiVStrb2ykrK4OeFSSbmppobm6msbGRS5cucfLkSZqamnB1dcXNzQ17e/s+dfTeBEEQhgoRTBIEQRAEQRAEYcSwBG1UKhU2NjaoVCrombqmVCrlqWxarbbP/v6CPZIkoVar5VxI1tPmNBoNHh4eKJVKmpubqa2t7XdVN0EQhKFGBJMEQRAEQRAEQRgxLKOAnJycCAoKIiQkhODgYEJCQggJCSE0NJTAwECCg4Px8/PD3t5+wCloZrNZznsE4OzsjKOjIy4uLvj6+rJo0SKWLl2Kvb09aWlppKWlidXaBEEYFkQwSRAEQRAEQRCEEcMydS06Oprbb7+dFStWsHLlSlasWCFvq1at4u677+aGG24gNDT0spxJFgaDAR8fHxYvXsyqVau46667uOuuu7j77rtZuXIljzzyCLfffjudnZ2cPn2a3Nxc6yoEQRCGJIXUX4hdEARBEARhGDAajRw6dIhnnnmG8+fPW+8WBGEEsbGxYdSoUaxdu5aHHnoInU5He3t7vyOO6JmyplQq0el0NDQ08MILL7BhwwYaGhoIDg5m6dKlPPzww4SFhaHX6+nu7kahUMiJuW1sbNBqtQAcP36cd999ly+//JKOjg75PW6++WY++ugjGhsbefnll9mxYwfl5eW9PoUgCCONs7MzN998M8uXL2fWrFnY2dlZFxkUxMgkQRAEQRAEQRBGDLVajUqloqqqiv3797Nr1y527NjBzp075W379u3s2bOH48eP09LSglqtRqm8/NZJq9ViNBo5fvw4u3fvZv/+/ezfv5+9e/eye/du9u3bx/Hjx1Gr1UybNo25c+fi5uZmXY0gCMKQc3mLKAiCIAiCIAiCMExptVo0Gg1ff/01a9eu5Z577uGee+7h7rvvlrfly5ezevVqfv/735OYmIhOp0Oj0fSpR6FQ4OrqSmpqKmvXrmXFihUsXbqUZcuWsXTpUm6//XZWrVrFv/71LzQaDXfddRcrVqxgwoQJfeoRBEEYikQwSRAEQRAEQRCEEcOy2prRaKSpqanfXEgA7e3ttLS00NnZedkqbRYKhQKTyURzc7P1LgBqamo4ffo0x44do76+nokTJxIdHW1dTBAEYcgRwSRBEARBEARBEEYMS44knU6Hi4tLv9PXAOzs7HBycsLGxkZeAc6aJEmo1Wp5Nbf+lJaWkpaWRmVlJZ6ennh6eloXEQRBGHL6bzkFQRAEQRAEQRCEbyVJEiaTyfrlPlxcXHB2dqarq4vOzk7r3YIgCEOOCCYJgiAIgiAIgjBi9Ddd7b8lSRIajQYXFxcAHBwc/r/27jy8pmv/H/g7iSSSIESNLVpX763S6ve7k6aGIIhZ76VV5VYveiklVEvR0pZLS+lt3eIaiq9OaA2l2ppqqBoiIkRkQgYZpZkkIuM5n98fv3POk73PPifnmBq8X8+Tx2OttffZe+017bUn+Pj4oE6dOmjQoAGaNm2KPn36oH///mjWrBnOnz+PhIQE7WqIiO46nEwiIiIiIqL7ht7jajeqvLwc9erVQ4cOHaAoCvz9/aEoCgICAvDMM8/g+eefxz/+8Q9069YNlZWV2L9/P86cOaNdDRHRXYeTSUREREREdM9zcXFBrVq1LHcR2Xtfkpm7uzv8/Pzg4eGBunXrWtK7ubnBx8cHPj4+ePTRR7FgwQKsXr0a//nPf7Bs2TIsXboUH330EV5//XX4+/sjOjoaGzZswM8//4zExETL+mvXrg1fX180btwYPj4+cHNzq/LrREQ1l/3Wk4iIiIiI6B5gNBpRXFyMuLg4xMXFITY2FuXl5TbvVDIajSgqKsLZs2cRFRWF5ORkVFRUAKYvwaWkpODAgQPIzs5GnTp18OCDD6JRo0Zo3LgxGjVqBF9fX5SWluLs2bPYsGED1q9fj6ioKNXX43JychAeHo5jx44hLS0NZWVlVbaAiO5nt/KR3NvBRWy1nkRERER3udLSUhw4cABz5szB6dOntdFEdB9xcXGBp6cnGjduDD8/P+Tl5SEjI8Pmy7NdXV3h6emJ5s2bo06dOsjKykJOTg4MBgM8PDxQv359NGzYEHXq1AE0J37mr78ZDAZcv34dBQUFKCgosJos8vX1RatWrVBZWYns7GxcvXrVMmFFRPen+vXrY9CgQXjppZfQpUsXeHt7a5PUCJxMIiIiontWSUkJfvnlF7z33nucTCIiIqIar06dOujfvz9GjhyJ4OBg+Pj4aJPUCHzMjYiIiO5ZBoMBFRUVqsdKiIiIiGoq8x2NJSUlNh/DrQl4ZxIRERHds/Ly8rBnzx58+OGHOHfuHNzd3Wv8OwiIiIjo/mIem5SVlcHDwwPPPPMM/vGPf+D5559HvXr1tMlrBE4mERER0T0rLy8Pu3fvxty5c5GUlIRevXqhbt26MBgMNfpqHxEREd0/3Nzc4OrqiujoaGRkZKBDhw4YOXIkJ5OIiIiI/gjFxcXYt28fQkND0aBBAyxfvhytW7dGcXExYHpJLhEREdEfydPTE+7u7vj888+xceNGPPXUUxg2bBh69+5dY9+ZxMkkIiIiumeVlZVh3759GDt2LP7yl79g79698PDw0CYjIiIi+sNt3LgRS5YsQYcOHTB06FB069atxn7NjS/gJiIionuW+fPcLi4uKCsrQ25urjYJERERUY1QWFiIyspKVFZW1vhH8jmZRERERERERERUw9Tkj4ZwMomIiIiIiIiIqIbhnUlERERERER3kK2TML1w8yOxNVVN3jYiuj/xBdxERER0zyotLcW+ffvw6quvolWrVti2bRuaNWumTUZE96iEhAScPHkSDRo0wBNPPIEmTZrA09NTm8wiLCwMsbGxaNmyJR577DE0bdoUrq6uSE1NRVRUFFJTU+Hq6gqDwaBd1KKyshI+Pj5o2rQpnnjiCbRo0QIGgwEJCQk4d+4ccnNz4erqCqPRqF0UAGA0GiEi8PX1RcuWLdGuXTs88MAD2mREdA9atWoVVqxYgQ4dOuCFF15AcHAwv+ZGREREdKdxMono/rZmzRpMnToVTzzxBKZPn46uXbvanZiZMmUKPvvsMzz77LN47bXXEBwcDHd3d+zcuRPz589HeHg4XF3tP9xhNBrRsGFDdOrUCaGhoQgJCUFxcTHWrl2LhQsXIjMzE25ubjbvNjJPMrVq1Qr9+vXD+PHj0aFDB20yIroH3U2TSfZbQiIiIiIiortUSUkJiouLkZubi9LSUpt3A5ldvXoVIoK8vDyUlZVZJnxKS0uRlpYGAOjQoQP69OmDAQMGYMCAAejfv7/qLyQkBCEhIQgICECTJk0A091KhYWFyMzMBAB06dIFffv2xcCBA62W79+/P/r27YsePXqgffv2qFevXpUtJCKqGXhnEhEREd2zeGcS0f1t1apVCA0NRYcOHTBz5kx069bN7p1JEydOxIoVKzBgwABMmjQJPXv2hLu7O7Zv34433ngDpaWleOedd/A///M/8PLy0n3XktFohLu7O+rWrYvmzZvDy8sL+fn5WLNmDebOnYv27dtj1qxZaNq0Kby8vFBZWala3rzO2rVrw9fXF40bN4aXl5cqDRHdm3hnEhERERER0T1CRGAwGODl5YWWLVuibdu2aNeuHdq1a4fHH39c9de+fXs89thjaNGiBby9vS3vQDKvw9fXF23atMHjjz+uu4527dqhffv2ePTRR9GsWTO773giIvqjcDKJiIiIiIjuaa6urnB3d0ft2rW1USq1atXSBlkYjUZ4eHjAz88Pfn5+8PT0RO3ateHt7W315+XlpZoEMk8miQi8vLzwwAMPwNfXF+7u7vDy8rJa3rwODw8PuLq6Wt39RET0R+NkEhERERER3dNEBJWVlSgvL9dGqdh7p5KLiwsMBgNKSkqqXY+Wi4uL5d+Kigpcv37d7hfhtMzLExHVFJxMIiIiIiKie5KbmxtcXV1x5coVnDx5Ej/++CP27NmDnTt3qv727t2L3bt3IyEhwbJcVS4uLqhVqxauXbuG2NhYhIWF4dSpUwgPD0dYWJjq77fffsP58+dx7do1y7Iw3R3l5uaGnJwcREZG4sSJE4iIiMDJkydVyx8/fhzHjh1DYmKi05NWRER3itv777//vjaQiIiI6F5QWVmJxMRE7Nq1C/Xr18ewYcNQt25dbTIiukedOXMGP//8M4qKigAA6enpSEhIQHR0NGJiYlR/58+fx6lTp1BSUoK//OUvUBQFrVu3hpubG+Li4nDo0CFkZmbCx8cHmZmZiI+PR2xsLGJjYxEXF4e4uDjExsYiMjIS165dQ8uWLeHr6wsRQVlZGc6ePYsjR46gtLQU7u7uSEpKQnx8PGJiYizLx8XFITo6GtHR0XB3d0fLli2rfTSPiO4dERERCA8PR9OmTdGuXTs88sgj8PDw0CarEXhnEhERERER3ZNcXFzg4uKC8vJyZGVlISkpCRcuXMClS5dUfxcvXsSFCxeQn58PV1dXuLqqT5NcXFzg4eGB8vJynDx5Ert378aPP/6IXbt24ccff1T9bd++HUePHkV+fr5lWZjuTKpVqxaysrJw6NAh/Pzzz7rL//DDD9ixYwfOnj2LkpISvi+JiGokTiYREREREdE9yWg0wmg0on79+ujQoQO6d++Ofv36ISQkRPXXt29f9O3bFw8//DAqKip032dUUVEBV1dXtGvXDp06dUKXLl0QFBSELl26WP6CgoIQHByMp556ynIXpHkyyGg0wmAwoGHDhlAUBZ07d7ZavkuXLujatSu6d++OP//5z/D09OT7kojuYzW5/rsIp7qJiIjoHlVaWop9+/bh1VdfRatWrbBt2zY0a9ZMm4yI7lGrVq3C5MmT8cQTT+Ctt95C165d0bRpU1RWVqrSmb/iNmHCBKxcuRIDBgzApEmT0LNnT7i7u2Pbtm2YMmUKPDw88NlnnyEoKAg+Pj4QEd2Xdru4uMDNzc3y0u6CggKsWbMG7733Hrp3745PP/0UrVq1gre3NyorK3XvPjLfIVWTTyaJ6NZatWoVVqxYgQ4dOuCFF15AcHAwfHx8tMlqBN6ZRERERERE9ywRgbu7O+rUqYP69esDpsmjqn9mXl5elmW0zOvx9fVF3bp1LS/Udnd3t/qrVauW1SSQiEBE4OnpiQYNGsDb2xswbYt2eXd3d8tkFBFRTcTJJCIiIiIiuqdVVlaipKTE8oU1W8rKygAbj5aY7zK6fv36DX9lzcXFBRUVFSguLra6O4qI6G7CySQiIiIiIqJqiAhcXV1Ru3Ztp7+uZL7TSURQq1YteHl5qe6Iqo7enVJERH8kTiYREREREdE9SURgMBhgMBhgNBqrnZQxv//IYDBYpXVxcUFhYSHi4uJw5swZJCQkID4+HrGxsaq/mJgYxMfHIykpCSUlJVZfh/v9998RFRWFc+fO4eLFi4iLi7NaR2xsLBISEpCamoqSkhLdO6WI6N5Xk+s+J5OIiIiIiOie5eLiYvmrjjmNNq2Liwtq166N3NxcHD58GFu3bsWmTZuwefNmfPvtt5a/zZs3Y+PGjdiyZQv27t2LlJQUuJhexm1+v9Lly5fx008/4bvvvsPGjRut1rFp0yZs3LgR27Ztw5EjR5CTk6PaFiK6f2gntWsSTiYREREREdE9qXbt2vDz84Ovry88PDxUdwjp8fHxgY+PD+rWrat6lM3DwwONGzeGi4sLoqOjcfDgQezfvx/79u3D/v37LX+//PIL9u3bh4MHDyIsLAxZWVmA6SXbPj4+aNy4MYqLixEWFoYDBw5YLV/179ChQzh79iyuXr1aZQuJiGoG+60pERERERHRXapVq1YYMGAAgoKC0KxZs2rfddS+fXs8++yzCAwMRKNGjSyTT02bNkWPHj3Qp08f/PnPf0azZs3QuHFjNGnSxOqvadOmaNy4MRo2bAhPT08AgLu7O9q0aYN+/fqhe/fuaNWqlc11NG3a1LKO+vXrw93dXbOVRER/PBepyfdNEREREd2E0tJS7Nu3D6+++ipatWqFbdu2oVmzZtpkRHSPKigoQFZWFmrXro2GDRvC29sbbm5u2mQWWVlZyM/PR506deDn5wdvb2+4uLigqKgIOTk5uHbtmuoROBGxeiTOaDTCzc0Nnp6eaNSoEXx9fSEiyM/PR25uLkpLSy3L6C1vPj1zc3ODj48PGjVqBG9vb1UaIro3rVq1CitWrECHDh3wwgsvIDg4GD4+PtpkNQInk4iIiOiexckkovuX3kSNrXDzKZE2vKbQ22YiuvdoJ5N69OhRYyeT+ZgbERERERHdc2xNvuiFuzj4gu4/Sk3eNiK6fWryvT+cTCIiIiIiIiIiIodxMomIiIiIiIiI6A92N92FyMkkIiIiui+4urqiVq1a2mAiIiKiGsHNze2umVDiC7iJiIjonlVSUoJ9+/Zh/PjxaNmyJb799lu0bNkSlZWVNfo9BERERHT/cHd3BwCsWLECK1euRIcOHTBs2DB+zY2IiIjoj1BSUoL9+/dj4sSJ8PX1xfLly/HII4+guLgYqOEvtiQiIqL7g6enJ9zd3fH555/j22+/hb+/PyeTiIiIiP4oBoMBe/fuxdixY5Geno7OnTujXr16qKysBKp8bls7HLIXVjVOL0ybvrowW+E3E3Yj9Najt3+OhmnXUV1YdfSWuZkwW/TS6u2fo2HadThCL+3NhN0IvfXo7Z+jYdp13Cy99dxMmC16afX2z9Ew7TocoZf2ZsJuhN569PbP0TDtOm6W3npuJsxWuL2wm9lnvTBb4TcTdiP01qO3f46Gaddxs/TWczNhtuil1ds/R8O063Bzc4OrqytOnz6NK1euYOjQoRg7diw6d+4Mb29v1TI1BSeTiIiI6J526tQp/Otf/8KuXbvg5eUFo9EIl7vkfQRERER0fxARlJeXo3nz5hgxYgRefPFFtG3bFp6entqkNQInk4iIiOiedvXqVcTFxSE1NRVGo5GTSURERFSjVJ2WqVu3Llq3bo0WLVrA29sbrq4187tpnEwiIiIiIiIiIqqBzI/I1TQ1c4qLiIiIiIiIiOg+VxMnksDJJCIiIiIiIiIicgYnk4iIiIiIiIiIyGGcTCIiIiIiIiIiIodxMomIiIiIiIiIiBzGySQiIiIiIiIiInIYJ5OIiIiIiIiIiMhhnEwiIiIiIiIiIiKHcTKJiIiIiIiIiIgcxskkIiIiIiIiIiJyGCeTiIiIiIiIiIjIYZxMIiIiIiIiIiIih3EyiYiIiIiIiIiIHMbJJCIiIiIiIiIichgnk4iIiIiIiIiIyGGcTCIiIiIiIiIiIodxMomIiIiIiIiIiBzGySQiIiIiIiIiInIYJ5OIiIiIiIiIiMhhnEwiIiIiIiIiIiKHcTKJiIiIiIiIiIgcxskkIiIiIiIiIiJyGCeTiIiIiIiIiIjIYZxMIiIiIiIiIiIih3EyiYiIiIiIiIiIHMbJJCIiIiIiIiIichgnk4iIiIiIiIiIyGGcTCIiIiIiIiIiIodxMomIiIiIiIiIiBzGySQiIiIiIiIiInIYJ5OIiIiIiIiIiMhhnEwiIiIiIiIiIiKHuYiIaAOJiACgsLAQP/30E3Jzc9GnTx+0adPGoTi6/Y4ePYqzZ89i4MCBaNmypTaa6LapqKjArl27kJubixEjRsDb21ubhIhuAPtV+1JSUvDLL7/AaDTi+eefR/369bVJ7ip5eXnYuXMn6tWrhyFDhmija5zk5GTs3bsXjz/+OLp06aKNJqL7ECeTiEhXeno6xo4dC29vb1y7dg3NmzfHunXrqo2j22/FihU4ffo0kpKS0LNnT7z99tvaJES3hYggNDQUBoMBZ86cwdy5c9G7d29tMiJyEvtV+3799VfMnj0bzZs3R2ZmJoYNG4bXXntNm+yukZmZibfeeguurq44f/489uzZg4YNG2qT1Rjh4eFYunQpysrKcO3aNfz888/aJER0H+JkEt0RhYWFCA8P1wZbeeaZZ+Dj4wOYljlx4gSCgoLg5eWlTXpXExGcO3cO+/fvx3PPPYdWrVppk1TLaDTit99+Q0VFhTYKLi4uaNCgAR577DG7eWcvj1955RU899xz6N+/P0QEsbGxePzxx6uNu1elpKQgJSUFXbt21UbdcUajEa6urhgzZgzat2+PN954Q5uEboDBYMDhw4fRtm1bNGvWTBtNJuby16NHD8yePRs9evTQJqE/gL32/H5yt+bD/divOqqgoAAjRozAsmXL0Lp1a5SWliIjIwOtW7fWJr1tbrZ/0JZLo9EIFxcXnDx5EhMnTsThw4ct49+ayNzur1+/Hrt27cLWrVu1ScikJo0XiW43vjOJ7ojLly/jp59+wowZM/DRRx9h06ZN+PHHH3H48GFEREQgIiICM2bMUC0ze/ZsvP322zh48KAq/G6WnZ2Nzz77DM8++yzGjBmDb775BnXq1NEmc0hBQQEOHz6M9957D++++y62bduGsLAwREdH49ChQ5g5cyZ69+6NFStWwGAwaBcH7ORxZGQkioqK0L9/f8A0OWUe1NqLu1eVl5dj1KhReOONN3DlyhVt9B3n6vr/m+6UlJQbmogkfV9//TXeeustrFmzRhtFVbi6uuL69esoLCxE06ZNtdH0B7HVnt9v7sZ8uB/7VWds2bIF3bp1s0we1a5d+45OJOEW9A/acunq6goXFxekpKTAz8+vRk8kQTPuaNGihTaaTGraeJHoduNkEt0R7du3x8SJEwEAb775JtasWYN///vfmDdvHt566y28+eabaN68uaozbd++PXr27HlPPZcdFxcHNzc3vPnmmwgODkadOnVu+LZmPz8/zJkzB15eXujbty+WL1+Ot99+G1OmTMG8efOwa9cuDB48GOvWrcO7776rXRywk8d79+5F+/btVWFm9uLuFmlpadixY4c22KZatWrB398fL7/8Mpo0aaKN/kMUFBTg6tWrd3xAfaddv34dGzZsgNFo1EbdkIiICJw4cUIbDAB4+OGH8fTTT2PYsGHaqBpLRLBz506kpqZqo26r5ORkAOBJxR1U3bG21Z7fb+7GfLgX+tXbae/evXjiiSe0wXfUzfYPtsplcnIy/vSnP6nCarKUlJR7ftxRHXvjkpo4XiS6nTiZRHeM+eTj4Ycf1kbBzc0NM2fOVIWNGzcOixYtQr169VThd7OuXbvitddeQ/fu3VFQUKCbF84oLCxEfn6+7nrc3d3xxhtvoHPnztizZ4/uCbStPI6IiMCDDz6oCjOzF3e3ePPNNxEdHa0NtsnV1RWLFy/G5MmTtVF/mKSkJAC4qwahN2LZsmXYsWOH5arozcjLy8OECRNQUFCgjQJM9XPFihX4y1/+oo2qsQ4ePIh58+ahdu3a2qjbKikpCX5+fqhbt642im6T6o61rfb8fnM35sO90K/eLnl5eUhMTETz5s21UXfUzfYPtsplUlLSXTU5k5KScs+PO6pjb1xSE8eLRLeTdS0guk1SUlLg4uJi88tTnTp1Uv1f711AWkaj0fIIl9FohPYVYLbWYTQaUVlZqQ0GdJbR/l+rvLzc6ncdkZiYeNMDCPME3SOPPKKNshg5ciQA4KefftJG6e5bSUkJkpKSdN8JYC9Oq6KiQveqDXR+V/t/LWfWZSvMrLy8HMnJyXj00Ue1UTZVLWda2t+yVbZshZtp1yMiKC8vV4VVdenSJTRq1MhqYKplr3xqf9PWNtoK12Nvu/Xy0Wg02jy2AHDhwgWHv2hU9Xf11nnp0iUYjUabx16bH3qMRqPddJWVlVb5rRfmKKPRaDM/ASAhIQG+vr5o1KiRNspKRUWFZTv08kervLzcZroLFy6oTijs1VEzg8FgN+/sqS4fbK3XXtnVLmMvLXTS2yvrWtWVG23dEBGrbanuWNtavzZcb932VFevqhIRq9+ryl5c1Tww6vTn0Fle+39bYVrVlVdb66iujFRXTvU406/aa8+hs93a/+uF2donW+FaN1Ov4UDdiIuLAwCH8sdMu77q9kXbRhsMBqvyoV2nXhozvTqmXd7s0qVL1fZx1eWRmbb+2do+s+rqgZk5XV5eHgoLC29oMslee2kr3GAw2C3vjuaLvXpp7zjaWsbeuMSoM87RspcXZtr90itTRDWCEN0hc+bMkYEDB2qDrfz666/y7LPPir+/v/zwww/aaDEYDPL999/LP/7xD3nttddkxowZMmvWLHn55Zflv//9r4iI5ObmytSpUyUgIEBGjRplWdZoNMqGDRskODhYOnfuLPHx8ZY48+8GBATIvn37JCoqSgYPHiyKosjixYst6cS0/k8++UTmz58v77zzjvTt21dWrFghRqNRlc6W/Px8URRFNmzYoI1yyo4dO0RRFElLS9NGWZSVlUlAQIAMHz7cEmYrjzdv3iwLFiwQRVFk3LhxMm3aNHn11VclPT3dbpxZeXm5fPHFFzJv3jyZO3eu/PWvf5Xp06dLUVGRiIgkJyfLK6+8IoqiyEcffSS5ubkyYcIEURRFRo4cKRUVFTe8LhGRo0ePygsvvCCKosjQoUMlKSnJsj4RkZ9//lkWLVokiqLIq6++KtOmTZMJEybI2bNnVenMjEajrFu3Trp37y5dunSRxMRES5y2vFRUVMjy5cslKChIAgMD5aOPPhKj0Sjl5eWybNkyS/jSpUtVv6HdD4PBIKtWrZLBgwdLQECAjBw5UvW7ZgsXLpRJkyZpg0UcKJ+3aturio+PlwULFsiCBQtk8uTJMmjQINm/f7+IJh+DgoIkPT1dioqK5IMPPpBOnTpJx44dZfny5ar1RUZGyurVq6VLly4ydOhQmTFjhkyaNEm+++47Vbq0tDR599135aWXXpLp06fLrFmz5J133pGgoCBLeSovL5cvv/xSJk+eLIqiyKxZs2Tq1KkyYcIEKSkpUR2DuXPnqtZvdubMGZk2bZqEhoZK79695Z///KekpKRY4ouLi2XOnDkSGBgow4YNEzEd20mTJklAQID07NlTfvnllyprtC8lJUXeeecdmTNnjsycOVP++te/ypYtWyzxmZmZsnbtWhk6dKgEBwfL22+/LZMnT5YFCxao1lNcXCzLly+XESNGyNSpU2XmzJkye/Zs6devn0RERKjSiqm9WLduncyYMUPmzp0rL7zwgixYsEAqKytV6V577TX56KOPJCIiQt5//32ZMGGCBAUFyeLFi8VgMKjSHj9+XKZNmyZz586VCRMmyIgRI3R/W091+XAr2vqrV6/KnDlzpF+/fhIQECBvvfWWFBcXW9LfaB0VB8qNXt3Yvn27BAcHyzPPPCN79uyp9ljbas+1+2kwGOSrr76SkJAQ8ff3lylTpsj169ct6auyVa86d+4s5eXl2uQiIrJv3z7p37+/BAQEyG+//aaNlrlz54q/v7+qz7DXn69atcqSTnsM9PoOW/lgZjQa5YcffpDQ0FCZMGGCdO/eXebMmaM61jdSnsSBcmqLI/1qSUmJrFixQkJDQ2X06NHSo0cPWbdunWo9zuTPrWr3b6ZeiwN14+rVq7J27VqZNGmSKIoiM2fOlKlTp8rUqVNV66lKu4/V1W1tu11ZWSmLFi2SZ555Rnr16iUpKSlW/YPBYJCVK1dKUFCQBAcHS05OjmobREQGDRokgwYNErFTP0VE8vLyRFEUiYqKUoWb/fLLLzJ37lxZsGCBjBw5UkaOHCkXL17UJpNTp07JxIkT5ZVXXpEZM2bIO++8I6GhofLPf/5Tm7TasZVZcXGx/Pe//5Xhw4dLaGiovPXWWzJ+/HgJCAiQsrIyVVp77I0N0tLSZOzYsaIoinzyySeq5U6ePCn+/v7yxRdfqMLFiXyJiYmRt99+W9577z2ZNm2aDB06VCIjI0VEpKKiQj755BPp3LmzBAcHS3Z2tmW53377TQYPHiz+/v6ydetWS7i9cYm98aJZZmamzJ07VyZPnixDhgyRv/3tb3LkyBFVGm0ZdqbdJvojcDKJ7piRI0fqnvweP35cdfLx/fffS0REhPTr10/+/e9/q9KWl5fL1KlT5ZVXXpErV65YwuPj40VRFNmzZ4+IiERERMjhw4dl0aJFEhgYaElXUlIiW7dulUOHDomiKLJv3z5LnPl3Q0JCZN68eTJjxgz57bff5KWXXpL+/ftb0l24cEFGjRolycnJlrAff/xRFEWRo0ePWsLsOX36tCiKIr/++qs2yilLly6Vjh07Wp28afXo0UOGDBli+b9eHpeWlsrmzZvlnXfeEUVR5MMPP5RFixbJ8uXL7caZJyiKiopk/PjxcujQIcvvZGVliaIo8p///EdERA4fPizHjx+XSZMmyejRo2XOnDmyb98+mTt3rihVJsWcWdf06dNlzJgx8vXXX8vq1aslJSVFLl68KIMGDVKVN6PRKFu3bpXp06dbBi6LFy+WJUuWSGlpqSVdVYWFhbJt2zY5cOCAKIoihw8ftsSZ83DQoEHyySefyIcffii//PKLZGdny1dffSWKosjBgwdlwYIFlvB169aJoiiqySvzfoSGhsqYMWNk/fr1lvjk5GQJDg5WTQSajR07Vj799FNtsEPl81Ztu9nu3btlypQpcu3aNUvYvHnzpGPHjlJYWGjJxyNHjoiiKLJjxw5599135dixY5KdnS2rV68WRTOgPnz4sPznP/8RxXQS8fHHH8sHH3yg2q+wsDAJDg6W77//XjWR+8Ybb6jyLCcnRzZv3iwvvvii9OnTR5YuXSqLFi2SL7/8UqTKMXj99dfl73//u2U5s61bt8ro0aMlNzdXxFQ+n3/+eXn22Wctg+rY2Fj55ZdfZO3atZa8/vDDDyUmJkYyMzPl9ddfl27dujk0CM/OzpaQkBA5d+6cJWzXrl2iKIqcPn1axPR733zzjXTp0kVGjRplOY5Vy2hmZqYMHjxYFi5cqCrjX3/9tfj7+8vVq1ctYWI6eRs1apTqJDg7O1v8/f1l165dqrS9evWSefPmyffff28JO3z4sFU9OXbsmAwYMED1W3PnzpWuXbuqTur0OJIPN9vWf/bZZ7Jo0SJLf7J//35RFEWWLFliSX+jddSRcmOuG3v37hVFUeTTTz+VxYsXy+HDhyUoKEjmzJlT7bHWa8+rhg8aNEg+/fRTWbhwoezcuVOysrLk6NGjEhAQIOvXr7ekN7NXr5577jlV2qp+/PFHiYiIkKCgIPnggw+00bJo0SLp27evpb+qrj+v2v470nfYygcxTVrNmTNH5s+fb5lkTkhIkI4dO8rs2bMt6W6kPDlSTvU40q/m5+fLiBEjZMeOHZbltm3bJoqiyPbt2y1hzuTPrWj3b6Zei4N1IzU1VTZt2iQvv/yydO/e3VKGtRMyVTlbt83t9rJly0RRFFm5cqVs2rRJNm7cKIqpr9L2D0VFRbJr1y754YcfRKky7qxq6NChMmvWLBE79VNEJDw8XBRFscozo9Eoixcvls8++8xSXyorK2XIkCHyj3/8Q5V23bp10q9fP6tj1K1bN6t66MjYyhw2ZMgQmT9/vmrbtm7dKoMHD7b8vzrVjQ3OnDkjx48fl1mzZknXrl1V/eOZM2ckICBANXHrTL788MMP8vLLL6sm+xYsWGCZ5EtPT5cff/xRvv/+e6syvmvXLgkPD5cBAwbIwoULLeH2xiX2xosiItHR0TJ48GA5f/68SJU2KTAwUC5dumRJd6PtNtEfhZNJdEcYjUYJCgpSdeJi6gQGDRqkGrCKaZD19NNPy7Zt21Th5o5A2/GaB26///67Kvz999+XF154QRUmVTrwCxcuaKOkS5cuMnz4cMvM//Lly2Xt2rUiIlJQUKDbaZsnh6oO+OzZunWrKIoily9f1kY55fXXX7fcBWFPcHCwvPzyy6owW3m8ceNG8ff31736bCvOaDRKaGioVQdnMBgkMDBQ5syZowqfMmWK9OjRwzJIOHr0qEyZMkUMBoPT65o1a5Y8++yzEhMTowr/+OOPpXfv3qowMU3AhYSEaIPtCgsLE0VRVFdNzUJCQuS1116TwsJCS5jBYJBnnnlGxo4dqxpsl5WViaIosnnzZkuY2ZQpU2T48OFWA9OlS5eKoihWV7mCg4Nl586dqjBny+et2PbIyEjp16+fah0iImvWrBFFc9dcUlKSKKaJvKp3uhQVFYmiKKorgGK6Oqi37yIily9fli5dulhtj5iuCi9atEgbLCNHjpSZM2dqgy3GjBkj77zzjiosLCxMunfvbtW2mCfoDhw4oArfsmWLBAYGyt69e1Xh5pPQqpNhtqxfv1569uypCjMP+KueQBYXF4u/v7/V3VpiOlEfNmyYvPXWW9ooyx1HVRkMBhk/frx89tlnqnARkU6dOqmuDmdnZ4uiKDJt2jRVuuLiYqsyMmnSJKttMOddde2fo/kgN9HWjx492urOzpdfflm3jXCmjjpbbs6fPy+Kosi//vUvS9jEiRPl+PHjItUca7HTnoupnk+YMEHy8vJU4cOHD7ec8JpVV6+0d77pCQ0NlZEjR2qDZdasWbJy5UrL/6vrz/Pz81XhUk3fIXby4b///a+MGjXK6sLLvHnzJCAgwOq3nClPzpRTPbb6VYPBIGPHjrW6M8hoNMrf/vY3efHFF1Xh4kD+yC1q92+mXjtbN6ZNmyZjxoxRhVXH2br9xRdfSGBgoKWPLC4uliFDhqgmObX9g8FgkC5dulgdH4PBIH369JHw8HBLmK1yuXHjRt079tevX6978XX8+PGqi5t79uyRp59+2upOuczMTFEURXbv3m0Jc3RsVV5eLi+++KLMmDFDlU5ME8LTp0/XButyZmxw5swZUapc8DIYDPLGG2/IV199VWVJx/Pl5MmT0qNHD6u7xjZs2CBdunRRhZknBbVtQFlZmQQGBsqmTZtU4fbGJWJjvJiTkyO9evWyumPT3E5on34QJ9ttoj8S35lEd0ROTg6uX7+O77//Hr1797b8hYSEwNfXFy4uLqr0MTExMBgMqq+bJCQkYNu2bRg/fjy8vb1V6ePj4/HQQw/hgQceUIWfOnUKTz31lCoMAM6fPw9vb2+rdxbl5eWhpKQE/fv3h5eXFwDgtddew5gxYwAAK1asQOvWrfHkk0+qlvvtt9/g7u6Op59+WhVuS3JyMjw8PG76hZspKSl235cE0zPfhYWFVvuql8cAkJWVhQceeADu7u6qcHtx+/btQ3R0tNVXTk6cOIHKykqrr5ekp6fjySefxJ///GfA9L6sTz/9FK6urk6vKy0tDcHBwWjbtq0qvLKyEp6enqowALh48aJVXlQnKioK9erVs/pyVUlJCfLy8vDiiy+qXkRsfo6/V69eqncamZ+j13uBbkZGBq5du4ZevXqpws3v98nIyLCEZWdn6763wJnyeSu23Wg04oMPPsDQoUNV6xARHD16FI888ojqpanp6emA6UWkbm5ulnDzurXH6+LFi3B3d7fKdwBYunQpGjVqhOeff14VXlRUhIyMDHTo0EEVbjQa7b6nrKKiArGxsar6YDAY8OGHH+K5556zalvatWsHmN53UVV6ejoeffRRhISEqMJt7aOeiooKFBQUICoqyhLm7u6OYcOGoVu3bpawxMREiIjuPm3ZsgWJiYmYMmWKNgpxcXFW+fPTTz8hLi7O0taZlZWVYfjw4Rg4cKAl7MKFCwCAQYMGVUkJnD17Fq6urqpyVlFRgcjISBQWFlrCmjdvjnHjxuGhhx6yhOlxNB9wA219QUEBSkpK8NBDD1m1w48++ijy8vJQWlqqCne0jt5ouQGA5557zhK2bNkyPPPMM0A1xxp22nNzPR8+fDgaNGigijMYDFZtUXX1Si+Ptdq1a4eLFy+q3kNSUlKCEydOYMiQIYAD/XnLli1Rv359VTiq6TtgIx9SU1Oxfv16jBs3zuqFue3atYPRaLR80MDMmfLkTDnVY6tf/emnn3D+/HmMGjVKFe7i4oK2bdvi0qVLVu+TqS5/bkW7j5uo1zdSN7Kyspx6X9KN1O309HT4+Pigb9++AABvb29s3boVjRs3Bmz0D66urmjbti3i4+MtYQBw5swZ+Pr6QlEUS5heuYSN8UhWVhZWrVqFsWPHqsILCgoQHR1tGQOVl5fj448/xsCBAy3H28y8Tf/zP/9jCXN0bGXuO9544w1VOpjafu326nF2bPDkk0+iSZMmOHr0KGBqh9q3b4+///3vljSO5ovBYMAHH3yAv//971ZfS27VqpXV141PnTqFhx9+2Kq9SUhIQGVlpe4xszUugY3x4rJly/DQQw+hc+fOqrRNmjRBw4YNrcq8s+020R+Jk0l0R5gHakuXLsXevXstfx9//LHul8jOnTsHHx8f1cny9u3b4eXlZTWQh2mApz05Sk5ORmZmJgIDA1XhMK2/ffv2VgPLlJQUAEBwcLAqHKbB9A8//GAZbMDUMW7ZsgXffvst5s2bh6ZNm6qWsSUpKQktW7a0+n1nlJeXIy0trdrJJPPLK80nJWZ6eQwAmZmZNj9naivum2++Qbdu3SwTcAAQGRmJ999/HyNGjEDv3r0t4QaDwTIBpMeZdYmIzc/UpqWl6ZatxMREmy9OtCUqKgodOnSwmvQ0lxft71++fBnQ+XKh+ZPe2nCj0Yi0tDSEhIRYlQkPDw/V/2EazECzHmfL563Y9hMnTiAxMVH1m6WlpZg/fz6uXLmCRYsWqfIsOTkZTZo0sTp5NK+7VatWqvDExEQ8/PDDqFWrlio8NzcXv/76KwYMGGCVX7GxsQBg9RnprKwslJaW2jz2CQkJKC8vV7Ujx48fR2pqqqrMmZnLp/aFmMnJybp1MjU1FbVr17acnNgzcOBA1K9fH6+//jpOnjwJAPDz88P06dNVA8vExEQA0N2n7du3w9/f3+oLSGVlZbh06ZJV/mzevBnBwcFWx8bT0xOTJk1S/W58fDw8PT1VbUp2djYWL16MmTNnqsrIiBEjUFBQgPHjx1smW5566imMGzfOqj5pOZoPN9LWm8t51bJrplfnnKmjN1JuUlJS0KRJE6tJcTN7xxp22nNb9dxoNCIjI0NV5xypV3oTLFpt27a19E9m+/btQ9euXS0vD6+uP9dOiMOBvgM28mHbtm3w8fHRLR96x8PZ8uRoObXFVr/67bff4plnntH9yIK3tzeMmpeUO5I/tsqDM+0+bqJe30jdsJU/tjhbt2HKl86dO9uM1+sfAOCxxx6zmgj4/vvv8dJLL6nyQa9cwsbkzHfffYdGjRqp6kBWVhZef/11tG3b1nKB4Ndff0Vubq7VpD5Mdahp06aq/sbRsdX27dsRGBho1VcZjUbExcVZba8eZ8cGLi4uCA4OxtGjR7F06VK0adMGo0ePtsTDiXw5duwYUlNT0b9//ypL/3/dunVTXegRERw/flz3QvC5c+fg6elp9fU+W+MSM+14sbCwELt377a6wGTm7e1tVeZt1VO9dpvoj3bjZ7JETjB/dUw7IGnVqhX++c9/qsJgurKjHbCdOnUKjz32mFVnX15ebnXFCABOnjwJFxcX+Pv7q8Jhauz1BsUXL15EgwYNrK5mAUBYWBjKy8vh5eWFX3/9FatWrcKYMWMQFxeHr7/+2mZHoSc5Odmqk3BWamoqjEajVZ5qHTx4EPXq1bO6QqqXxwBw5coVm1cB9eLy8vIQHR2Nhg0b4uTJk/jmm28wadIkfPHFF1iwYIHV1a2UlBRUVFRYHS/cwLquXLmC4uJiq5P3iooKnDlzRnVVDgCuX7+OrKwsqwGdPUajEefOnbM6+YbpCqqnp6dVnkRHR8PV1dVqH0+dOgUvLy+rE8aMjAyUl5dbfdEQAPLz8wHTFSyzixcvWk3KOFs+b8W2HzlyBHXq1EF+fj727t2Ljz76COPGjUOTJk2wefNmqzJ+6dIlqzAACA8Ph7e3t+6gTe9YnT59GkajUfeE88yZM2jQoIHVJIp5wK+3Ppjuqqldu7bqS2/Hjh2Dh4eH7gl8UVERAFhNIOtdaYZpH5966imr+qanWbNmWL16NR544AFMnDgRixcv1v3yS2Jiou4X/cyf0tbLn+joaBgMBstdADBNIsTGxuqWcT3x8fFo164dPDw8kJiYiLVr12LJkiV4//33LXeemHXt2hWLFi1CVlYWXnzxRXz//feqeHsczYcbaeuTkpLg4eGhu0x+fj7q1aunuvrrTB290XJjL/9tHWszW+25vXpeUlKiaiNvpF7pMdcxc78P08SI+cuicKA/r1o+zez1HWZ6+XDs2DE8/vjjVnkDG8fD2fLkaDm1Ra9fLSgoQExMjM19LSwsROPGjVX75Ej+2CsPjrb7uIl67WzdKCsrQ0FBgdX22uNs3YYD9U+vf4BpcjcnJwfFxcWAqe09e/as1USWXrk03y2rHb8cOXIEDz30EM6ePYsdO3bg7bffxuzZszF48GCsXLnS0u+fOnUKrq6uunXF/Htmjo6tcnJykJiYqJsXcXFxKCkpsdpePc6ODWC6iy4tLQ1t27bVnSBzNF+OHDmCRo0aWbWxehITE5Gbm2tzMqldu3ZWk0a2xiWwMV48deqU3XpZWFhota326qm23Sb6o1n3rES3QXJyMnx9feHn56cK9/Pz051hP3funNUVoPT0dKsrJTB1muXl5VaDk8jISDz66KNWg++0tDTk5eVZrR+mq0+2OkrzleGrV68CAEJCQrB27VrMnj0bLVu21KS2raSkBJmZmdVOAlXH1gRdVYWFhdixYwdGjx5tNXjSy2OYTppsXQXUizNvR3l5OYqKivDUU0/h448/xieffIKAgABVWpjy2M3NTTfPbmRd0Ll6c/r0aVy/ft3qkTjzMbR1jPUkJydbtkUrPj4ejzzyiNVJyunTp/Hkk09a3eXx22+/QVEUq8cZEhMT4ebmpjvYiImJQb169VT7eOnSJat642z5vBXbnpiYiHr16iEpKQl169bFyy+/jC+++ALjxo1T3dpuFh8fb3WsYBr8BQYGqtZtfvRE71iZr4RryyJMk2raAT9M2+ru7m7zEYyoqCirgePly5fh5+dnlUeoUvaqnrBcu3YNGRkZVvt4/fp1nD592qo82tO6dWt8/fXXGDNmDL777juMHz8eJSUlqjR6JyKokj967WVYWBjc3d1V7Yb5Kqj2sRNbqp7sz58/H1FRUfjoo490JyFgutNzy5YtCAwMxPz587FkyRJtEpscyYcbaesvXbqEtm3bWk1mwFTntPXdmTrqbLkxh2vLTVW2jrWZrfbcVj3/7bffUL9+fdX+VFevtH2sLc2aNYOXl5elPT99+jSaNGmiOgGrrj/Xq8P2+g4zvXy4fPmy1eMuZgkJCWjatKmqXbiR8uRIObVFr181311ja7svXLigW4aqyx9b5cGZdt/sRuq1s3UjMzMTsFEmbXG2bv/+++/Iz8+3W//0+gfoTJxu2bIFw4YNs8ovvXKZlZWFkpIS1fEyGo1ITk5GrVq1kJWVhRYtWmDmzJn4/PPP8de//lWVbxkZGfDz87P6rZKSEpw7d05VXx0dW9lrA06cOAEAdsuXmbNjgytXrmD79u2oV68ecnJytNFO5UtKSorDfVlkZCRcXFzwv//7v9oonDlzxqqs2BuXwMZ40V7/mp2djatXr1qNb23VU712m+iPZt2aE90GyTYe/dCTkZGB/Px8q8ZSexuo2b59+wDA6vnl+Ph4q3XANChAlefzq4qPj7c5OWN+xr5v377o2rUrWrdubdXQO8KRSSBHJCcnw8XFxW7HvmTJEjz88MMYMWKEKtxWHldUVCA/P9/qaoi9OHO+BAQEoGfPnnj88cftvhcmISEBDz30kNWgDDewrvj4eDRu3Bg+Pj6q8EOHDqFZs2ZWJyTmxy21EzH2mK/YPvbYY9oom5OP4eHhVle6ioqKcPr0ad07G+Lj49GmTRurfS0rK9N97CQpKcnqDgFny+et2PbS0lL4+vpiwIAB6Nixo9XVtaoqKyt1T4jz8vJw7tw5dO3aVRVufixN71hVVFRogwDTwCwqKkq3biUlJaFFixY28yQ6OtqqTSgvL7d6J4nZwYMH0alTJ9VJqPlkSLuPx44dQ3l5udU+6snIyMC2bdsA03tXJkyYgIULFyIqKgobN25UpU1KSnIqf0QE+/fvt3rE1lx2bC1X1bVr15Cenm458Ro8eDCOHz+OK1euaJMiMjLS8g4MPz8/LF68GC+88AI2bdqker+MHmfy4Uba+oSEBN3wmJgYpKen49lnn1WFO1NHnS03169fR2pqqm65NbN1rGGnPYeden7o0CF06dJFVQ5sHX9zvdL2sba4urriT3/6k+Uk6v/+7/8wbtw4VZrq+nO9bbbXd8BGPhhN7wLSOx6VlZU4cuQIhg4dqnrkxpny5Ew51WOrX7V3Z9OlS5eQmpqKF154QRVeXf7ATnlwpt2/mXrtbN3Izs4GTBOUjnK2bpvbbXv1T69/gGkyycXFBSkpKbh+/Tp++eUX1XvPYKNcosp4pGpfXlFRAaPRiNatW6NPnz743//9X6tJTTNb9fXw4cOoqKhQ1VdHx1b2yt3+/fvRuHFj3eW0nBkbZGdnY9asWXjzzTcRHBxsaQOqciZfysrK7O5HVfHx8WjRooXVurKzs5GdnW11zOyNS2BjvGjeFr1yf+jQIfj6+lrdOW6rnuq120R/NJZGuiOcmUyKiYkBAKtHXho2bGh5ft8sPz/fcnuxtjPIzc21uhJw9epVfPnll2jevDnq1KmjiqusrMSFCxdsDijMV1HN7yCq6tixY8jKytIG6zIPIBzND1uSk5PRrFkzqzuOYBpA//vf/0ZMTAyWLFmietkx7ORxVlYWRET3qpStOPM7MMzv1KgqMzMTx48fV4XFxMTYzGNn1xUbG6ubj+Hh4bpXmlJTU1G3bl2H3mNhFhsbixYtWlhdsRUR3d/PyMjAlStXrK5onTlzBpWVlVZXoGC6yqx9jAAAvvrqKxiNRqt3B6Smplpd1XemfN6qbW/cuDGSkpKsXmYK03sjjFVewHvx4kVUVFRYXf09deoURET1slKY7gKAjaug5qv15qv3ZgcOHICnp6dVGYUpz/TWBVM7kpWVZTVh2KhRI/z+++9WdxgkJibixIkTeP3111XhsbGxui/WDw8PR9OmTa0mAPWsWbPG6iS0R48eeOihhywnVjANrrOysnT3yZw/2vby+PHjunXY3E7q1bvCwkIcOHDA8n/zy7fNdTgkJMTyslqt9957D0eOHFGFmV8mrDf5VJWj+YAbaOthGqxr65yIYNmyZejQoYPVY8HO1FFny01cXBxExGa7aO9Yw057bquemx+D1LaRturV3r170bZtW6s+1p5WrVohIyMDUVFRqFu3rtW22erPY2Ji4OHhAV9fX1Ucquk7YCMfXF1d8cADD1j9FgDs3LkTPj4+GD58uCrcmfLkTDnVY6tfNbfn2mMBAOvWrcOAAQOsTnSryx9b5cHZdv9m6rWzdcPenTK2OFu3Y2JiUKdOHZt3gdnqH2B6MXmTJk2QkZGBTZs2YdiwYVaTLXrlEqZjay6fZp6enqhXr55uW1xeXo5du3ZZ/t+wYUPk5ubi+vXrljARsbzMv2p9dXRsZavvOHXqFAoLCy3rqY6jY4OioiJMmjQJ48ePR9OmTdGjRw+cO3fOqtw7ky/m+m4+N6jq559/RllZmeX/enXdaDRi+fLlQJWPK5jZG5fAxnjRnGfafSovL8dXX32FKVOmqN5jZaue2mq3if5onEyi266oqAjZ2dl2r0xUZe4Iq94mDwAdO3ZEbGyspTOpqKjA+vXr0aNHD8B0VbAqPz8/yyAdACIiIvDZZ5+hadOmqF27NiorK1Ud5qVLl1BRUWF1ImhmvhqwcuVKVQf5008/4cCBAw4NdsrKynDmzBnAdJJW9crSyZMnMXXqVMv+V+fSpUvw8/OzPNYE09Wgw4cPY9SoUUhLS8PatWutHi2EnTw2DwT1Tnptxf3pT3/Cgw8+iO+++84y8INpAPXRRx+pruaJCOLi4mzmsTPrQpWrSloZGRmoW7cuCgsLVbdMX7t2DW5ubqisrERZWRnWrFmDeM2XWLTS09Ph7e2NiooK1QtlMzIyUFxcbPX758+fB3QeMTLfrl+nTh3LhKJZQkKC1TP4e/fuxYYNG7Bw4ULVMTTfpg7T4ML8NR1nyuet2vZu3bqhtLQUq1evttSz8vJyfPrppzAajaqrZ+arv9rHzMzHuU6dOpZH9WA6VmYign379mHnzp0AgMDAQLi6umL79u2W342MjISXl5dl36vmDUzrM6fNycnBBx98YLliWLU+XL582TLQ7datG4xGo2qgWlhYiPfffx9z5861mhiLj4/Hgw8+aHXV0FweKysrrQaUWnXr1kVWVpZq/wsLC5Gfn696WfH169chIpZ9io2NxYoVKwDTXZoPPvgg9u7da1lPTk4OoqKiLBOp5eXllrxv06YNWrRogS1btqi2LykpCe+++y4ef/xxVRiqTEDVrl0b/fv3x5YtW5CTk4OCggJVeTG/LN4s2fTIs/YuCC1H8wE30NbrfQ3RPAGflpaGDz/80Oolws7UUWfLjXkCWNu2mtk71rDTntuq5+b0devWxeXLly13CdmqV+aTUr3Hhmxp2bIlMjIysHLlSoSGhmqjdfvzDRs2QFEU1KpVC5WVlZY7m+BA3wE7+dCtWzecP39eVRbj4uKwceNGfPrpp1b75Ux5cqac6rHVr7Zo0QKPPPII9u7dq5p42bFjB37//XfMmjVLld6R/LFVHpxt92+mXjtbN65cuYI6deroPhql50bqdmxsrFX+V2WrfzBr2bIlYmJicOLECfztb39TxcFOuczJybGMR7TlNSIiQjVhl5ubi9mzZ6vyp2PHjhAR1fuqNm7caJn8q1quHR1btWrVCs2aNcPu3bstkzEFBQXYv38//vznP8PV1RXlmpfr63F0bPDee+/hscces5SbgIAA+Pj44PPPP4fRaER8fLxleUfzpUePHigvL8fy5cstyxoMBqxbtw7p6emqyT4/Pz+kpqZaJuTS0tIwf/58y5fdvLy8VGXf3rgENsaLnTt3Rq1atbBjxw5LOqPpa3c9e/a0ulPOVj211W47e+5AdMsJ0W20atUq6dq1qyiKIoqiyNChQ6W0tFSbTOXHH38URVGkY8eO8vXXX1vCr1y5In/9618lKChIpk6dKpMnT5aUlBT5+eefJSgoSLUOEZEdO3ZIQECAhISESO/evWXBggVSWloqS5YsEUVRpHfv3hIWFmZJ//PPP4uiKLJhwwbVeqravHmzBAYGSu/evWXy5Mny0ksvydq1a8VgMGiTWpk+fboEBgZa8kJRFOnXr5+Ul5eLiEhoaKj4+/tLbGysdlGVw4cPS79+/VTrCQoKkl69ekmfPn1k2rRpcvz4ce1iKrbyeOfOneLv7y/Xr19Xpa8u7syZM9KzZ0/p3LmzvPbaazJ69Gh59913pbCwUJUuOztbFEWR0NBQVXhVjq6rrKxMFEWRSZMmqcJFRAYPHiyKosiIESMkLS3NEr57925RFEVCQkJkyJAhcvDgQdVyeubNmyeKokifPn0kPDzcEn7s2DFRFEXWr1+vSr9hwwZRFEUOHDigCj906JAlz1euXGkJLyoqEkVRZPz48fLll1/Kl19+KaGhoTJ27FhJSEhQrUNExGAwSK9evcTf31/GjBkjubm5ljhHy+et2naDwSCzZ88WRVHk+eefl8mTJ8vIkSPl0KFDquVFRD777DNRFEWioqJU4eZ616lTJ1m3bp0lPD09XTp27Chdu3aVgQMHypo1a1T7sW7dOvH395cRI0ZIaGiorF69WkREQkJCxN/fX8aOHSv5+fmW9AsWLBBFUWTgwIEyevRouXTpkiUuIyNDAgICJCAgQGbPnm2pk0ajUd5//315+umnZcGCBfLpp5/K66+/LufOnbMsW9WoUaOkc+fOVvk9f/58UUxtztGjR1VxWlevXpVXX31VRowYIVu3bpVvvvlGJkyYIHv27FGlMxqNMmTIEAkMDJSBAwfK22+/raojYWFhEhQUJP3795epU6fKnDlzpLi4WGbNmiWKosigQYPk/PnzlvTnz5+XPn36SMeOHWXChAnyyiuvyIwZM+T333+3pBFTm64oiqqNSU9Pl6CgIAkICJCRI0dKenq6iIjExsbKoEGDZPr06bJjxw5ZtWqVTJgwQeLj46usUZ+j+SA30NYfPnxYFEWRuXPnyqZNm2TNmjUyYsQIeffdd6WgoEC1brmBOupsuTGXj+joaG2UiAPH2lZ7bqueZ2ZmWsr7jBkzVH2ytl59/vnnIqY29auvvqqyFvvM27R161ZtlIhOfx4aGirJycmyZcsWUUx92s6dOy3pHek7bOVDQUGB/P3vf5devXrJ0qVLZcGCBTJnzhzJzs5WLW/mTHlyppzqsdevRkdHS69evWTYsGHy3//+V2bNmiXLli2TsrIybVKH8sdWeXC23b+Zeu1s3Xjvvffk5Zdf1gbb5GzdFlPZDgoKsmq3zWz1D2bz5s2TTp062dx/W+Vy8+bNlrJetZ7k5ubK8OHDxd/fX0aPHi0TJkyQ8ePHq/osMfW/U6ZMEX9/f5kwYYJMnDhRDh8+bCkL2rGko2Oro0ePSpcuXSx9x5tvvil5eXny8ccfi2Iat546dUq1jJYjY4OkpCRRFEWSkpJUy65YscKSX4sXL7YcF0fzxWg0yr/+9S9RFEUGDx5sGQvt2rVLlU5EJD4+Xrp37y5BQUEycOBAGTt2rGRkZMjBgwdFMY1LvvjiC0v66sYltsaLW7dulcDAQJkyZYqsWLFCpkyZors9Yqee2mq3HT13ILpdOJlENY7RaJTTp09bncSIaQLh9OnTEh0dbWnAv/jiC3nuuee0SUVEJCsrS8LCwiQrK8sSVlJSIqdOnZLi4mJV2qtXr0pERIRVuFZ+fr6Eh4fL2bNnpaSkRBt9w65cuWLVKd4utvJ4zZo1MmTIEFWYmb04EZHS0lI5e/ashIeHS15enjZaxDTACA8PtzmIN3NkXUajUU6dOmW1D2IaWJ89e1Z3cBgXFyfnzp2TyspKbZSu69evS3h4uNVgv6ioSLe8/P777xIZGak74D979qxkZGSowiIiIkRRFElPT5eoqCgJCwuTzMxMVRqt9PR0OXfunO7+OVI+b9W2m6WlpUlYWJjExcXpbpOYtrlqvTUzGo0SGRmpWybS09N1t9MsPT1dwsLCVGUgPT1dzp8/L0ajUZW2srJSIiIibNaxCxcu2IxLSUmRsLAwSU5O1kapxMbGWg2MxVSG9Noce1JSUuTEiRMSGxtrs6wWFhbKyZMndfNOTG1aWFiYJCYmWsLMx17vGJeVlcnZs2fl5MmTkpOTo40WMQ3oIyMjpaKiQhWelZUlUVFRVsfXYDDI+fPnJSwsTFJSUlRxjnAkH8TJtn716tUyePBguXr1qpw6dUoiIiLk6tWrqjRV3UgdFSfKzeXLlyU6Otru/tk71rbac1v1XETk4sWLNsu7Xr3q0qWLwxMkIiLFxcUSExOjDVYx9+dV2zKDwSARERGqiWBzeHV9h618kCrl0F7ZrsqZ8iROlFOt6vrVkpISiYiIkMjISN3fNXMkf2yVhxtp929FvXakbowfP14WLFigDbbJ2botpon0qm2kHnv9Q2ZmpuqilZatcmku61UvCFWNi4+Pl7CwMElNTdVGWxiNRomLi1Md1/Pnz4uiKLrrdWRsJVX6jqqT5eZ+zNa4Qk91YwO9NsJoNEpUVJTNcudIvohpEjAsLExiYmLs1smioiIJDw+XCxcuWMKMRqOcOXNGtz7ZG5fYGi+Kqe90dHtsrV+v3b6T5w5EelzEfA8g0V3qgw8+QGFhIRYuXKiNIif961//AgDMmTNHG2U3jm7cxo0bsWrVKhw6dEgbRUS3wbRp0yAi+Pjjj7VRuu73OpqTk4O+ffvi22+/tXoMiW4O+1X7/va3v2HcuHHo37+/NkqXs3X7XrRnzx4sWbJE90XWRES3Gt+ZRHeFyMhIvPfee9pgAMDZs2erfU6fHJORkWH1ckoze3F04y5cuMATNKI7KCEhwak6dz/UUaPRiMWLF1u+0lVVVFQUGjVqZPVCWLp57FdtMxqNyMnJQefOnbVRNjlbt+9WOTk5ePvtt3U//MIxMRHdSZxMorvCd999Z/UlL5i+EHXlyhX07t1bG0VOKi0tRU5OjtVngKuLo5sTHx/PkzSiO+TatWvIyMhwqs7dD3U0NTUVmzdvtrx0uardu3dj8ODBVi8uppvDftW+c+fOoUuXLrpf9tNzI3X7bvXrr79avZwdppdcHzhwAM8995wqnIjoduFkEt0V2rRpY/ksptn169excOFCTJs2TffTz1S9NWvW4MCBA4iKisK7776LkSNHolatWtXG0a1hMBiQmJho85PERHRrXbhwAajyNbrq3C91tEmTJqhTpw4iIiJU4QcPHsTly5cxcuRIVTjdGPartokIFixYgPDwcJw8eRJLlizBq6++qk1mk7N1+27Wpk0bwPSlQTMRwbJly9CpUyd+Pp6I7hhOJtFd4aWXXkLv3r0xceJE/Oc//8Enn3yCWbNm4aWXXsLAgQO1yclBV65cwVtvvYWxY8eiTZs2qk+U2oujW6OwsBAVFRWqT88S0e2Tm5sLAKoLE/bcL3W0du3a+PDDDxEZGYk33ngDq1atwuzZs3Hs2DGsXr0aXl5e2kXoBrBftS8iIgITJkzAzJkzMXbsWKfuMnK2bt/NnnzySYSGhmL58uX44IMPsGLFCrz55pto0KABZs+erU1ORHTb8AXcdFe5evUq8vLy4Ofn5/Ctz2SbiCAtLQ3169dH3bp1HY6jWyctLQ2NGzeGh4eHNoqIbrGKigpcuXIFzZs3h6urY9fT7qc6ajQakZaWBjc3NzRp0oR3zdxi7FftKy8vR2ZmJpo1a+Z0fbuRun23Ky0tRVZWFry9vdGoUSM+ikpEdxwnk4iIiIiIiIiIyGH3x9Q9ERERERERERHdEpxMIiIiIiIiIiIih3EyiYiIiIiIiIiIHMbJJCIiIiIiIiIichgnk4iIiIiIiIiIyGGcTCIiIiIiIiIiIodxMomIiIiIiIiIiBzGySQiIiIiIiIiInIYJ5OIiIiIiIiIiMhhnEwiIiIiIiIiIiKHcTKJiIiIiIiIiIgcxskkIiIiIiIiIiJyGCeTiIiIiIiIiIjIYf8PiiHSNGcpb1cAAAAASUVORK5CYII=;" parent="1" vertex="1">
                    <mxGeometry x="-250" y="258.5" width="1171" height="433" as="geometry"/>
                </mxCell>
                <mxCell id="2" value="软件" style="rounded=0;whiteSpace=wrap;html=1;horizontal=0;fillColor=#dae8fc;strokeColor=#6c8ebf;fontSize=13;" parent="1" vertex="1">
                    <mxGeometry x="160" y="398" width="40" height="159" as="geometry"/>
                </mxCell>
                <mxCell id="3" value="硬件" style="rounded=0;whiteSpace=wrap;html=1;horizontal=0;fillColor=#dae8fc;strokeColor=#6c8ebf;fontSize=13;" parent="1" vertex="1">
                    <mxGeometry x="160" y="557" width="40" height="63" as="geometry"/>
                </mxCell>
                <mxCell id="4" value="QEMU" style="rounded=0;whiteSpace=wrap;html=1;fillColor=#dae8fc;strokeColor=#6c8ebf;fontSize=13;" parent="1" vertex="1">
                    <mxGeometry x="200" y="583" width="120" height="37" as="geometry"/>
                </mxCell>
                <mxCell id="6" value="RISC-V 指令集规范" style="rounded=0;whiteSpace=wrap;html=1;fillColor=#d5e8d4;strokeColor=#82b366;fontSize=13;" parent="1" vertex="1">
                    <mxGeometry x="200" y="557" width="120" height="26" as="geometry"/>
                </mxCell>
                <mxCell id="7" value="OpenSBI" style="rounded=0;whiteSpace=wrap;html=1;fillColor=#dae8fc;strokeColor=#6c8ebf;fontSize=13;" parent="1" vertex="1">
                    <mxGeometry x="200" y="522" width="120" height="35" as="geometry"/>
                </mxCell>
                <mxCell id="8" value="SBI 规范" style="rounded=0;whiteSpace=wrap;html=1;fillColor=#d5e8d4;strokeColor=#82b366;fontSize=13;" parent="1" vertex="1">
                    <mxGeometry x="200" y="496" width="120" height="26" as="geometry"/>
                </mxCell>
                <mxCell id="9" value="Linux Kernel ABI" style="rounded=0;whiteSpace=wrap;html=1;fillColor=#d5e8d4;strokeColor=#82b366;fontSize=13;" parent="1" vertex="1">
                    <mxGeometry x="200" y="438" width="120" height="26" as="geometry"/>
                </mxCell>
                <mxCell id="10" value="&lt;span style=&quot;color: rgb(0, 0, 0);&quot;&gt;你的 OS&lt;/span&gt;" style="rounded=0;whiteSpace=wrap;html=1;fillColor=#f8cecc;strokeColor=#b85450;fontSize=13;" parent="1" vertex="1">
                    <mxGeometry x="200" y="464" width="120" height="32" as="geometry"/>
                </mxCell>
                <mxCell id="11" value="应用" style="rounded=0;whiteSpace=wrap;html=1;fillColor=#dae8fc;strokeColor=#6c8ebf;fontSize=13;" parent="1" vertex="1">
                    <mxGeometry x="200" y="398" width="120" height="40" as="geometry"/>
                </mxCell>
            </root>
        </mxGraphModel>
    </diagram>
</mxfile>